solid Uniao - Rolamento v5
facet normal 0.0 0.1305261922200052 -0.9914448613738166
  outer loop
    vertex -236.2569220579801 157.88827121565797 -59.51499150934073
    vertex -255.59449371197564 157.11182213179003 -59.617212970481354
    vertex -255.59449371197564 157.88827121565797 -59.51499150934073
  endloop
endfacet
facet normal 0.0 0.1305261922200052 -0.9914448613738166
  outer loop
    vertex -255.59449371197564 157.11182213179003 -59.617212970481354
    vertex -236.2569220579801 157.88827121565797 -59.51499150934073
    vertex -236.2569220579801 157.11182213179003 -59.617212970481354
  endloop
endfacet
facet normal 0.9999999267682773 2.9642771368553566e-21 -0.0003827054225060118
  outer loop
    vertex -236.2591904680293 166.70330696069897 -71.04030975598259
    vertex -236.2569220579801 156.38828676984494 -65.11300967167719
    vertex -236.2591904680293 148.8882633395153 -71.04030975598259
  endloop
endfacet
facet normal 0.9999999700480373 -0.00014899605367499583 -0.00019417543760246844
  outer loop
    vertex -236.2569220579801 156.38828676984494 -65.11300967167719
    vertex -236.2569220579801 155.7669728690406 -64.63625874758351
    vertex -236.2591904680293 148.8882633395153 -71.04030975598259
  endloop
endfacet
facet normal -0.0 0.9914448613738079 -0.1305261922200711
  outer loop
    vertex -255.59449371197564 154.99052378517285 -61.73851131709851
    vertex -236.2569220579801 154.8883023240322 -62.51496040096636
    vertex -255.59449371197564 154.8883023240322 -62.51496040096636
  endloop
endfacet
facet normal -0.0 0.9914448613738079 -0.1305261922200711
  outer loop
    vertex -236.2569220579801 154.8883023240322 -62.51496040096636
    vertex -255.59449371197564 154.99052378517285 -61.73851131709851
    vertex -236.2569220579801 154.99052378517285 -61.73851131709851
  endloop
endfacet
facet normal 0.9999999706064182 -0.00019235696016856103 -0.00014760068686292557
  outer loop
    vertex -236.2569220579801 155.7669728690406 -64.63625874758351
    vertex -236.2569220579801 155.29022194494698 -64.0149448467792
    vertex -236.2591904680293 148.8882633395153 -71.04030975598259
  endloop
endfacet
facet normal 0.9999999997853803 2.7042533870250964e-06 2.0540843786337174e-05
  outer loop
    vertex -236.2574592593666 166.70331477470538 -34.52267472121412
    vertex -236.2569220579801 157.88827121565797 -59.51499150934073
    vertex -236.2569220579801 158.66472029952573 -59.61721297048143
  endloop
endfacet
facet normal 0.9999988990837 -0.000567847463038046 -0.0013709050466255153
  outer loop
    vertex -236.2591904680293 166.70330696069897 -71.04030975598259
    vertex -236.2569220579801 157.11182213178995 -65.41270783145134
    vertex -236.2569220579801 156.38828676984494 -65.11300967167719
  endloop
endfacet
facet normal 0.0 0.608761429008707 -0.7933533402912457
  outer loop
    vertex -236.2569220579801 156.38828676984505 -59.91691113025554
    vertex -255.59449371197564 155.76697286904067 -60.39366205434919
    vertex -255.59449371197564 156.38828676984505 -59.91691113025554
  endloop
endfacet
facet normal 0.0 0.608761429008707 -0.7933533402912457
  outer loop
    vertex -255.59449371197564 155.76697286904067 -60.39366205434919
    vertex -236.2569220579801 156.38828676984505 -59.91691113025554
    vertex -236.2569220579801 155.76697286904067 -60.39366205434919
  endloop
endfacet
facet normal -0.0 -0.9914448613738145 -0.13052619222002196
  outer loop
    vertex -236.2569220579801 160.78601864614288 -61.73851131709865
    vertex -255.59449371197564 160.88824010728348 -62.514960400966466
    vertex -236.2569220579801 160.88824010728348 -62.514960400966466
  endloop
endfacet
facet normal -0.0 -0.9914448613738145 -0.13052619222002196
  outer loop
    vertex -255.59449371197564 160.88824010728348 -62.514960400966466
    vertex -236.2569220579801 160.78601864614288 -61.73851131709865
    vertex -255.59449371197564 160.78601864614288 -61.73851131709865
  endloop
endfacet
facet normal 0.9999999994279445 3.124996291713043e-05 1.294415846393152e-05
  outer loop
    vertex -236.2574592593666 166.70331477470538 -34.52267472121412
    vertex -236.2569220579801 160.4863204863687 -61.01497595515364
    vertex -236.2569220579801 160.78601864614288 -61.73851131709865
  endloop
endfacet
facet normal 0.9999999652383639 -0.00024360177263328363 -0.00010090315804283117
  outer loop
    vertex -236.2569220579801 155.29022194494698 -64.0149448467792
    vertex -236.2569220579801 154.99052378517283 -63.291409484834176
    vertex -236.2591904680293 148.8882633395153 -71.04030975598259
  endloop
endfacet
facet normal 0.9999999474877369 0.00032058859776636436 -4.740753543340926e-05
  outer loop
    vertex -236.2574592593666 166.70331477470538 -34.52267472121412
    vertex -236.2569220579801 160.88824010728348 -62.514960400966466
    vertex -236.2591904680293 166.70330696069897 -71.04030975598259
  endloop
endfacet
facet normal 0.9999999983735908 5.654555607418272e-05 7.444363684633781e-06
  outer loop
    vertex -236.2574592593666 166.70331477470538 -34.52267472121412
    vertex -236.2569220579801 160.78601864614288 -61.73851131709865
    vertex -236.2569220579801 160.88824010728348 -62.514960400966466
  endloop
endfacet
facet normal 0.9999999503063528 -0.00031174207320717583 -4.694861141832459e-05
  outer loop
    vertex -236.2569220579801 154.99052378517283 -63.291409484834176
    vertex -236.25692205797995 148.88827121565828 -22.724515154730113
    vertex -236.2591904680293 148.8882633395153 -71.04030975598259
  endloop
endfacet
facet normal 0.9999999503063528 -0.00031174207320717583 -4.694861141832459e-05
  outer loop
    vertex -236.25692205797995 148.88827121565828 -22.724515154730113
    vertex -236.2569220579801 154.99052378517283 -63.291409484834176
    vertex -236.2569220579801 154.8883023240322 -62.51496040096636
  endloop
endfacet
facet normal 0.0 0.3826834323651082 0.9238795325112792
  outer loop
    vertex -236.2569220579801 156.38828676984494 -65.11300967167719
    vertex -255.59449371197564 157.11182213178995 -65.41270783145134
    vertex -255.59449371197564 156.38828676984494 -65.11300967167719
  endloop
endfacet
facet normal 0.0 0.3826834323651082 0.9238795325112792
  outer loop
    vertex -255.59449371197564 157.11182213178995 -65.41270783145134
    vertex -236.2569220579801 156.38828676984494 -65.11300967167719
    vertex -236.2569220579801 157.11182213178995 -65.41270783145134
  endloop
endfacet
facet normal 0.3827867996234782 -0.3522373454337258 0.8540510046336914
  outer loop
    vertex -240.75298111346785 150.25988511904737 -21.009992679033363
    vertex -238.09998935165964 176.243011061641 -11.482813344294168
    vertex -240.75593793920922 175.82311686978863 -10.465591141430423
  endloop
endfacet
facet normal 0.3827867996234782 -0.3522373454337258 0.8540510046336914
  outer loop
    vertex -238.09998935165964 176.243011061641 -11.482813344294168
    vertex -240.75298111346785 150.25988511904737 -21.009992679033363
    vertex -238.09703252591828 150.67977931089973 -22.02721488189711
  endloop
endfacet
facet normal -0.3825800559404127 -0.35234565553602804 0.8540989637164523
  outer loop
    vertex -249.1098079197505 150.67822084933212 -22.02652480418774
    vertex -246.4565699619296 175.82231015071912 -10.465233930922857
    vertex -249.11276474549186 176.24145260007336 -11.482123266584798
  endloop
endfacet
facet normal -0.3825800559404127 -0.35234565553602804 0.8540989637164523
  outer loop
    vertex -246.4565699619296 175.82231015071912 -10.465233930922857
    vertex -249.1098079197505 150.67822084933212 -22.02652480418774
    vertex -246.45361313618824 150.25907839997785 -21.009635468525786
  endloop
endfacet
facet normal 0.0 0.6087614290087251 0.7933533402912318
  outer loop
    vertex -236.2569220579801 155.7669728690406 -64.63625874758351
    vertex -255.59449371197564 156.38828676984494 -65.11300967167719
    vertex -255.59449371197564 155.7669728690406 -64.63625874758351
  endloop
endfacet
facet normal 0.0 0.6087614290087251 0.7933533402912318
  outer loop
    vertex -255.59449371197564 156.38828676984494 -65.11300967167719
    vertex -236.2569220579801 155.7669728690406 -64.63625874758351
    vertex -236.2569220579801 156.38828676984494 -65.11300967167719
  endloop
endfacet
facet normal 0.0 -0.38268343236507135 0.9238795325112946
  outer loop
    vertex -236.2569220579801 158.66472029952564 -65.41270783145137
    vertex -255.59449371197564 159.38825566147065 -65.11300967167725
    vertex -255.59449371197564 158.66472029952564 -65.41270783145137
  endloop
endfacet
facet normal 0.0 -0.38268343236507135 0.9238795325112946
  outer loop
    vertex -255.59449371197564 159.38825566147065 -65.11300967167725
    vertex -236.2569220579801 158.66472029952564 -65.41270783145137
    vertex -236.2569220579801 159.38825566147065 -65.11300967167725
  endloop
endfacet
facet normal 0.9999999414460828 4.466739624995228e-05 -0.0003392825587702176
  outer loop
    vertex -236.2591904680293 166.70330696069897 -71.04030975598259
    vertex -236.2569220579801 158.66472029952564 -65.41270783145137
    vertex -236.2569220579801 157.88827121565785 -65.51492929259202
  endloop
endfacet
facet normal 0.13063712230698954 -0.37803687638260386 0.9165271749218529
  outer loop
    vertex -243.60325513839052 150.11639187287582 -20.662915291104632
    vertex -240.75593793920922 175.82311686978863 -10.465591141430423
    vertex -243.60621196413186 175.6796236236171 -10.118513753501702
  endloop
endfacet
facet normal 0.13063712230698954 -0.37803687638260386 0.9165271749218529
  outer loop
    vertex -240.75593793920922 175.82311686978863 -10.465591141430423
    vertex -243.60325513839052 150.11639187287582 -20.662915291104632
    vertex -240.75298111346785 150.25988511904737 -21.009992679033363
  endloop
endfacet
facet normal 1.0 -9.242762262058295e-16 -3.5411535709214697e-15
  outer loop
    vertex -236.2569220579801 154.8883023240322 -62.51496040096636
    vertex -236.25692205797995 151.21849357882024 -23.33272631781822
    vertex -236.25692205797995 148.88827121565828 -22.724515154730113
  endloop
endfacet
facet normal -0.0 -0.6087614290086888 -0.7933533402912596
  outer loop
    vertex -236.2569220579801 160.0095695622751 -60.39366205434922
    vertex -255.59449371197564 159.38825566147074 -59.9169111302556
    vertex -255.59449371197564 160.0095695622751 -60.39366205434922
  endloop
endfacet
facet normal -0.0 -0.6087614290086888 -0.7933533402912596
  outer loop
    vertex -255.59449371197564 159.38825566147074 -59.9169111302556
    vertex -236.2569220579801 160.0095695622751 -60.39366205434922
    vertex -236.2569220579801 159.38825566147074 -59.9169111302556
  endloop
endfacet
facet normal -0.0 0.9914448613738107 0.13052619222005027
  outer loop
    vertex -255.59449371197564 154.8883023240322 -62.51496040096636
    vertex -236.2569220579801 154.99052378517283 -63.291409484834176
    vertex -255.59449371197564 154.99052378517283 -63.291409484834176
  endloop
endfacet
facet normal -0.0 0.9914448613738107 0.13052619222005027
  outer loop
    vertex -236.2569220579801 154.99052378517283 -63.291409484834176
    vertex -255.59449371197564 154.8883023240322 -62.51496040096636
    vertex -236.2569220579801 154.8883023240322 -62.51496040096636
  endloop
endfacet
facet normal -0.9999999986429298 9.925353652099363e-06 5.114321083964116e-05
  outer loop
    vertex -255.59238228353905 148.88827121565828 -22.724515154730113
    vertex -255.59449371197564 154.99052378517285 -61.73851131709851
    vertex -255.59449371197564 154.8883023240322 -62.51496040096636
  endloop
endfacet
facet normal -0.9999999986429298 9.925353652099363e-06 5.114321083964116e-05
  outer loop
    vertex -255.59449371197564 154.99052378517285 -61.73851131709851
    vertex -255.59238228353905 148.88827121565828 -22.724515154730113
    vertex -255.59238228353905 163.35291982038694 -22.724515154730113
  endloop
endfacet
facet normal -0.9999999986429298 9.925353652099363e-06 5.114321083964116e-05
  outer loop
    vertex -255.59449371197564 154.99052378517285 -61.73851131709851
    vertex -255.59238228353905 163.35291982038694 -22.724515154730113
    vertex -255.59449371197564 155.29022194494704 -61.0149759551535
  endloop
endfacet
facet normal -0.9999999986429298 9.925353652099363e-06 5.114321083964116e-05
  outer loop
    vertex -255.59449371197564 155.29022194494704 -61.0149759551535
    vertex -255.59238228353905 163.35291982038694 -22.724515154730113
    vertex -255.59449371197564 155.76697286904067 -60.39366205434919
  endloop
endfacet
facet normal -0.9999999986429298 9.925353652099363e-06 5.114321083964116e-05
  outer loop
    vertex -255.59449371197564 155.76697286904067 -60.39366205434919
    vertex -255.59238228353905 163.35291982038694 -22.724515154730113
    vertex -255.59449371197564 156.38828676984505 -59.91691113025554
  endloop
endfacet
facet normal -0.9999999986429298 9.925353652099363e-06 5.114321083964116e-05
  outer loop
    vertex -255.59449371197564 156.38828676984505 -59.91691113025554
    vertex -255.59238228353905 163.35291982038694 -22.724515154730113
    vertex -255.59449371197564 157.11182213179003 -59.617212970481354
  endloop
endfacet
facet normal -0.9999999986429298 9.925353652099363e-06 5.114321083964116e-05
  outer loop
    vertex -255.59449371197564 157.11182213179003 -59.617212970481354
    vertex -255.59238228353905 163.35291982038694 -22.724515154730113
    vertex -255.59449371197564 157.88827121565797 -59.51499150934073
  endloop
endfacet
facet normal -0.9999999986429298 9.925353652099363e-06 5.114321083964116e-05
  outer loop
    vertex -255.59449371197564 157.88827121565797 -59.51499150934073
    vertex -255.59238228353905 163.35291982038694 -22.724515154730113
    vertex -255.59449371197564 158.66472029952573 -59.61721297048143
  endloop
endfacet
facet normal -0.9999999986429298 9.925353652099363e-06 5.114321083964116e-05
  outer loop
    vertex -255.59449371197564 158.66472029952573 -59.61721297048143
    vertex -255.59238228353905 163.35291982038694 -22.724515154730113
    vertex -255.59449371197564 159.38825566147074 -59.9169111302556
  endloop
endfacet
facet normal -0.9999999986429298 9.925353652099363e-06 5.114321083964116e-05
  outer loop
    vertex -255.59449371197564 159.38825566147074 -59.9169111302556
    vertex -255.59238228353905 163.35291982038694 -22.724515154730113
    vertex -255.59449371197564 160.0095695622751 -60.39366205434922
  endloop
endfacet
facet normal -0.9999999986429298 9.925353652099363e-06 5.114321083964116e-05
  outer loop
    vertex -255.59449371197564 160.0095695622751 -60.39366205434922
    vertex -255.59238228353905 163.35291982038694 -22.724515154730113
    vertex -255.59449371197564 160.4863204863687 -61.01497595515364
  endloop
endfacet
facet normal -0.9999999986429298 9.925353652099363e-06 5.114321083964116e-05
  outer loop
    vertex -255.59449371197564 160.4863204863687 -61.01497595515364
    vertex -255.59238228353905 163.35291982038694 -22.724515154730113
    vertex -255.59449371197564 160.78601864614288 -61.73851131709865
  endloop
endfacet
facet normal -0.9999999986429298 9.925353652099363e-06 5.114321083964116e-05
  outer loop
    vertex -255.59449371197564 160.78601864614288 -61.73851131709865
    vertex -255.59238228353905 163.35291982038694 -22.724515154730113
    vertex -255.59449371197564 160.88824010728348 -62.514960400966466
  endloop
endfacet
facet normal -0.9999999986429298 9.925353652099363e-06 5.114321083964116e-05
  outer loop
    vertex -255.59452757214012 148.8882613285548 -71.04002348698468
    vertex -255.59449371197564 156.38828676984494 -65.11300967167719
    vertex -255.59452757214012 166.70330494973842 -71.04002348698468
  endloop
endfacet
facet normal -0.9999999986429298 9.925353652099363e-06 5.114321083964116e-05
  outer loop
    vertex -255.59449371197564 156.38828676984494 -65.11300967167719
    vertex -255.59452757214012 148.8882613285548 -71.04002348698468
    vertex -255.59449371197564 155.7669728690406 -64.63625874758351
  endloop
endfacet
facet normal -0.9999999986429298 9.925353652099363e-06 5.114321083964116e-05
  outer loop
    vertex -255.59449371197564 155.7669728690406 -64.63625874758351
    vertex -255.59452757214012 148.8882613285548 -71.04002348698468
    vertex -255.59449371197564 155.29022194494698 -64.0149448467792
  endloop
endfacet
facet normal -0.9999999986429298 9.925353652099363e-06 5.114321083964116e-05
  outer loop
    vertex -255.59449371197564 155.29022194494698 -64.0149448467792
    vertex -255.59452757214012 148.8882613285548 -71.04002348698468
    vertex -255.59449371197564 154.99052378517283 -63.291409484834176
  endloop
endfacet
facet normal -0.9999999986429298 9.925353652099363e-06 5.114321083964116e-05
  outer loop
    vertex -255.59449371197564 154.99052378517283 -63.291409484834176
    vertex -255.59452757214012 148.8882613285548 -71.04002348698468
    vertex -255.59238228353905 148.88827121565828 -22.724515154730113
  endloop
endfacet
facet normal -0.9999999986429298 9.925353652099363e-06 5.114321083964116e-05
  outer loop
    vertex -255.59449371197564 154.99052378517283 -63.291409484834176
    vertex -255.59238228353905 148.88827121565828 -22.724515154730113
    vertex -255.59449371197564 154.8883023240322 -62.51496040096636
  endloop
endfacet
facet normal -0.9999999986429298 9.925353652099363e-06 5.114321083964116e-05
  outer loop
    vertex -255.59452757214012 166.70330494973842 -71.04002348698468
    vertex -255.59449371197564 156.38828676984494 -65.11300967167719
    vertex -255.59449371197564 157.11182213178995 -65.41270783145134
  endloop
endfacet
facet normal -0.9999999986429298 9.925353652099363e-06 5.114321083964116e-05
  outer loop
    vertex -255.59452757214012 166.70330494973842 -71.04002348698468
    vertex -255.59449371197564 157.11182213178995 -65.41270783145134
    vertex -255.59449371197564 157.88827121565785 -65.51492929259202
  endloop
endfacet
facet normal -0.9999999986429298 9.925353652099363e-06 5.114321083964116e-05
  outer loop
    vertex -255.59452757214012 166.70330494973842 -71.04002348698468
    vertex -255.59449371197564 157.88827121565785 -65.51492929259202
    vertex -255.59449371197564 158.66472029952564 -65.41270783145137
  endloop
endfacet
facet normal -0.9999999986429298 9.925353652099363e-06 5.114321083964116e-05
  outer loop
    vertex -255.59452757214012 166.70330494973842 -71.04002348698468
    vertex -255.59449371197564 158.66472029952564 -65.41270783145137
    vertex -255.59449371197564 159.38825566147065 -65.11300967167725
  endloop
endfacet
facet normal -0.9999999986429298 9.925353652099363e-06 5.114321083964116e-05
  outer loop
    vertex -255.59452757214012 166.70330494973842 -71.04002348698468
    vertex -255.59449371197564 159.38825566147065 -65.11300967167725
    vertex -255.59449371197564 160.009569562275 -64.6362587475836
  endloop
endfacet
facet normal -0.9999999986429298 9.925353652099363e-06 5.114321083964116e-05
  outer loop
    vertex -255.59452757214012 166.70330494973842 -71.04002348698468
    vertex -255.59449371197564 160.009569562275 -64.6362587475836
    vertex -255.59449371197564 160.48632048636864 -64.01494484677927
  endloop
endfacet
facet normal -0.9999999986429298 9.925353652099363e-06 5.114321083964116e-05
  outer loop
    vertex -255.59452757214012 166.70330494973842 -71.04002348698468
    vertex -255.59449371197564 160.48632048636864 -64.01494484677927
    vertex -255.59449371197564 160.78601864614285 -63.291409484834276
  endloop
endfacet
facet normal -0.9999999986429298 9.925353652099363e-06 5.114321083964116e-05
  outer loop
    vertex -255.59452757214012 166.70330494973842 -71.04002348698468
    vertex -255.59449371197564 160.78601864614285 -63.291409484834276
    vertex -255.59449371197564 160.88824010728348 -62.514960400966466
  endloop
endfacet
facet normal -0.9999999986429298 9.925353652099363e-06 5.114321083964116e-05
  outer loop
    vertex -255.59452757214012 166.70330494973842 -71.04002348698468
    vertex -255.59449371197564 160.88824010728348 -62.514960400966466
    vertex -255.59238228353905 163.35291982038694 -22.724515154730113
  endloop
endfacet
facet normal -0.9999999986429298 9.925353652099363e-06 5.114321083964116e-05
  outer loop
    vertex -255.59452757214012 166.70330494973842 -71.04002348698468
    vertex -255.59238228353905 163.35291982038694 -22.724515154730113
    vertex -255.59238228353902 166.70331483684194 -30.830186801338126
  endloop
endfacet
facet normal 0.0 -0.9238795325112618 0.3826834323651501
  outer loop
    vertex -236.2569220579801 160.78601864614285 -63.291409484834276
    vertex -255.59449371197564 160.48632048636864 -64.01494484677927
    vertex -236.2569220579801 160.48632048636864 -64.01494484677927
  endloop
endfacet
facet normal 0.0 -0.9238795325112618 0.3826834323651501
  outer loop
    vertex -255.59449371197564 160.48632048636864 -64.01494484677927
    vertex -236.2569220579801 160.78601864614285 -63.291409484834276
    vertex -255.59449371197564 160.78601864614285 -63.291409484834276
  endloop
endfacet
facet normal -0.13041525900666226 -0.37807381894148306 0.9165435328718586
  outer loop
    vertex -246.45361313618824 150.25907839997785 -21.009635468525786
    vertex -243.60621196413186 175.6796236236171 -10.118513753501702
    vertex -246.4565699619296 175.82231015071912 -10.465233930922857
  endloop
endfacet
facet normal -0.13041525900666226 -0.37807381894148306 0.9165435328718586
  outer loop
    vertex -243.60621196413186 175.6796236236171 -10.118513753501702
    vertex -246.45361313618824 150.25907839997785 -21.009635468525786
    vertex -243.60325513839052 150.11639187287582 -20.662915291104632
  endloop
endfacet
facet normal 0.0 -0.13052619222005216 0.9914448613738105
  outer loop
    vertex -236.2569220579801 157.88827121565785 -65.51492929259202
    vertex -255.59449371197564 158.66472029952564 -65.41270783145137
    vertex -255.59449371197564 157.88827121565785 -65.51492929259202
  endloop
endfacet
facet normal 0.0 -0.13052619222005216 0.9914448613738105
  outer loop
    vertex -255.59449371197564 158.66472029952564 -65.41270783145137
    vertex -236.2569220579801 157.88827121565785 -65.51492929259202
    vertex -236.2569220579801 158.66472029952564 -65.41270783145137
  endloop
endfacet
facet normal 0.9999999989525914 3.981401363681397e-05 2.2575693087105964e-05
  outer loop
    vertex -236.2569220579801 157.88827121565797 -59.51499150934073
    vertex -236.25808255413259 163.35291982038694 -22.724515154730113
    vertex -236.25692205797995 157.4145674237846 -38.354126164806395
  endloop
endfacet
facet normal 0.9999999989525914 3.981401363681397e-05 2.2575693087105964e-05
  outer loop
    vertex -236.25808255413259 163.35291982038694 -22.724515154730113
    vertex -236.2569220579801 157.88827121565797 -59.51499150934073
    vertex -236.2574592593666 166.70331477470538 -34.52267472121412
  endloop
endfacet
facet normal 1.0 8.396587406837461e-16 -6.3778413328364536e-15
  outer loop
    vertex -236.2569220579801 157.88827121565797 -59.51499150934073
    vertex -236.25692205797995 157.4145674237846 -38.354126164806395
    vertex -236.2569220579801 157.11182213179003 -59.617212970481354
  endloop
endfacet
facet normal -0.0 0.9238795325112742 -0.3826834323651204
  outer loop
    vertex -255.59449371197564 155.29022194494704 -61.0149759551535
    vertex -236.2569220579801 154.99052378517285 -61.73851131709851
    vertex -255.59449371197564 154.99052378517285 -61.73851131709851
  endloop
endfacet
facet normal -0.0 0.9238795325112742 -0.3826834323651204
  outer loop
    vertex -236.2569220579801 154.99052378517285 -61.73851131709851
    vertex -255.59449371197564 155.29022194494704 -61.0149759551535
    vertex -236.2569220579801 155.29022194494704 -61.0149759551535
  endloop
endfacet
facet normal 0.9999999960619044 2.2413200324464347e-05 8.587106550448143e-05
  outer loop
    vertex -236.25700733424125 152.69300511343727 -22.724515178642967
    vertex -236.25692205797995 148.88827121565828 -22.724515154730113
    vertex -236.25692205797995 151.21849357882024 -23.33272631781822
  endloop
endfacet
facet normal -0.00010692779887521374 0.9244440972756252 0.3813175836211861
  outer loop
    vertex -246.4589504031829 183.93486003414648 -30.13282711375958
    vertex -240.75831838046255 183.93566675321597 -30.133184324267148
    vertex -243.6086763782603 184.078353280318 -30.4799045016883
  endloop
endfacet
facet normal -0.00010692779887521374 0.9244440972756252 0.3813175836211861
  outer loop
    vertex -240.75831838046255 183.93566675321597 -30.133184324267148
    vertex -246.4589504031829 183.93486003414648 -30.13282711375958
    vertex -238.1021235969003 183.51652430386173 -29.116294988605194
  endloop
endfacet
facet normal -0.00010692779887521374 0.9244440972756252 0.3813175836211861
  outer loop
    vertex -238.1021235969003 183.51652430386173 -29.116294988605194
    vertex -246.4589504031829 183.93486003414648 -30.13282711375958
    vertex -249.1148989907325 183.51496584229412 -29.115604910895833
  endloop
endfacet
facet normal -0.00010692779887521374 0.9244440972756252 0.3813175836211861
  outer loop
    vertex -238.1021235969003 183.51652430386173 -29.116294988605194
    vertex -249.1148989907325 183.51496584229412 -29.115604910895833
    vertex -236.25987888372134 182.97779917452587 -27.80972462720348
  endloop
endfacet
facet normal -0.00010692779887521374 0.9244440972756252 0.3813175836211861
  outer loop
    vertex -236.25987888372134 182.97779917452587 -27.80972462720348
    vertex -249.1148989907325 183.51496584229412 -29.115604910895833
    vertex -251.39552363383012 182.84728580002778 -27.497559905183046
  endloop
endfacet
facet normal -0.00010692779887521374 0.9244440972756252 0.3813175836211861
  outer loop
    vertex -236.25987888372134 182.97779917452587 -27.80972462720348
    vertex -251.39552363383012 182.84728580002778 -27.497559905183046
    vertex -236.25987888372134 176.7817253295615 -12.788324780215302
  endloop
endfacet
facet normal -0.00010692779887521374 0.9244440972756252 0.3813175836211861
  outer loop
    vertex -236.25987888372134 176.7817253295615 -12.788324780215302
    vertex -251.39552363383012 182.84728580002778 -27.497559905183046
    vertex -253.14540353195903 181.9773211988344 -25.388959189814756
  endloop
endfacet
facet normal -0.00010692779887521374 0.9244440972756252 0.3813175836211861
  outer loop
    vertex -236.25987888372134 176.7817253295615 -12.788324780215302
    vertex -253.14540353195903 181.9773211988344 -25.388959189814756
    vertex -254.2452872618751 180.9643586886009 -22.933500418915855
  endloop
endfacet
facet normal -0.00010692779887521374 0.9244440972756252 0.3813175836211861
  outer loop
    vertex -236.25987888372134 176.7817253295615 -12.788324780215302
    vertex -254.2452872618751 180.9643586886009 -22.933500418915855
    vertex -254.6202195650283 179.87742999039992 -20.298519049885638
  endloop
endfacet
facet normal -0.00010692779887521374 0.9244440972756252 0.3813175836211861
  outer loop
    vertex -236.25987888372134 176.7817253295615 -12.788324780215302
    vertex -254.6202195650283 179.87742999039992 -20.298519049885638
    vertex -254.24464942456362 178.79060749877934 -17.663584708510896
  endloop
endfacet
facet normal -0.00010692779887521374 0.9244440972756252 0.3813175836211861
  outer loop
    vertex -236.25987888372134 176.7817253295615 -12.788324780215302
    vertex -254.24464942456362 178.79060749877934 -17.663584708510896
    vertex -253.14417132489484 177.77795637048393 -15.208263815721462
  endloop
endfacet
facet normal -0.00010692779887521374 0.9244440972756252 0.3813175836211861
  outer loop
    vertex -236.25987888372134 176.7817253295615 -12.788324780215302
    vertex -253.14417132489484 177.77795637048393 -15.208263815721462
    vertex -251.39378102988826 176.90848710642197 -13.099882432751272
  endloop
endfacet
facet normal -0.00010692779887521374 0.9244440972756252 0.3813175836211861
  outer loop
    vertex -236.25987888372134 176.7817253295615 -12.788324780215302
    vertex -251.39378102988826 176.90848710642197 -13.099882432751272
    vertex -249.11276474549186 176.24145260007336 -11.482123266584798
  endloop
endfacet
facet normal -0.00010692779887521374 0.9244440972756252 0.3813175836211861
  outer loop
    vertex -236.25987888372134 176.7817253295615 -12.788324780215302
    vertex -249.11276474549186 176.24145260007336 -11.482123266584798
    vertex -238.09998935165964 176.243011061641 -11.482813344294168
  endloop
endfacet
facet normal -0.00010692779887521374 0.9244440972756252 0.3813175836211861
  outer loop
    vertex -238.09998935165964 176.243011061641 -11.482813344294168
    vertex -249.11276474549186 176.24145260007336 -11.482123266584798
    vertex -240.75593793920922 175.82311686978863 -10.465591141430423
  endloop
endfacet
facet normal -0.00010692779887521374 0.9244440972756252 0.3813175836211861
  outer loop
    vertex -240.75593793920922 175.82311686978863 -10.465591141430423
    vertex -249.11276474549186 176.24145260007336 -11.482123266584798
    vertex -246.4565699619296 175.82231015071912 -10.465233930922857
  endloop
endfacet
facet normal -0.00010692779887521374 0.9244440972756252 0.3813175836211861
  outer loop
    vertex -240.75593793920922 175.82311686978863 -10.465591141430423
    vertex -246.4565699619296 175.82231015071912 -10.465233930922857
    vertex -243.60621196413186 175.6796236236171 -10.118513753501702
  endloop
endfacet
facet normal -0.0 -0.7933533402913002 -0.6087614290086358
  outer loop
    vertex -236.2569220579801 160.0095695622751 -60.39366205434922
    vertex -255.59449371197564 160.4863204863687 -61.01497595515364
    vertex -236.2569220579801 160.4863204863687 -61.01497595515364
  endloop
endfacet
facet normal -0.0 -0.7933533402913002 -0.6087614290086358
  outer loop
    vertex -255.59449371197564 160.4863204863687 -61.01497595515364
    vertex -236.2569220579801 160.0095695622751 -60.39366205434922
    vertex -255.59449371197564 160.0095695622751 -60.39366205434922
  endloop
endfacet
facet normal -0.0 -0.13052619222012665 -0.9914448613738006
  outer loop
    vertex -236.2569220579801 158.66472029952573 -59.61721297048143
    vertex -255.59449371197564 157.88827121565797 -59.51499150934073
    vertex -255.59449371197564 158.66472029952573 -59.61721297048143
  endloop
endfacet
facet normal -0.0 -0.13052619222012665 -0.9914448613738006
  outer loop
    vertex -255.59449371197564 157.88827121565797 -59.51499150934073
    vertex -236.2569220579801 158.66472029952573 -59.61721297048143
    vertex -236.2569220579801 157.88827121565797 -59.51499150934073
  endloop
endfacet
facet normal 0.0 0.13052619222006553 0.9914448613738087
  outer loop
    vertex -236.2569220579801 157.11182213178995 -65.41270783145134
    vertex -255.59449371197564 157.88827121565785 -65.51492929259202
    vertex -255.59449371197564 157.11182213178995 -65.41270783145134
  endloop
endfacet
facet normal 0.0 0.13052619222006553 0.9914448613738087
  outer loop
    vertex -255.59449371197564 157.88827121565785 -65.51492929259202
    vertex -236.2569220579801 157.11182213178995 -65.41270783145134
    vertex -236.2569220579801 157.88827121565785 -65.51492929259202
  endloop
endfacet
facet normal -0.0 -0.9238795325112762 -0.3826834323651154
  outer loop
    vertex -236.2569220579801 160.4863204863687 -61.01497595515364
    vertex -255.59449371197564 160.78601864614288 -61.73851131709865
    vertex -236.2569220579801 160.78601864614288 -61.73851131709865
  endloop
endfacet
facet normal -0.0 -0.9238795325112762 -0.3826834323651154
  outer loop
    vertex -255.59449371197564 160.78601864614288 -61.73851131709865
    vertex -236.2569220579801 160.4863204863687 -61.01497595515364
    vertex -255.59449371197564 160.4863204863687 -61.01497595515364
  endloop
endfacet
facet normal 0.999999862616217 -6.841957737954113e-05 -0.0005196982862714988
  outer loop
    vertex -236.2591904680293 166.70330696069897 -71.04030975598259
    vertex -236.2569220579801 157.88827121565785 -65.51492929259202
    vertex -236.2569220579801 157.11182213178995 -65.41270783145134
  endloop
endfacet
facet normal 0.0 -0.608761429008707 0.7933533402912457
  outer loop
    vertex -236.2569220579801 159.38825566147065 -65.11300967167725
    vertex -255.59449371197564 160.009569562275 -64.6362587475836
    vertex -255.59449371197564 159.38825566147065 -65.11300967167725
  endloop
endfacet
facet normal 0.0 -0.608761429008707 0.7933533402912457
  outer loop
    vertex -255.59449371197564 160.009569562275 -64.6362587475836
    vertex -236.2569220579801 159.38825566147065 -65.11300967167725
    vertex -236.2569220579801 160.009569562275 -64.6362587475836
  endloop
endfacet
facet normal 0.0 0.7933533402912245 -0.6087614290087348
  outer loop
    vertex -255.59449371197564 155.76697286904067 -60.39366205434919
    vertex -236.2569220579801 155.29022194494704 -61.0149759551535
    vertex -255.59449371197564 155.29022194494704 -61.0149759551535
  endloop
endfacet
facet normal 0.0 0.7933533402912245 -0.6087614290087348
  outer loop
    vertex -236.2569220579801 155.29022194494704 -61.0149759551535
    vertex -255.59449371197564 155.76697286904067 -60.39366205434919
    vertex -236.2569220579801 155.76697286904067 -60.39366205434919
  endloop
endfacet
facet normal -0.0 -0.3826834323651082 -0.9238795325112792
  outer loop
    vertex -236.2569220579801 159.38825566147074 -59.9169111302556
    vertex -255.59449371197564 158.66472029952573 -59.61721297048143
    vertex -255.59449371197564 159.38825566147074 -59.9169111302556
  endloop
endfacet
facet normal -0.0 -0.3826834323651082 -0.9238795325112792
  outer loop
    vertex -255.59449371197564 158.66472029952573 -59.61721297048143
    vertex -236.2569220579801 159.38825566147074 -59.9169111302556
    vertex -236.2569220579801 158.66472029952573 -59.61721297048143
  endloop
endfacet
facet normal 0.0 0.9238795325112886 0.38268343236508573
  outer loop
    vertex -255.59449371197564 154.99052378517283 -63.291409484834176
    vertex -236.2569220579801 155.29022194494698 -64.0149448467792
    vertex -255.59449371197564 155.29022194494698 -64.0149448467792
  endloop
endfacet
facet normal 0.0 0.9238795325112886 0.38268343236508573
  outer loop
    vertex -236.2569220579801 155.29022194494698 -64.0149448467792
    vertex -255.59449371197564 154.99052378517283 -63.291409484834176
    vertex -236.2569220579801 154.99052378517283 -63.291409484834176
  endloop
endfacet
facet normal 0.0 0.3826834323651328 -0.9238795325112691
  outer loop
    vertex -236.2569220579801 157.11182213179003 -59.617212970481354
    vertex -255.59449371197564 156.38828676984505 -59.91691113025554
    vertex -255.59449371197564 157.11182213179003 -59.617212970481354
  endloop
endfacet
facet normal 0.0 0.3826834323651328 -0.9238795325112691
  outer loop
    vertex -255.59449371197564 156.38828676984505 -59.91691113025554
    vertex -236.2569220579801 157.11182213179003 -59.617212970481354
    vertex -236.2569220579801 156.38828676984505 -59.91691113025554
  endloop
endfacet
facet normal 0.999999969306751 0.00015082854971738203 -0.0001965635929405456
  outer loop
    vertex -236.2591904680293 166.70330696069897 -71.04030975598259
    vertex -236.2569220579801 160.009569562275 -64.6362587475836
    vertex -236.2569220579801 159.38825566147065 -65.11300967167725
  endloop
endfacet
facet normal 0.9999999997615576 1.3293947074236155e-05 1.7325009132355683e-05
  outer loop
    vertex -236.2574592593666 166.70331477470538 -34.52267472121412
    vertex -236.2569220579801 159.38825566147074 -59.9169111302556
    vertex -236.2569220579801 160.0095695622751 -60.39366205434922
  endloop
endfacet
facet normal 0.9999999996746602 2.0237192940179315e-05 1.5528544303932456e-05
  outer loop
    vertex -236.2574592593666 166.70331477470538 -34.52267472121412
    vertex -236.2569220579801 160.0095695622751 -60.39366205434922
    vertex -236.2569220579801 160.4863204863687 -61.01497595515364
  endloop
endfacet
facet normal 0.0 0.7933533402912523 0.6087614290086986
  outer loop
    vertex -255.59449371197564 155.29022194494698 -64.0149448467792
    vertex -236.2569220579801 155.7669728690406 -64.63625874758351
    vertex -255.59449371197564 155.7669728690406 -64.63625874758351
  endloop
endfacet
facet normal 0.0 0.7933533402912523 0.6087614290086986
  outer loop
    vertex -236.2569220579801 155.7669728690406 -64.63625874758351
    vertex -255.59449371197564 155.29022194494698 -64.0149448467792
    vertex -236.2569220579801 155.29022194494698 -64.0149448467792
  endloop
endfacet
facet normal 0.0 -0.9914448613738106 0.13052619222005027
  outer loop
    vertex -236.2569220579801 160.88824010728348 -62.514960400966466
    vertex -255.59449371197564 160.78601864614285 -63.291409484834276
    vertex -236.2569220579801 160.78601864614285 -63.291409484834276
  endloop
endfacet
facet normal 0.0 -0.9914448613738106 0.13052619222005027
  outer loop
    vertex -255.59449371197564 160.78601864614285 -63.291409484834276
    vertex -236.2569220579801 160.88824010728348 -62.514960400966466
    vertex -255.59449371197564 160.88824010728348 -62.514960400966466
  endloop
endfacet
facet normal 0.9999999939154294 0.00010402563108302509 3.671252514705142e-05
  outer loop
    vertex -236.25700733424125 152.69300511343727 -22.724515178642967
    vertex -236.25808255413259 163.35291982038694 -22.724515154730113
    vertex -236.25987888372134 176.7817253295615 -12.788324780215302
  endloop
endfacet
facet normal 0.9999999939154294 0.00010402563108302509 3.671252514705142e-05
  outer loop
    vertex -236.25808255413259 163.35291982038694 -22.724515154730113
    vertex -236.25700733424125 152.69300511343727 -22.724515178642967
    vertex -236.25692205797995 157.4145674237846 -38.354126164806395
  endloop
endfacet
facet normal 1.0 2.652479673602563e-15 -6.40365240192939e-15
  outer loop
    vertex -236.25692205797995 157.4145674237846 -38.354126164806395
    vertex -236.2569220579801 156.38828676984505 -59.91691113025554
    vertex -236.2569220579801 157.11182213179003 -59.617212970481354
  endloop
endfacet
facet normal 1.0 4.999407275532528e-15 -6.515354410641013e-15
  outer loop
    vertex -236.25692205797995 157.4145674237846 -38.354126164806395
    vertex -236.2569220579801 155.76697286904067 -60.39366205434919
    vertex -236.2569220579801 156.38828676984505 -59.91691113025554
  endloop
endfacet
facet normal 1.0 8.867856230381077e-15 -6.804545411089345e-15
  outer loop
    vertex -236.25692205797995 157.4145674237846 -38.354126164806395
    vertex -236.2569220579801 155.29022194494704 -61.0149759551535
    vertex -236.2569220579801 155.76697286904067 -60.39366205434919
  endloop
endfacet
facet normal 1.0 1.863905139088077e-14 -7.72054787587267e-15
  outer loop
    vertex -236.25692205797995 157.4145674237846 -38.354126164806395
    vertex -236.2569220579801 154.99052378517285 -61.73851131709851
    vertex -236.2569220579801 155.29022194494704 -61.0149759551535
  endloop
endfacet
facet normal 0.9999999999983806 -1.5295584180668142e-06 9.484047991902771e-07
  outer loop
    vertex -236.2569220579801 154.8883023240322 -62.51496040096636
    vertex -236.25700733424125 152.69300511343727 -22.724515178642967
    vertex -236.25692205797995 151.21849357882024 -23.33272631781822
  endloop
endfacet
facet normal 0.9999999999983806 -1.5295584180668142e-06 9.484047991902771e-07
  outer loop
    vertex -236.25700733424125 152.69300511343727 -22.724515178642967
    vertex -236.2569220579801 154.8883023240322 -62.51496040096636
    vertex -236.25692205797995 157.4145674237846 -38.354126164806395
  endloop
endfacet
facet normal 0.9999999999983806 -1.5295584180668142e-06 9.484047991902771e-07
  outer loop
    vertex -236.25692205797995 157.4145674237846 -38.354126164806395
    vertex -236.2569220579801 154.8883023240322 -62.51496040096636
    vertex -236.2569220579801 154.99052378517285 -61.73851131709851
  endloop
endfacet
facet normal 0.9999999456153698 0.00032698034561751317 -4.304777916253721e-05
  outer loop
    vertex -236.2591904680293 166.70330696069897 -71.04030975598259
    vertex -236.2569220579801 160.88824010728348 -62.514960400966466
    vertex -236.2569220579801 160.78601864614285 -63.291409484834276
  endloop
endfacet
facet normal 0.9999999997907643 7.828394144076243e-06 1.8899415314227694e-05
  outer loop
    vertex -236.2574592593666 166.70331477470538 -34.52267472121412
    vertex -236.2569220579801 158.66472029952573 -59.61721297048143
    vertex -236.2569220579801 159.38825566147074 -59.9169111302556
  endloop
endfacet
facet normal 0.9999999638150927 0.00024853872842716887 -0.00010294811208951897
  outer loop
    vertex -236.2591904680293 166.70330696069897 -71.04030975598259
    vertex -236.2569220579801 160.78601864614285 -63.291409484834276
    vertex -236.2569220579801 160.48632048636864 -64.01494484677927
  endloop
endfacet
facet normal 0.9999999864060187 0.00015242948656334464 6.287458988623176e-05
  outer loop
    vertex -236.25987888372134 182.97779917452587 -27.80972462720348
    vertex -236.25987888372134 176.7817253295615 -12.788324780215302
    vertex -236.25720826206765 166.7033148023403 -30.830186801338126
  endloop
endfacet
facet normal 0.9999999908415084 0.00011701484616672039 6.800374269033957e-05
  outer loop
    vertex -236.25987888372134 182.97779917452587 -27.80972462720348
    vertex -236.25720826206765 166.7033148023403 -30.830186801338126
    vertex -236.2574592593666 166.70331477470538 -34.52267472121412
  endloop
endfacet
facet normal 0.9999999908415084 0.00011701484616672039 6.800374269033957e-05
  outer loop
    vertex -236.25808255413259 163.35291982038694 -22.724515154730113
    vertex -236.25720826206765 166.7033148023403 -30.830186801338126
    vertex -236.25987888372134 176.7817253295615 -12.788324780215302
  endloop
endfacet
facet normal 0.9999999908415084 0.00011701484616672039 6.800374269033957e-05
  outer loop
    vertex -236.25720826206765 166.7033148023403 -30.830186801338126
    vertex -236.25808255413259 163.35291982038694 -22.724515154730113
    vertex -236.2574592593666 166.70331477470538 -34.52267472121412
  endloop
endfacet
facet normal 0.9999999696621666 0.0001954222148259889 -0.00014995273948660524
  outer loop
    vertex -236.2591904680293 166.70330696069897 -71.04030975598259
    vertex -236.2569220579801 160.48632048636864 -64.01494484677927
    vertex -236.2569220579801 160.009569562275 -64.6362587475836
  endloop
endfacet
facet normal 0.9999999624310724 0.00010489844590982706 -0.0002532472507873843
  outer loop
    vertex -236.2591904680293 166.70330696069897 -71.04030975598259
    vertex -236.2569220579801 159.38825566147065 -65.11300967167725
    vertex -236.2569220579801 158.66472029952564 -65.41270783145137
  endloop
endfacet
facet normal 6.600474037585901e-10 1.4523502846060276e-10 1.0
  outer loop
    vertex -255.59238228353905 148.88827121565828 -22.724515154730113
    vertex -251.39108212263505 153.5750891919586 -22.72451515704029
    vertex -255.59238228353905 163.35291982038694 -22.724515154730113
  endloop
endfacet
facet normal 6.600474037585901e-10 1.4523502846060276e-10 1.0
  outer loop
    vertex -251.39108212263505 153.5750891919586 -22.72451515704029
    vertex -255.59238228353905 148.88827121565828 -22.724515154730113
    vertex -250.09396390364455 150.96601625236252 -22.724515158212515
  endloop
endfacet
facet normal 6.600474037585901e-10 1.4523502846060276e-10 1.0
  outer loop
    vertex -250.09396390364455 150.96601625236252 -22.724515158212515
    vertex -255.59238228353905 148.88827121565828 -22.724515154730113
    vertex -236.25692205797995 148.88827121565828 -22.724515154730113
  endloop
endfacet
facet normal 6.600474037585901e-10 1.4523502846060276e-10 1.0
  outer loop
    vertex -255.59238228353905 163.35291982038694 -22.724515154730113
    vertex -251.39108212263505 153.5750891919586 -22.72451515704029
    vertex -253.14206364288378 159.55599524794133 -22.724515154838944
  endloop
endfacet
facet normal 6.600474037585901e-10 1.4523502846060276e-10 1.0
  outer loop
    vertex -255.59238228353905 163.35291982038694 -22.724515154730113
    vertex -253.14206364288378 159.55599524794133 -22.724515154838944
    vertex -253.74234129175477 163.35291982038697 -22.72451515364463
  endloop
endfacet
facet normal 6.600474037585901e-10 1.4523502846060276e-10 1.0
  outer loop
    vertex -250.09396390364455 150.96601625236252 -22.724515158212515
    vertex -236.25692205797995 148.88827121565828 -22.724515154730113
    vertex -237.11419199926328 150.96751758750045 -22.724515163370196
  endloop
endfacet
facet normal 6.600474037585901e-10 1.4523502846060276e-10 1.0
  outer loop
    vertex -237.11419199926328 150.96751758750045 -22.724515163370196
    vertex -236.25692205797995 148.88827121565828 -22.724515154730113
    vertex -236.25700733424125 152.69300511343727 -22.724515178642967
  endloop
endfacet
facet normal 0.6088501891307235 -0.30243342149327374 0.733372669765757
  outer loop
    vertex -236.25987888372134 176.7817253295615 -12.788324780215302
    vertex -238.09998935165964 176.243011061641 -11.482813344294168
    vertex -238.09703252591828 150.67977931089973 -22.02721488189711
  endloop
endfacet
facet normal 0.0 -0.7933533402912298 0.6087614290087279
  outer loop
    vertex -236.2569220579801 160.48632048636864 -64.01494484677927
    vertex -255.59449371197564 160.009569562275 -64.6362587475836
    vertex -236.2569220579801 160.009569562275 -64.6362587475836
  endloop
endfacet
facet normal 0.0 -0.7933533402912298 0.6087614290087279
  outer loop
    vertex -255.59449371197564 160.009569562275 -64.6362587475836
    vertex -236.2569220579801 160.48632048636864 -64.01494484677927
    vertex -255.59449371197564 160.48632048636864 -64.01494484677927
  endloop
endfacet
facet normal 0.00010692779887334802 -0.9244440972756278 -0.38131758362118023
  outer loop
    vertex -238.09703252591828 150.67977931089973 -22.02721488189711
    vertex -250.09396390364455 150.96601625236252 -22.724515158212515
    vertex -237.11419199926328 150.96751758750045 -22.724515163370196
  endloop
endfacet
facet normal 0.00010692779887334802 -0.9244440972756278 -0.38131758362118023
  outer loop
    vertex -250.09396390364455 150.96601625236252 -22.724515158212515
    vertex -238.09703252591828 150.67977931089973 -22.02721488189711
    vertex -249.1098079197505 150.67822084933212 -22.02652480418774
  endloop
endfacet
facet normal 0.00010692779887334802 -0.9244440972756278 -0.38131758362118023
  outer loop
    vertex -249.1098079197505 150.67822084933212 -22.02652480418774
    vertex -238.09703252591828 150.67977931089973 -22.02721488189711
    vertex -240.75298111346785 150.25988511904737 -21.009992679033363
  endloop
endfacet
facet normal 0.00010692779887334802 -0.9244440972756278 -0.38131758362118023
  outer loop
    vertex -249.1098079197505 150.67822084933212 -22.02652480418774
    vertex -240.75298111346785 150.25988511904737 -21.009992679033363
    vertex -246.45361313618824 150.25907839997785 -21.009635468525786
  endloop
endfacet
facet normal 0.00010692779887334802 -0.9244440972756278 -0.38131758362118023
  outer loop
    vertex -246.45361313618824 150.25907839997785 -21.009635468525786
    vertex -240.75298111346785 150.25988511904737 -21.009992679033363
    vertex -243.60325513839052 150.11639187287582 -20.662915291104632
  endloop
endfacet
facet normal -0.793285217158337 -0.23224370083195767 0.5628156249269616
  outer loop
    vertex -251.39378102988826 176.90848710642197 -13.099882432751272
    vertex -253.14206364288378 159.55599524794133 -22.724515154838944
    vertex -251.39108212263505 153.5750891919586 -22.72451515704029
  endloop
endfacet
facet normal -0.793285217158337 -0.23224370083195767 0.5628156249269616
  outer loop
    vertex -253.14206364288378 159.55599524794133 -22.724515154838944
    vertex -251.39378102988826 176.90848710642197 -13.099882432751272
    vertex -253.14417132489484 177.77795637048393 -15.208263815721462
  endloop
endfacet
facet normal -0.9238367034278685 -0.14605465926856165 0.35382733346290957
  outer loop
    vertex -253.14417132489484 177.77795637048393 -15.208263815721462
    vertex -253.74234129175477 163.35291982038697 -22.72451515364463
    vertex -253.14206364288378 159.55599524794133 -22.724515154838944
  endloop
endfacet
facet normal -0.9238367034278685 -0.14605465926856165 0.35382733346290957
  outer loop
    vertex -253.74234129175477 163.35291982038697 -22.72451515364463
    vertex -253.14417132489484 177.77795637048393 -15.208263815721462
    vertex -254.2429171709973 163.81441233558843 -23.84101238455631
  endloop
endfacet
facet normal -0.9238367034278685 -0.14605465926856165 0.35382733346290957
  outer loop
    vertex -254.2429171709973 163.81441233558843 -23.84101238455631
    vertex -253.14417132489484 177.77795637048393 -15.208263815721462
    vertex -254.24464942456362 178.79060749877934 -17.663584708510896
  endloop
endfacet
facet normal 0.130415259006662 0.3780738189414907 -0.9165435328718557
  outer loop
    vertex -240.75831838046255 183.93566675321597 -30.133184324267148
    vertex -243.60666665720908 166.70331346313574 -37.64681510010668
    vertex -243.6086763782603 184.078353280318 -30.4799045016883
  endloop
endfacet
facet normal 0.130415259006662 0.3780738189414907 -0.9165435328718557
  outer loop
    vertex -243.60666665720908 166.70331346313574 -37.64681510010668
    vertex -240.75831838046255 183.93566675321597 -30.133184324267148
    vertex -240.75632516358277 166.7033137212009 -37.24123903264851
  endloop
endfacet
facet normal 0.6084971726367894 0.3026741876583408 -0.7335663071722943
  outer loop
    vertex -236.2574592593666 166.70331477470538 -34.52267472121412
    vertex -237.45604483981185 166.7033143084357 -35.516908058897485
    vertex -236.25987888372134 182.97779917452587 -27.80972462720348
  endloop
endfacet
facet normal 0.6088322395141661 -0.3024372404438177 0.7333859964035948
  outer loop
    vertex -237.11419199926328 150.96751758750045 -22.724515163370196
    vertex -236.25987888372134 176.7817253295615 -12.788324780215302
    vertex -238.09703252591828 150.67977931089973 -22.02721488189711
  endloop
endfacet
facet normal 0.6088322395141661 -0.3024372404438177 0.7333859964035948
  outer loop
    vertex -236.25987888372134 176.7817253295615 -12.788324780215302
    vertex -237.11419199926328 150.96751758750045 -22.724515163370196
    vertex -236.25700733424125 152.69300511343727 -22.724515178642967
  endloop
endfacet
facet normal -0.9914594539287377 0.049631627449208085 -0.120602042984654
  outer loop
    vertex -254.6202195650283 179.87742999039992 -20.298519049885638
    vertex -254.24355545433914 165.9920196799481 -29.109337496314044
    vertex -254.61848753876438 164.90319996948625 -26.475136137917303
  endloop
endfacet
facet normal -0.9914594539287377 0.049631627449208085 -0.120602042984654
  outer loop
    vertex -254.24355545433914 165.9920196799481 -29.109337496314044
    vertex -254.6202195650283 179.87742999039992 -20.298519049885638
    vertex -254.2452872618751 180.9643586886009 -22.933500418915855
  endloop
endfacet
facet normal -1.542049681716019e-05 -2.910587805600242e-13 -0.9999999998811042
  outer loop
    vertex -236.2591904680293 166.70330696069897 -71.04030975598259
    vertex -255.59452757214012 148.8882613285548 -71.04002348698468
    vertex -255.59452757214012 166.70330494973842 -71.04002348698468
  endloop
endfacet
facet normal -1.542049681716019e-05 -2.910587805600242e-13 -0.9999999998811042
  outer loop
    vertex -255.59452757214012 148.8882613285548 -71.04002348698468
    vertex -236.2591904680293 166.70330696069897 -71.04030975598259
    vertex -236.2591904680293 148.8882633395153 -71.04030975598259
  endloop
endfacet
facet normal -6.101599333173783e-08 0.9999999999999727 -2.2594848935285074e-07
  outer loop
    vertex -255.59452757214012 166.70330494973842 -71.04002348698468
    vertex -246.45695727957585 166.70331339169647 -37.2405492000587
    vertex -243.60666665720908 166.70331346313574 -37.64681510010668
  endloop
endfacet
facet normal -6.101599333173783e-08 0.9999999999999727 -2.2594848935285074e-07
  outer loop
    vertex -246.45695727957585 166.70331339169647 -37.2405492000587
    vertex -255.59452757214012 166.70330494973842 -71.04002348698468
    vertex -249.11295443509675 166.70331351175156 -36.050127682206934
  endloop
endfacet
facet normal -6.101599333173783e-08 0.9999999999999727 -2.2594848935285074e-07
  outer loop
    vertex -249.11295443509675 166.70331351175156 -36.050127682206934
    vertex -255.59452757214012 166.70330494973842 -71.04002348698468
    vertex -255.59238228353902 166.70331483684194 -30.830186801338126
  endloop
endfacet
facet normal -6.101599333173783e-08 0.9999999999999727 -2.2594848935285074e-07
  outer loop
    vertex -249.11295443509675 166.70331351175156 -36.050127682206934
    vertex -255.59238228353902 166.70331483684194 -30.830186801338126
    vertex -251.39365630686618 166.7033138151194 -34.156675805728305
  endloop
endfacet
facet normal -6.101599333173783e-08 0.9999999999999727 -2.2594848935285074e-07
  outer loop
    vertex -251.39365630686618 166.7033138151194 -34.156675805728305
    vertex -255.59238228353902 166.70331483684194 -30.830186801338126
    vertex -253.14363683136074 166.7033142811261 -31.689229186927687
  endloop
endfacet
facet normal -6.101599333173783e-08 0.9999999999999727 -2.2594848935285074e-07
  outer loop
    vertex -253.14363683136074 166.7033142811261 -31.689229186927687
    vertex -255.59238228353902 166.70331483684194 -30.830186801338126
    vertex -253.47250985484843 166.70331482730808 -30.830186803715314
  endloop
endfacet
facet normal -6.101599333173783e-08 0.9999999999999727 -2.2594848935285074e-07
  outer loop
    vertex -255.59452757214012 166.70330494973842 -71.04002348698468
    vertex -236.2574592593666 166.70331477470538 -34.52267472121412
    vertex -236.2591904680293 166.70330696069897 -71.04030975598259
  endloop
endfacet
facet normal -6.101599333173783e-08 0.9999999999999727 -2.2594848935285074e-07
  outer loop
    vertex -236.2574592593666 166.70331477470538 -34.52267472121412
    vertex -255.59452757214012 166.70330494973842 -71.04002348698468
    vertex -238.10017886107565 166.7033141483052 -36.05146033643535
  endloop
endfacet
facet normal -6.101599333173783e-08 0.9999999999999727 -2.2594848935285074e-07
  outer loop
    vertex -238.10017886107565 166.7033141483052 -36.05146033643535
    vertex -255.59452757214012 166.70330494973842 -71.04002348698468
    vertex -240.75632516358277 166.7033137212009 -37.24123903264851
  endloop
endfacet
facet normal -6.101599333173783e-08 0.9999999999999727 -2.2594848935285074e-07
  outer loop
    vertex -240.75632516358277 166.7033137212009 -37.24123903264851
    vertex -255.59452757214012 166.70330494973842 -71.04002348698468
    vertex -243.60666665720908 166.70331346313574 -37.64681510010668
  endloop
endfacet
facet normal -6.101599333173783e-08 0.9999999999999727 -2.2594848935285074e-07
  outer loop
    vertex -236.2574592593666 166.70331477470538 -34.52267472121412
    vertex -238.10017886107565 166.7033141483052 -36.05146033643535
    vertex -237.45604483981185 166.7033143084357 -35.516908058897485
  endloop
endfacet
facet normal -0.9914302450711249 -0.04991223404275879 0.12072629395069893
  outer loop
    vertex -254.24464942456362 178.79060749877934 -17.663584708510896
    vertex -254.61848753876438 164.90319996948625 -26.475136137917303
    vertex -254.2429171709973 163.81441233558843 -23.84101238455631
  endloop
endfacet
facet normal -0.9914302450711249 -0.04991223404275879 0.12072629395069893
  outer loop
    vertex -254.61848753876438 164.90319996948625 -26.475136137917303
    vertex -254.24464942456362 178.79060749877934 -17.663584708510896
    vertex -254.6202195650283 179.87742999039992 -20.298519049885638
  endloop
endfacet
facet normal 0.6086726543052586 0.3026057179845217 -0.7334489616490456
  outer loop
    vertex -236.25987888372134 182.97779917452587 -27.80972462720348
    vertex -238.10017886107565 166.7033141483052 -36.05146033643535
    vertex -238.1021235969003 183.51652430386173 -29.116294988605194
  endloop
endfacet
facet normal 0.6086726543052586 0.3026057179845217 -0.7334489616490456
  outer loop
    vertex -238.10017886107565 166.7033141483052 -36.05146033643535
    vertex -236.25987888372134 182.97779917452587 -27.80972462720348
    vertex -237.45604483981185 166.7033143084357 -35.516908058897485
  endloop
endfacet
facet normal -0.13063712230701566 0.37803687638260725 -0.9165271749218477
  outer loop
    vertex -243.6086763782603 184.078353280318 -30.4799045016883
    vertex -246.45695727957585 166.70331339169647 -37.2405492000587
    vertex -246.4589504031829 183.93486003414648 -30.13282711375958
  endloop
endfacet
facet normal -0.13063712230701566 0.37803687638260725 -0.9165271749218477
  outer loop
    vertex -246.45695727957585 166.70331339169647 -37.2405492000587
    vertex -243.6086763782603 184.078353280318 -30.4799045016883
    vertex -243.60666665720908 166.70331346313574 -37.64681510010668
  endloop
endfacet
facet normal -0.3827867996234875 0.3522373454337232 -0.8540510046336882
  outer loop
    vertex -246.4589504031829 183.93486003414648 -30.13282711375958
    vertex -249.11295443509675 166.70331351175156 -36.050127682206934
    vertex -249.1148989907325 183.51496584229412 -29.115604910895833
  endloop
endfacet
facet normal -0.3827867996234875 0.3522373454337232 -0.8540510046336882
  outer loop
    vertex -249.11295443509675 166.70331351175156 -36.050127682206934
    vertex -246.4589504031829 183.93486003414648 -30.13282711375958
    vertex -246.45695727957585 166.70331339169647 -37.2405492000587
  endloop
endfacet
facet normal 4.336550144772767e-08 -0.9999999999999829 1.8024178833533823e-07
  outer loop
    vertex -236.25692205797995 148.88827121565828 -22.724515154730113
    vertex -255.59452757214012 148.8882613285548 -71.04002348698468
    vertex -236.2591904680293 148.8882633395153 -71.04030975598259
  endloop
endfacet
facet normal 4.336550144772767e-08 -0.9999999999999829 1.8024178833533823e-07
  outer loop
    vertex -255.59452757214012 148.8882613285548 -71.04002348698468
    vertex -236.25692205797995 148.88827121565828 -22.724515154730113
    vertex -255.59238228353905 148.88827121565828 -22.724515154730113
  endloop
endfacet
facet normal 0.38258005594043365 0.352345655536028 -0.8540989637164428
  outer loop
    vertex -238.1021235969003 183.51652430386173 -29.116294988605194
    vertex -240.75632516358277 166.7033137212009 -37.24123903264851
    vertex -240.75831838046255 183.93566675321597 -30.133184324267148
  endloop
endfacet
facet normal 0.38258005594043365 0.352345655536028 -0.8540989637164428
  outer loop
    vertex -240.75632516358277 166.7033137212009 -37.24123903264851
    vertex -238.1021235969003 183.51652430386173 -29.116294988605194
    vertex -238.10017886107565 166.7033141483052 -36.05146033643535
  endloop
endfacet
facet normal -0.7934214444212067 0.23201915967291561 -0.5627161994089387
  outer loop
    vertex -253.14363683136074 166.7033142811261 -31.689229186927687
    vertex -251.39552363383012 182.84728580002778 -27.497559905183046
    vertex -251.39365630686618 166.7033138151194 -34.156675805728305
  endloop
endfacet
facet normal -0.7934214444212067 0.23201915967291561 -0.5627161994089387
  outer loop
    vertex -251.39552363383012 182.84728580002778 -27.497559905183046
    vertex -253.14363683136074 166.7033142811261 -31.689229186927687
    vertex -253.14540353195903 181.9773211988344 -25.388959189814756
  endloop
endfacet
facet normal 2.185657614089821e-09 0.9241648378674954 0.3819939167700791
  outer loop
    vertex -255.59238228353902 166.70331483684194 -30.830186801338126
    vertex -254.24355545433914 165.9920196799481 -29.109337496314044
    vertex -253.47250985484843 166.70331482730808 -30.830186803715314
  endloop
endfacet
facet normal 2.185657614089821e-09 0.9241648378674954 0.3819939167700791
  outer loop
    vertex -254.24355545433914 165.9920196799481 -29.109337496314044
    vertex -255.59238228353902 166.70331483684194 -30.830186801338126
    vertex -255.59238228353905 163.35291982038694 -22.724515154730113
  endloop
endfacet
facet normal 2.185657614089821e-09 0.9241648378674954 0.3819939167700791
  outer loop
    vertex -254.24355545433914 165.9920196799481 -29.109337496314044
    vertex -255.59238228353905 163.35291982038694 -22.724515154730113
    vertex -254.61848753876438 164.90319996948625 -26.475136137917303
  endloop
endfacet
facet normal 2.185657614089821e-09 0.9241648378674954 0.3819939167700791
  outer loop
    vertex -254.61848753876438 164.90319996948625 -26.475136137917303
    vertex -255.59238228353905 163.35291982038694 -22.724515154730113
    vertex -254.2429171709973 163.81441233558843 -23.84101238455631
  endloop
endfacet
facet normal 2.185657614089821e-09 0.9241648378674954 0.3819939167700791
  outer loop
    vertex -254.2429171709973 163.81441233558843 -23.84101238455631
    vertex -255.59238228353905 163.35291982038694 -22.724515154730113
    vertex -253.74234129175477 163.35291982038697 -22.72451515364463
  endloop
endfacet
facet normal -0.6088501891307061 0.3024334214932742 -0.7333726697657712
  outer loop
    vertex -249.1148989907325 183.51496584229412 -29.115604910895833
    vertex -251.39365630686618 166.7033138151194 -34.156675805728305
    vertex -251.39552363383012 182.84728580002778 -27.497559905183046
  endloop
endfacet
facet normal -0.6088501891307061 0.3024334214932742 -0.7333726697657712
  outer loop
    vertex -251.39365630686618 166.7033138151194 -34.156675805728305
    vertex -249.1148989907325 183.51496584229412 -29.115604910895833
    vertex -249.11295443509675 166.70331351175156 -36.050127682206934
  endloop
endfacet
facet normal -0.608672654305262 -0.30260571798452074 0.7334489616490433
  outer loop
    vertex -251.39108212263505 153.5750891919586 -22.72451515704029
    vertex -249.11276474549186 176.24145260007336 -11.482123266584798
    vertex -251.39378102988826 176.90848710642197 -13.099882432751272
  endloop
endfacet
facet normal -0.608672654305262 -0.30260571798452074 0.7334489616490433
  outer loop
    vertex -249.11276474549186 176.24145260007336 -11.482123266584798
    vertex -251.39108212263505 153.5750891919586 -22.72451515704029
    vertex -250.09396390364455 150.96601625236252 -22.724515158212515
  endloop
endfacet
facet normal -0.608672654305262 -0.30260571798452074 0.7334489616490433
  outer loop
    vertex -249.11276474549186 176.24145260007336 -11.482123266584798
    vertex -250.09396390364455 150.96601625236252 -22.724515158212515
    vertex -249.1098079197505 150.67822084933212 -22.02652480418774
  endloop
endfacet
facet normal -0.9239223394653197 0.14579317555064616 -0.3537115499948919
  outer loop
    vertex -254.2452872618751 180.9643586886009 -22.933500418915855
    vertex -253.47250985484843 166.70331482730808 -30.830186803715314
    vertex -254.24355545433914 165.9920196799481 -29.109337496314044
  endloop
endfacet
facet normal -0.9239223394653197 0.14579317555064616 -0.3537115499948919
  outer loop
    vertex -253.47250985484843 166.70331482730808 -30.830186803715314
    vertex -253.14540353195903 181.9773211988344 -25.388959189814756
    vertex -253.14363683136074 166.7033142811261 -31.689229186927687
  endloop
endfacet
facet normal -0.9239223394653197 0.14579317555064616 -0.3537115499948919
  outer loop
    vertex -253.14540353195903 181.9773211988344 -25.388959189814756
    vertex -253.47250985484843 166.70331482730808 -30.830186803715314
    vertex -254.2452872618751 180.9643586886009 -22.933500418915855
  endloop
endfacet
endsolid Uniao - Rolamento v5
