solid Uniao - Rolamento v4
facet normal -0.00014393099505550141 -0.12669840738494273 0.9919412748998742
  outer loop
    vertex -228.9525707913393 -0.07416997841374462 -35.375865578436965
    vertex -228.71063425602506 -0.07410556853736007 -35.3758222464413
    vertex -228.7114264490916 0.0048586448983909845 -35.365736441651514
  endloop
endfacet
facet normal -0.0002718994175147636 0.9523294956522851 0.3050712339460588
  outer loop
    vertex -232.313492146012 9.61149662191174 -33.28693824396133
    vertex -228.1745825169368 10.287570958049407 -35.39372290482477
    vertex -232.31215481968096 10.286723437488703 -35.39475773078255
  endloop
endfacet
facet normal -0.0002718994175147636 0.9523294956522851 0.3050712339460588
  outer loop
    vertex -228.1745825169368 10.287570958049407 -35.39372290482477
    vertex -232.313492146012 9.61149662191174 -33.28693824396133
    vertex -228.7134923223525 9.612270161221158 -33.28611892188598
  endloop
endfacet
facet normal -0.0002718994175147636 0.9523294956522851 0.3050712339460588
  outer loop
    vertex -228.1745825169368 10.287570958049407 -35.39372290482477
    vertex -228.7134923223525 9.612270161221158 -33.28611892188598
    vertex -228.17591984326782 9.612344142472493 -33.28590341800352
  endloop
endfacet
facet normal -4.530020901460736e-07 0.38109412368030277 -0.9245362453122847
  outer loop
    vertex -228.7121549960215 -3.899868277895973 -39.11591159599707
    vertex -228.17391499509372 0.4445279133368684 -37.32515827223529
    vertex -228.17381547105933 -3.899775339193854 -39.11608605798703
  endloop
endfacet
facet normal -4.530020901460736e-07 0.38109412368030277 -0.9245362453122847
  outer loop
    vertex -228.17391499509372 0.4445279133368684 -37.32515827223529
    vertex -228.7121549960215 -3.899868277895973 -39.11591159599707
    vertex -248.7121549960215 0.44452076088850245 -37.325283649053986
  endloop
endfacet
facet normal -4.530020901460736e-07 0.38109412368030277 -0.9245362453122847
  outer loop
    vertex -248.7121549960215 0.44452076088850245 -37.325283649053986
    vertex -228.7121549960215 -3.899868277895973 -39.11591159599707
    vertex -248.7121549960215 -3.899868277895973 -39.11591159599707
  endloop
endfacet
facet normal -0.9999998390751311 -0.0003269824128081408 0.0004636078232679375
  outer loop
    vertex -232.34921940530074 5.110308439405945 -34.706778419505035
    vertex -232.34782259361944 9.609155516540852 -33.29783662613768
    vertex -232.34921940530072 10.289957690473761 -35.39789118451515
  endloop
endfacet
facet normal -0.9999998390751311 -0.0003269824128081408 0.0004636078232679375
  outer loop
    vertex -232.34782259361944 9.609155516540852 -33.29783662613768
    vertex -232.34921940530074 5.110308439405945 -34.706778419505035
    vertex -232.34705928921747 5.1105847219779035 -32.68640483053204
  endloop
endfacet
facet normal -0.9999998390751311 -0.0003269824128081408 0.0004636078232679375
  outer loop
    vertex -232.34705928921747 5.1105847219779035 -32.68640483053204
    vertex -232.34921940530074 5.110308439405945 -34.706778419505035
    vertex -232.34577637550268 -0.07734791558928972 -35.36817000163041
  endloop
endfacet
facet normal -0.9999998390751311 -0.0003269824128081408 0.0004636078232679375
  outer loop
    vertex -232.34705928921747 5.1105847219779035 -32.68640483053204
    vertex -232.34577637550268 -0.07734791558928972 -35.36817000163041
    vertex -232.34484064922083 0.3580036291500732 -33.292327003606026
  endloop
endfacet
facet normal -0.0016700637909751036 0.38034162410734584 -0.924844559836041
  outer loop
    vertex -244.41686831814528 9.607033335462782 -33.28827281546749
    vertex -245.04947788161303 9.792167504475577 -33.2105956321544
    vertex -244.41686831814485 14.246238735252735 -31.380179020840973
  endloop
endfacet
facet normal -0.0016700637909751036 0.38034162410734584 -0.924844559836041
  outer loop
    vertex -245.04947788161303 9.792167504475577 -33.2105956321544
    vertex -244.41686831814528 9.607033335462782 -33.28827281546749
    vertex -245.04947497206757 9.609760244897508 -33.27990558697526
  endloop
endfacet
facet normal -0.0016700637909751036 0.38034162410734584 -0.924844559836041
  outer loop
    vertex -245.04947788161303 9.792167504475577 -33.2105956321544
    vertex -245.04947497206757 9.609760244897508 -33.27990558697526
    vertex -245.0759361391741 9.607759233831088 -33.292344200788015
  endloop
endfacet
facet normal -0.005085044036917881 0.7015417747009371 0.7126101884456902
  outer loop
    vertex -248.7121549960215 14.100104306543267 -39.1473275065832
    vertex -248.7121549960214 10.287496976798257 -35.39393840870762
    vertex -245.07735908862367 10.297948998415626 -35.3782909093588
  endloop
endfacet
facet normal 8.485384084020726e-09 -0.6990558559584791 0.7150670669595672
  outer loop
    vertex -228.9525707913393 -0.07416997841374462 -35.375865578436965
    vertex -228.7121549960215 -3.899868277895973 -39.11591159599707
    vertex -228.71063425602506 -0.07410556853736007 -35.3758222464413
  endloop
endfacet
facet normal 8.485384084020726e-09 -0.6990558559584791 0.7150670669595672
  outer loop
    vertex -228.7121549960215 -3.899868277895973 -39.11591159599707
    vertex -228.9525707913393 -0.07416997841374462 -35.375865578436965
    vertex -248.7121549960215 -3.899868277895973 -39.11591159599707
  endloop
endfacet
facet normal -0.999999913891623 -0.00027584056244168704 -0.0003100463362296859
  outer loop
    vertex -248.7121549960215 9.761992193240644 -37.34154572101184
    vertex -248.7121549960214 10.287496976798257 -35.39393840870762
    vertex -248.7121549960215 14.100104306543267 -39.1473275065832
  endloop
endfacet
facet normal -0.999999913891623 -0.00027584056244168704 -0.0003100463362296859
  outer loop
    vertex -248.7121549960214 10.287496976798257 -35.39393840870762
    vertex -248.7121549960215 9.761992193240644 -37.34154572101184
    vertex -248.7121549960214 5.107847725730489 -34.70282564369746
  endloop
endfacet
facet normal -0.999999913891623 -0.00027584056244168704 -0.0003100463362296859
  outer loop
    vertex -248.7121549960214 5.107847725730489 -34.70282564369746
    vertex -248.7121549960215 9.761992193240644 -37.34154572101184
    vertex -248.7121549960215 5.1043269482591755 -36.72008049239872
  endloop
endfacet
facet normal -0.999999913891623 -0.00027584056244168704 -0.0003100463362296859
  outer loop
    vertex -248.7121549960214 5.107847725730489 -34.70282564369746
    vertex -248.7121549960215 5.1043269482591755 -36.72008049239872
    vertex -248.70871196681048 -0.07734993905370695 -35.36816882945596
  endloop
endfacet
facet normal 0.0015652686590735892 0.12999090646700515 0.99151395056747
  outer loop
    vertex -245.07735908862367 10.297948998415626 -35.3782909093588
    vertex -244.67217596061832 5.305844957174061 -34.724448460973576
    vertex -233.99157760416114 10.289242907413568 -35.39465024918306
  endloop
endfacet
facet normal -0.37907397838722207 0.39777386661717845 -0.8355111429215668
  outer loop
    vertex -245.04947788161303 9.792167504475577 -33.2105956321544
    vertex -245.17733206487662 14.126855817078827 -31.092047438073024
    vertex -244.41686831814485 14.246238735252735 -31.380179020840973
  endloop
endfacet
facet normal -0.37907397838722207 0.39777386661717845 -0.8355111429215668
  outer loop
    vertex -245.17733206487662 14.126855817078827 -31.092047438073024
    vertex -245.04947788161303 9.792167504475577 -33.2105956321544
    vertex -245.0759361391741 9.607759233831088 -33.292344200788015
  endloop
endfacet
facet normal -0.37907397838722207 0.39777386661717845 -0.8355111429215668
  outer loop
    vertex -245.17733206487662 14.126855817078827 -31.092047438073024
    vertex -245.0759361391741 9.607759233831088 -33.292344200788015
    vertex -248.70871196681028 13.566875800749974 -29.75633227059531
  endloop
endfacet
facet normal 0.0012707769407619197 -0.944269118513985 -0.32917201725965206
  outer loop
    vertex -232.313492146012 9.61149662191174 -33.28693824396133
    vertex -244.6165258256353 9.50805884782051 -33.04763318925892
    vertex -232.34782259361944 9.609155516540852 -33.29783662613768
  endloop
endfacet
facet normal 0.0012707769407619197 -0.944269118513985 -0.32917201725965206
  outer loop
    vertex -244.6165258256353 9.50805884782051 -33.04763318925892
    vertex -232.313492146012 9.61149662191174 -33.28693824396133
    vertex -228.7134923223525 9.612270161221158 -33.28611892188598
  endloop
endfacet
facet normal 0.001414531289039051 0.3844672336063429 -0.9231375549636782
  outer loop
    vertex -232.313492146012 9.61149662191174 -33.28693824396133
    vertex -244.41686831814485 14.246238735252735 -31.380179020840973
    vertex -228.7134923223525 9.612270161221158 -33.28611892188598
  endloop
endfacet
facet normal 0.001414531289039051 0.3844672336063429 -0.9231375549636782
  outer loop
    vertex -244.41686831814485 14.246238735252735 -31.380179020840973
    vertex -232.313492146012 9.61149662191174 -33.28693824396133
    vertex -232.34782259361944 9.609155516540852 -33.29783662613768
  endloop
endfacet
facet normal -0.9999991038217457 -0.0003442498593800306 0.0012937726770687144
  outer loop
    vertex -248.7121549960215 0.44452076088850245 -37.325283649053986
    vertex -248.70871196681048 -0.07734993905370695 -35.36816882945596
    vertex -248.7121549960215 5.1043269482591755 -36.72008049239872
  endloop
endfacet
facet normal -0.9999991038217457 -0.0003442498593800306 0.0012937726770687144
  outer loop
    vertex -248.70871196681048 -0.07734993905370695 -35.36816882945596
    vertex -248.7121549960215 0.44452076088850245 -37.325283649053986
    vertex -248.7121549960215 -3.899868277895973 -39.11591159599707
  endloop
endfacet
facet normal 0.0014962670168258186 -0.7028964432273945 0.711290623643594
  outer loop
    vertex -232.31063407968458 -0.07487910784705289 -35.376641568516725
    vertex -248.7121549960215 -3.899868277895973 -39.11591159599707
    vertex -228.9525707913393 -0.07416997841374462 -35.375865578436965
  endloop
endfacet
facet normal 0.0014962670168258186 -0.7028964432273945 0.711290623643594
  outer loop
    vertex -248.7121549960215 -3.899868277895973 -39.11591159599707
    vertex -232.31063407968458 -0.07487910784705289 -35.376641568516725
    vertex -232.34577637550268 -0.07734791558928972 -35.36817000163041
  endloop
endfacet
facet normal 0.0014962670168258186 -0.7028964432273945 0.711290623643594
  outer loop
    vertex -248.7121549960215 -3.899868277895973 -39.11591159599707
    vertex -232.34577637550268 -0.07734791558928972 -35.36817000163041
    vertex -245.07124867262743 -0.09063820279810435 -35.3590199632685
  endloop
endfacet
facet normal -0.003046406048879108 -0.13090001499251433 -0.9913908943928953
  outer loop
    vertex -245.0752896176897 5.106857353077221 -32.691796295030414
    vertex -245.04947497206757 9.609760244897508 -33.27990558697526
    vertex -244.41686831814528 9.607033335462782 -33.28827281546749
  endloop
endfacet
facet normal -0.003046406048879108 -0.13090001499251433 -0.9913908943928953
  outer loop
    vertex -245.04947497206757 9.609760244897508 -33.27990558697526
    vertex -245.0752896176897 5.106857353077221 -32.691796295030414
    vertex -245.0759361391741 9.607759233831088 -33.292344200788015
  endloop
endfacet
facet normal -0.0007624807398046293 -0.13128631141972424 -0.9913442000924425
  outer loop
    vertex -245.0752896176897 5.106857353077221 -32.691796295030414
    vertex -244.41686831814528 9.607033335462782 -33.28827281546749
    vertex -232.34782259361944 9.609155516540852 -33.29783662613768
  endloop
endfacet
facet normal 0.000459163648119957 -0.13467851561031147 -0.9908892403299914
  outer loop
    vertex -245.0752896176897 5.106857353077221 -32.691796295030414
    vertex -232.34782259361944 9.609155516540852 -33.29783662613768
    vertex -232.34705928921747 5.1105847219779035 -32.68640483053204
  endloop
endfacet
facet normal -0.30800671268481783 0.12807978198349232 0.9427234135143527
  outer loop
    vertex -232.34782259361944 9.609155516540852 -33.29783662613768
    vertex -232.34705928921747 5.1105847219779035 -32.68640483053204
    vertex -232.313492146012 9.61149662191174 -33.28693824396133
  endloop
endfacet
facet normal -0.0004585921562836843 0.1322561765505587 0.9912154626807744
  outer loop
    vertex -232.34705928921747 5.1105847219779035 -32.68640483053204
    vertex -232.31284562452754 5.1105947411578745 -32.686390338203815
    vertex -232.313492146012 9.61149662191174 -33.28693824396133
  endloop
endfacet
facet normal -0.0019468848463177597 -0.9789243111981838 0.2042141096608087
  outer loop
    vertex -245.07125002604175 0.7351580517495854 -31.443789715827716
    vertex -248.70871178708714 0.7422429759755561 -31.444505212979596
    vertex -245.07124857780727 0.3498870315947608 -33.290631571351625
  endloop
endfacet
facet normal 0.00022369590372910473 -0.9780632831919138 0.20830785878597313
  outer loop
    vertex -248.70871178708714 0.7422429759755561 -31.444505212979596
    vertex -245.07124867262743 -0.09063820279810435 -35.3590199632685
    vertex -245.07124857780727 0.3498870315947608 -33.290631571351625
  endloop
endfacet
facet normal -0.004090233299769918 -0.9788643499035421 0.20446969085776384
  outer loop
    vertex -248.70871178708714 0.7422429759755561 -31.444505212979596
    vertex -248.70871196681048 -0.07734993905370695 -35.36816882945596
    vertex -245.07124867262743 -0.09063820279810435 -35.3590199632685
  endloop
endfacet
facet normal -0.0015816226949653437 -0.7825893834416127 0.6225362281780294
  outer loop
    vertex -228.7088423901288 6.089277585984983 -24.72056191180517
    vertex -232.34577637608982 6.092333106084751 -24.72596085822657
    vertex -232.34577619636644 0.744703689651063 -31.448457988787165
  endloop
endfacet
facet normal 4.2510750017781535e-05 -0.7830073194462046 0.6220124885293746
  outer loop
    vertex -228.17134271910314 6.08942945511372 -24.720788200535985
    vertex -228.7101405547738 0.7447041392388438 -31.448458249229443
    vertex -228.17180104678354 0.7448718576111851 -31.44862918322408
  endloop
endfacet
facet normal 4.2510750017781535e-05 -0.7830073194462046 0.6220124885293746
  outer loop
    vertex -228.7101405547738 0.7447041392388438 -31.448458249229443
    vertex -228.17134271910314 6.08942945511372 -24.720788200535985
    vertex -232.34577619636644 0.744703689651063 -31.448457988787165
  endloop
endfacet
facet normal 4.2510750017781535e-05 -0.7830073194462046 0.6220124885293746
  outer loop
    vertex -232.34577619636644 0.744703689651063 -31.448457988787165
    vertex -228.17134271910314 6.08942945511372 -24.720788200535985
    vertex -228.7088423901288 6.089277585984983 -24.72056191180517
  endloop
endfacet
facet normal 0.02931782240005767 -0.12624939392871543 -0.9915652050280662
  outer loop
    vertex -245.0772218902153 5.102658274203366 -34.716570866935854
    vertex -244.67217596061832 5.305844957174061 -34.724448460973576
    vertex -244.6561026849045 5.105746191248224 -34.710304342531316
  endloop
endfacet
facet normal 0.02931782240005767 -0.12624939392871543 -0.9915652050280662
  outer loop
    vertex -244.67217596061832 5.305844957174061 -34.724448460973576
    vertex -245.0772218902153 5.102658274203366 -34.716570866935854
    vertex -245.07735908862367 10.297948998415626 -35.3782909093588
  endloop
endfacet
facet normal -0.02860540128901338 -0.0727670701490513 -0.9969386563470279
  outer loop
    vertex -244.67217596061832 5.305844957174061 -34.724448460973576
    vertex -233.99157760416114 10.289242907413568 -35.39465024918306
    vertex -244.6561026849045 5.105746191248224 -34.710304342531316
  endloop
endfacet
facet normal 0.0003327804463751967 -0.13156109865852214 -0.9913080079253557
  outer loop
    vertex -244.6561026849045 5.105746191248224 -34.710304342531316
    vertex -233.99157760416114 10.289242907413568 -35.39465024918306
    vertex -232.34921940530074 5.110308439405945 -34.706778419505035
  endloop
endfacet
facet normal 0.0018984440923230225 0.13225615192494403 0.9912137540349379
  outer loop
    vertex -233.99157760416114 10.289242907413568 -35.39465024918306
    vertex -232.34921940530074 5.110308439405945 -34.706778419505035
    vertex -232.34921940530072 10.289957690473761 -35.39789118451515
  endloop
endfacet
facet normal 0.00038369004203483894 0.12490039546245812 -0.9921692113723715
  outer loop
    vertex -245.0752896176897 5.106857353077221 -32.691796295030414
    vertex -232.34705928921747 5.1105847219779035 -32.68640483053204
    vertex -245.07124857780727 0.3498870315947608 -33.290631571351625
  endloop
endfacet
facet normal -0.00021281107652269953 0.12646947479277393 -0.9919704767063814
  outer loop
    vertex -245.07124857780727 0.3498870315947608 -33.290631571351625
    vertex -232.34705928921747 5.1105847219779035 -32.68640483053204
    vertex -232.34484064922083 0.3580036291500732 -33.292327003606026
  endloop
endfacet
facet normal 0.9999996245181306 -5.360604161327661e-05 -0.0008649219560472235
  outer loop
    vertex -245.0759361391741 9.607759233831088 -33.292344200788015
    vertex -245.0773590886237 5.118299747347812 -34.68717814434868
    vertex -245.07735908862367 10.297948998415626 -35.3782909093588
  endloop
endfacet
facet normal 0.9999996245181306 -5.360604161327661e-05 -0.0008649219560472235
  outer loop
    vertex -245.0773590886237 5.118299747347812 -34.68717814434868
    vertex -245.0759361391741 9.607759233831088 -33.292344200788015
    vertex -245.0752896176897 5.106857353077221 -32.691796295030414
  endloop
endfacet
facet normal -0.00041107833760417725 0.9493806859311715 0.3141275922224259
  outer loop
    vertex -245.0759361391741 9.607759233831088 -33.292344200788015
    vertex -245.07735908862367 10.297948998415626 -35.3782909093588
    vertex -248.71075818434014 9.606694802865439 -33.29388385033009
  endloop
endfacet
facet normal -0.004062936894033256 0.9512535933606434 0.3083830307624903
  outer loop
    vertex -248.71075818434014 9.606694802865439 -33.29388385033009
    vertex -245.07735908862367 10.297948998415626 -35.3782909093588
    vertex -248.7121549960214 10.287496976798257 -35.39393840870762
  endloop
endfacet
facet normal 0.9999991938756977 0.001105564026540443 -0.0006244806948629226
  outer loop
    vertex -245.0752896176897 5.106857353077221 -32.691796295030414
    vertex -245.07124867262743 -0.09063820279810435 -35.3590199632685
    vertex -245.0773590886237 5.118299747347812 -34.68717814434868
  endloop
endfacet
facet normal 0.9999991938756977 0.001105564026540443 -0.0006244806948629226
  outer loop
    vertex -245.07124867262743 -0.09063820279810435 -35.3590199632685
    vertex -245.0752896176897 5.106857353077221 -32.691796295030414
    vertex -245.07124857780727 0.3498870315947608 -33.290631571351625
  endloop
endfacet
facet normal 7.255867396339279e-08 -0.978708095862573 0.20525706587850082
  outer loop
    vertex -228.7101405547738 0.7447041392388438 -31.448458249229443
    vertex -232.34484064922083 0.3580036291500732 -33.292327003606026
    vertex -232.34577637550268 -0.07734791558928972 -35.36817000163041
  endloop
endfacet
facet normal 7.255867396339279e-08 -0.978708095862573 0.20525706587850082
  outer loop
    vertex -232.34484064922083 0.3580036291500732 -33.292327003606026
    vertex -228.7101405547738 0.7447041392388438 -31.448458249229443
    vertex -232.34577619636644 0.744703689651063 -31.448457988787165
  endloop
endfacet
facet normal 0.0007591359946312018 -0.9789538892251314 0.20408014720577553
  outer loop
    vertex -228.9525707913393 -0.07416997841374462 -35.375865578436965
    vertex -232.34577637550268 -0.07734791558928972 -35.36817000163041
    vertex -232.31063407968458 -0.07487910784705289 -35.376641568516725
  endloop
endfacet
facet normal 0.0007591359946312018 -0.9789538892251314 0.20408014720577553
  outer loop
    vertex -232.34577637550268 -0.07734791558928972 -35.36817000163041
    vertex -228.9525707913393 -0.07416997841374462 -35.375865578436965
    vertex -228.71063425602506 -0.07410556853736007 -35.3758222464413
  endloop
endfacet
facet normal 0.0007591359946312018 -0.9789538892251314 0.20408014720577553
  outer loop
    vertex -232.34577637550268 -0.07734791558928972 -35.36817000163041
    vertex -228.71063425602506 -0.07410556853736007 -35.3758222464413
    vertex -228.7101405547738 0.7447041392388438 -31.448458249229443
  endloop
endfacet
facet normal 0.000809227263483964 -0.9789258454851234 0.20421443189077612
  outer loop
    vertex -245.07125002604175 0.7351580517495854 -31.443789715827716
    vertex -245.07124857780727 0.3498870315947608 -33.290631571351625
    vertex -232.34577619636644 0.744703689651063 -31.448457988787165
  endloop
endfacet
facet normal 0.0006515410691639764 -0.9787078940574377 0.20525699404378583
  outer loop
    vertex -232.34577619636644 0.744703689651063 -31.448457988787165
    vertex -245.07124857780727 0.3498870315947608 -33.290631571351625
    vertex -232.34484064922083 0.3580036291500732 -33.292327003606026
  endloop
endfacet
facet normal 0.0029446535540306983 0.12277433156096308 -0.9924302456723121
  outer loop
    vertex -248.70871196681048 -0.07734993905370695 -35.36816882945596
    vertex -245.0772218902153 5.102658274203366 -34.716570866935854
    vertex -245.07124867262743 -0.09063820279810435 -35.3590199632685
  endloop
endfacet
facet normal 0.013866352753162945 0.12277543282109477 -0.9923376025108177
  outer loop
    vertex -245.0772218902153 5.102658274203366 -34.716570866935854
    vertex -244.6561026849045 5.105746191248224 -34.710304342531316
    vertex -245.07124867262743 -0.09063820279810435 -35.3590199632685
  endloop
endfacet
facet normal 0.00023837838005860124 0.12385946304247275 -0.9922997413032911
  outer loop
    vertex -245.07124867262743 -0.09063820279810435 -35.3590199632685
    vertex -244.6561026849045 5.105746191248224 -34.710304342531316
    vertex -232.34921940530074 5.110308439405945 -34.706778419505035
  endloop
endfacet
facet normal 0.0008453419044487718 -0.12646902234795837 0.9919701970237899
  outer loop
    vertex -245.07124867262743 -0.09063820279810435 -35.3590199632685
    vertex -232.34577637550268 -0.07734791558928972 -35.36817000163041
    vertex -232.34921940530074 5.110308439405945 -34.706778419505035
  endloop
endfacet
facet normal 0.0014469521505450405 -0.1279172434052448 0.9917837895272726
  outer loop
    vertex -245.0773590886237 5.118299747347812 -34.68717814434868
    vertex -245.07124867262743 -0.09063820279810435 -35.3590199632685
    vertex -232.34921940530074 5.110308439405945 -34.706778419505035
  endloop
endfacet
facet normal -0.24065533195439665 0.12100447536201221 -0.9630383835259545
  outer loop
    vertex -232.34577637550268 -0.07734791558928972 -35.36817000163041
    vertex -232.3148154313762 5.114066046393107 -34.72361271586819
    vertex -232.31063407968458 -0.07487910784705289 -35.376641568516725
  endloop
endfacet
facet normal 0.029945522997694526 0.13219707753328633 0.9907710120628545
  outer loop
    vertex -245.0773590886237 5.118299747347812 -34.68717814434868
    vertex -244.67217596061832 5.305844957174061 -34.724448460973576
    vertex -245.07735908862367 10.297948998415626 -35.3782909093588
  endloop
endfacet
facet normal -0.0010029541891183374 0.9248047971223384 0.38044064097097363
  outer loop
    vertex -248.70871196681034 10.714023066440939 -22.820106259547043
    vertex -246.34716897970324 11.630931096601065 -25.03496552772678
    vertex -248.70871196681028 13.566875800749974 -29.75633227059531
  endloop
endfacet
facet normal -0.0010029541891183374 0.9248047971223384 0.38044064097097363
  outer loop
    vertex -246.34716897970324 11.630931096601065 -25.03496552772678
    vertex -248.70871196681034 10.714023066440939 -22.820106259547043
    vertex -245.23824959641254 10.714544966326656 -22.820944615209
  endloop
endfacet
facet normal -0.0010029541891183374 0.9248047971223384 0.38044064097097363
  outer loop
    vertex -245.23824959641254 10.714544966326656 -22.820944615209
    vertex -248.70871196681034 10.714023066440939 -22.820106259547043
    vertex -245.77682548108825 10.719432147808769 -22.81877101230433
  endloop
endfacet
facet normal -0.0019260067950311367 0.9245104643518272 0.38115179627255374
  outer loop
    vertex -245.17733206487662 14.126855817078827 -31.092047438073024
    vertex -244.61652582563522 14.146651883649689 -31.139791258426385
    vertex -244.41686831814485 14.246238735252735 -31.380179020840973
  endloop
endfacet
facet normal -0.0019260067950311367 0.9245104643518272 0.38115179627255374
  outer loop
    vertex -244.61652582563522 14.146651883649689 -31.139791258426385
    vertex -245.17733206487662 14.126855817078827 -31.092047438073024
    vertex -245.66548026193382 13.179142274582354 -28.799492984030056
  endloop
endfacet
facet normal -0.0019260067950311367 0.9245104643518272 0.38115179627255374
  outer loop
    vertex -245.66548026193382 13.179142274582354 -28.799492984030056
    vertex -245.17733206487662 14.126855817078827 -31.092047438073024
    vertex -248.70871196681028 13.566875800749974 -29.75633227059531
  endloop
endfacet
facet normal -0.0019260067950311367 0.9245104643518272 0.38115179627255374
  outer loop
    vertex -245.66548026193382 13.179142274582354 -28.799492984030056
    vertex -248.70871196681028 13.566875800749974 -29.75633227059531
    vertex -246.34716897970324 11.630931096601065 -25.03496552772678
  endloop
endfacet
facet normal -0.0019260067950311367 0.9245104643518272 0.38115179627255374
  outer loop
    vertex -245.66548026193382 13.179142274582354 -28.799492984030056
    vertex -246.34716897970324 11.630931096601065 -25.03496552772678
    vertex -246.0232590858987 12.142358299314164 -26.2874341532859
  endloop
endfacet
facet normal -0.0019260067950311367 0.9245104643518272 0.38115179627255374
  outer loop
    vertex -246.0232590858987 12.142358299314164 -26.2874341532859
    vertex -246.34716897970324 11.630931096601065 -25.03496552772678
    vertex -245.66548030158228 11.10695506605521 -23.774807408984376
  endloop
endfacet
facet normal -0.0019260067950311367 0.9245104643518272 0.38115179627255374
  outer loop
    vertex -245.66548030158228 11.10695506605521 -23.774807408984376
    vertex -246.34716897970324 11.630931096601065 -25.03496552772678
    vertex -245.23824959641254 10.714544966326656 -22.820944615209
  endloop
endfacet
facet normal 0.00012081102042683017 0.66619129919442 -0.7457808916044634
  outer loop
    vertex -248.71075818434014 9.606694802865439 -33.29388385033009
    vertex -248.70871196681028 13.566875800749974 -29.75633227059531
    vertex -245.0759361391741 9.607759233831088 -33.292344200788015
  endloop
endfacet
facet normal -0.00010881277231784012 -0.3804192082855739 0.9248141511282997
  outer loop
    vertex -245.77682548108825 10.719432147808769 -22.81877101230433
    vertex -245.23824973858524 6.0877001691438215 -24.7239545858003
    vertex -245.23824959641254 10.714544966326656 -22.820944615209
  endloop
endfacet
facet normal -0.00010881277231784012 -0.3804192082855739 0.9248141511282997
  outer loop
    vertex -245.23824973858524 6.0877001691438215 -24.7239545858003
    vertex -245.77682548108825 10.719432147808769 -22.81877101230433
    vertex -245.77520146240676 6.085419552617847 -24.7251832175264
  endloop
endfacet
facet normal -0.0007997428675933984 0.3803802429309524 -0.9248298390510198
  outer loop
    vertex -244.41686831814528 9.607033335462782 -33.28827281546749
    vertex -244.41686831814485 14.246238735252735 -31.380179020840973
    vertex -232.34782259361944 9.609155516540852 -33.29783662613768
  endloop
endfacet
facet normal 0.0724156516648481 -0.12836886484563648 -0.9890790706168028
  outer loop
    vertex -232.34921940530072 10.289957690473761 -35.39789118451515
    vertex -232.31215481968096 10.286723437488703 -35.39475773078255
    vertex -232.3148154313762 5.114066046393107 -34.72361271586819
  endloop
endfacet
facet normal 0.0011581558806093841 0.13206638214047015 0.991240197622798
  outer loop
    vertex -232.34921940530074 5.110308439405945 -34.706778419505035
    vertex -244.67217596061832 5.305844957174061 -34.724448460973576
    vertex -245.0773590886237 5.118299747347812 -34.68717814434868
  endloop
endfacet
facet normal 0.0011581558806093841 0.13206638214047015 0.991240197622798
  outer loop
    vertex -244.67217596061832 5.305844957174061 -34.724448460973576
    vertex -232.34921940530074 5.110308439405945 -34.706778419505035
    vertex -233.99157760416114 10.289242907413568 -35.39465024918306
  endloop
endfacet
facet normal -1.6364483420652512e-05 0.7014451705125971 0.7127234193547715
  outer loop
    vertex -248.7121549960215 14.100104306543267 -39.1473275065832
    vertex -228.1745825169368 10.287570958049407 -35.39372290482477
    vertex -228.17381543476756 14.100104306543267 -39.1473275065832
  endloop
endfacet
facet normal -1.6364483420652512e-05 0.7014451705125971 0.7127234193547715
  outer loop
    vertex -228.1745825169368 10.287570958049407 -35.39372290482477
    vertex -248.7121549960215 14.100104306543267 -39.1473275065832
    vertex -232.31215481968096 10.286723437488703 -35.39475773078255
  endloop
endfacet
facet normal -1.6364483420652512e-05 0.7014451705125971 0.7127234193547715
  outer loop
    vertex -232.31215481968096 10.286723437488703 -35.39475773078255
    vertex -248.7121549960215 14.100104306543267 -39.1473275065832
    vertex -232.34921940530072 10.289957690473761 -35.39789118451515
  endloop
endfacet
facet normal -0.0043534745841870386 -0.7000795190259319 0.7140516187919925
  outer loop
    vertex -248.7121549960215 -3.899868277895973 -39.11591159599707
    vertex -245.07124867262743 -0.09063820279810435 -35.3590199632685
    vertex -248.70871196681048 -0.07734993905370695 -35.36816882945596
  endloop
endfacet
facet normal 0.004647361001653101 -0.1322549620150235 -0.9912048360748273
  outer loop
    vertex -248.7121549960214 10.287496976798257 -35.39393840870762
    vertex -245.07735908862367 10.297948998415626 -35.3782909093588
    vertex -248.7121549960214 5.107847725730489 -34.70282564369746
  endloop
endfacet
facet normal 0.0015587713181595705 0.7047502482110434 0.7094537743070021
  outer loop
    vertex -248.7121549960215 14.100104306543267 -39.1473275065832
    vertex -233.99157760416114 10.289242907413568 -35.39465024918306
    vertex -232.34921940530072 10.289957690473761 -35.39789118451515
  endloop
endfacet
facet normal 0.0015587713181595705 0.7047502482110434 0.7094537743070021
  outer loop
    vertex -233.99157760416114 10.289242907413568 -35.39465024918306
    vertex -248.7121549960215 14.100104306543267 -39.1473275065832
    vertex -245.07735908862367 10.297948998415626 -35.3782909093588
  endloop
endfacet
facet normal 0.9999999264648481 0.00014737627837476774 0.0003540487690924233
  outer loop
    vertex -228.17381543476756 9.761992193240644 -37.34154572101184
    vertex -228.17381543476756 14.100104306543267 -39.1473275065832
    vertex -228.1745825169368 10.287570958049407 -35.39372290482477
  endloop
endfacet
facet normal -5.102322467500258e-06 0.38035003300670595 -0.9248426095102691
  outer loop
    vertex -228.17591984326782 9.612344142472493 -33.28590341800352
    vertex -228.67316216206837 14.247053147842687 -31.379841553693115
    vertex -228.17309928611076 14.24547805886616 -31.380765834655886
  endloop
endfacet
facet normal -5.102322467500258e-06 0.38035003300670595 -0.9248426095102691
  outer loop
    vertex -228.67316216206837 14.247053147842687 -31.379841553693115
    vertex -228.17591984326782 9.612344142472493 -33.28590341800352
    vertex -228.7134923223525 9.612270161221158 -33.28611892188598
  endloop
endfacet
facet normal -5.102322467500258e-06 0.38035003300670595 -0.9248426095102691
  outer loop
    vertex -228.67316216206837 14.247053147842687 -31.379841553693115
    vertex -228.7134923223525 9.612270161221158 -33.28611892188598
    vertex -228.70487908539857 14.246231687876273 -31.38016188670478
  endloop
endfacet
facet normal -5.102322467500258e-06 0.38035003300670595 -0.9248426095102691
  outer loop
    vertex -228.70487908539857 14.246231687876273 -31.38016188670478
    vertex -228.7134923223525 9.612270161221158 -33.28611892188598
    vertex -244.41686831814485 14.246238735252735 -31.380179020840973
  endloop
endfacet
facet normal 3.048476270664217e-06 -0.13226959762894458 -0.9912137779176518
  outer loop
    vertex -228.17391499509372 5.104334100707535 -36.719955115580035
    vertex -248.7121549960215 9.761992193240644 -37.34154572101184
    vertex -228.17381543476756 9.761992193240644 -37.34154572101184
  endloop
endfacet
facet normal 3.048476270664217e-06 -0.13226959762894458 -0.9912137779176518
  outer loop
    vertex -248.7121549960215 9.761992193240644 -37.34154572101184
    vertex -228.17391499509372 5.104334100707535 -36.719955115580035
    vertex -248.7121549960215 5.1043269482591755 -36.72008049239872
  endloop
endfacet
facet normal 9.042938958506312e-18 -0.3842953226597975 -0.9232102171129835
  outer loop
    vertex -248.7121549960215 9.761992193240644 -37.34154572101184
    vertex -228.17381543476756 14.100104306543267 -39.1473275065832
    vertex -228.17381543476756 9.761992193240644 -37.34154572101184
  endloop
endfacet
facet normal 9.042938958506312e-18 -0.3842953226597975 -0.9232102171129835
  outer loop
    vertex -228.17381543476756 14.100104306543267 -39.1473275065832
    vertex -248.7121549960215 9.761992193240644 -37.34154572101184
    vertex -248.7121549960215 14.100104306543267 -39.1473275065832
  endloop
endfacet
facet normal -0.9999999234756617 -0.00026305098513904307 0.00028957356583562445
  outer loop
    vertex -248.7121549960214 5.107847725730489 -34.70282564369746
    vertex -248.71075818434014 9.606694802865439 -33.29388385033009
    vertex -248.7121549960214 10.287496976798257 -35.39393840870762
  endloop
endfacet
facet normal -0.9999999234756617 -0.00026305098513904307 0.00028957356583562445
  outer loop
    vertex -248.71075818434014 9.606694802865439 -33.29388385033009
    vertex -248.7121549960214 5.107847725730489 -34.70282564369746
    vertex -248.70871178708714 0.7422429759755561 -31.444505212979596
  endloop
endfacet
facet normal -0.9999999234756617 -0.00026305098513904307 0.00028957356583562445
  outer loop
    vertex -248.70871178708714 0.7422429759755561 -31.444505212979596
    vertex -248.7121549960214 5.107847725730489 -34.70282564369746
    vertex -248.70871196681048 -0.07734993905370695 -35.36816882945596
  endloop
endfacet
facet normal -0.999999989572487 -5.138813491542039e-05 0.00013496031152203687
  outer loop
    vertex -248.71075818434014 9.606694802865439 -33.29388385033009
    vertex -248.70871196681034 10.714023066440939 -22.820106259547043
    vertex -248.70871196681028 13.566875800749974 -29.75633227059531
  endloop
endfacet
facet normal -0.999999989572487 -5.138813491542039e-05 0.00013496031152203687
  outer loop
    vertex -248.70871196681034 10.714023066440939 -22.820106259547043
    vertex -248.71075818434014 9.606694802865439 -33.29388385033009
    vertex -248.70871196681048 6.08987239240925 -24.722008082418974
  endloop
endfacet
facet normal -0.999999989572487 -5.138813491542039e-05 0.00013496031152203687
  outer loop
    vertex -248.70871196681048 6.08987239240925 -24.722008082418974
    vertex -248.71075818434014 9.606694802865439 -33.29388385033009
    vertex -248.70871178708714 0.7422429759755561 -31.444505212979596
  endloop
endfacet
facet normal -0.0006893413610823456 -0.7825901763272043 0.6225368589285645
  outer loop
    vertex -248.70871196681048 6.08987239240925 -24.722008082418974
    vertex -248.70871178708714 0.7422429759755561 -31.444505212979596
    vertex -245.7337871692257 1.712708349971758 -30.22124044428626
  endloop
endfacet
facet normal 0.00032774815686814623 -0.7824344772019757 0.6227328331369854
  outer loop
    vertex -245.23824973858524 6.0877001691438215 -24.7239545858003
    vertex -245.77520146240676 6.085419552617847 -24.7251832175264
    vertex -232.34577637608982 6.092333106084751 -24.72596085822657
  endloop
endfacet
facet normal 0.00032774815686814623 -0.7824344772019757 0.6227328331369854
  outer loop
    vertex -245.7337871692257 1.712708349971758 -30.22124044428626
    vertex -245.77520146240676 6.085419552617847 -24.7251832175264
    vertex -248.70871196681048 6.08987239240925 -24.722008082418974
  endloop
endfacet
facet normal 0.00032774815686814623 -0.7824344772019757 0.6227328331369854
  outer loop
    vertex -245.77520146240676 6.085419552617847 -24.7251832175264
    vertex -245.7337871692257 1.712708349971758 -30.22124044428626
    vertex -232.34577637608982 6.092333106084751 -24.72596085822657
  endloop
endfacet
facet normal 0.0006091443036960739 -0.782528723265255 0.6226141872846036
  outer loop
    vertex -232.34577637608982 6.092333106084751 -24.72596085822657
    vertex -245.07125002604175 0.7351580517495854 -31.443789715827716
    vertex -232.34577619636644 0.744703689651063 -31.448457988787165
  endloop
endfacet
facet normal 0.0006091443036960739 -0.782528723265255 0.6226141872846036
  outer loop
    vertex -245.07125002604175 0.7351580517495854 -31.443789715827716
    vertex -232.34577637608982 6.092333106084751 -24.72596085822657
    vertex -245.7337871692257 1.712708349971758 -30.22124044428626
  endloop
endfacet
facet normal 9.931817984690521e-18 0.12879559657756612 -0.99167116238309
  outer loop
    vertex -248.7121549960215 0.44452076088850245 -37.325283649053986
    vertex -228.17391499509372 5.104334100707535 -36.719955115580035
    vertex -228.17391499509372 0.4445279133368684 -37.32515827223529
  endloop
endfacet
facet normal 9.931817984690521e-18 0.12879559657756612 -0.99167116238309
  outer loop
    vertex -228.17391499509372 5.104334100707535 -36.719955115580035
    vertex -248.7121549960215 0.44452076088850245 -37.325283649053986
    vertex -248.7121549960215 5.1043269482591755 -36.72008049239872
  endloop
endfacet
facet normal -0.001644825274622887 -0.781454738209977 0.623959763669896
  outer loop
    vertex -245.7337871692257 1.712708349971758 -30.22124044428626
    vertex -248.70871178708714 0.7422429759755561 -31.444505212979596
    vertex -245.07125002604175 0.7351580517495854 -31.443789715827716
  endloop
endfacet
facet normal -0.001644825274622887 -0.781454738209977 0.623959763669896
  outer loop
    vertex -245.7337871692257 1.712708349971758 -30.22124044428626
    vertex -248.70871178708714 0.7422429759755561 -31.444505212979596
    vertex -245.07125002604175 0.7351580517495854 -31.443789715827716
  endloop
endfacet
facet normal 0.6087615895958477 0.30173733979016226 -0.7337328565691283
  outer loop
    vertex -229.16588475338455 15.52425379529339 -34.49051562408999
    vertex -228.17611032185815 31.41498180627789 -27.134483240753035
    vertex -228.17442331200044 15.238334789022373 -33.785502623648505
  endloop
endfacet
facet normal 0.6087615895958477 0.30173733979016226 -0.7337328565691283
  outer loop
    vertex -228.17611032185815 31.41498180627789 -27.134483240753035
    vertex -229.16588475338455 15.52425379529339 -34.49051562408999
    vertex -229.16757176324222 31.700900812548912 -27.839496241194517
  endloop
endfacet
facet normal 0.6087613674188961 0.30173740459852416 -0.7337330142527475
  outer loop
    vertex -230.01941485504742 15.773370976161756 -35.09622392887164
    vertex -229.16757176324222 31.700900812548912 -27.839496241194517
    vertex -229.16588475338455 15.52425379529339 -34.49051562408999
  endloop
endfacet
facet normal 0.6087613674188961 0.30173740459852416 -0.7337330142527475
  outer loop
    vertex -229.16757176324222 31.700900812548912 -27.839496241194517
    vertex -230.01941485504742 15.773370976161756 -35.09622392887164
    vertex -230.02110186490512 31.950017993417273 -28.445204545976175
  endloop
endfacet
facet normal 0.38268343137438654 0.3513515274655111 -0.8544621088726974
  outer loop
    vertex -232.67344591070466 16.191528140989618 -36.11292618371628
    vertex -230.02110186490512 31.950017993417273 -28.445204545976175
    vertex -230.01941485504742 15.773370976161756 -35.09622392887164
  endloop
endfacet
facet normal 0.38268343137438654 0.3513515274655111 -0.8544621088726974
  outer loop
    vertex -230.02110186490512 31.950017993417273 -28.445204545976175
    vertex -232.67344591070466 16.191528140989618 -36.11292618371628
    vertex -232.67513292056236 32.36817515824514 -29.461906800820824
  endloop
endfacet
facet normal 0.13052619175148705 0.37702164174428127 -0.9169610651076201
  outer loop
    vertex -235.52157207584062 16.334148021820727 -36.45970675319371
    vertex -232.67513292056236 32.36817515824514 -29.461906800820824
    vertex -232.67344591070466 16.191528140989618 -36.11292618371628
  endloop
endfacet
facet normal 0.13052619175148705 0.37702164174428127 -0.9169610651076201
  outer loop
    vertex -232.67513292056236 32.36817515824514 -29.461906800820824
    vertex -235.52157207584062 16.334148021820727 -36.45970675319371
    vertex -235.5232590856983 32.51079503907625 -29.808687370298248
  endloop
endfacet
facet normal -0.13052619055182985 0.3769983541382316 -0.916970639964602
  outer loop
    vertex -238.36969824101664 16.191511306616718 -36.112933107647
    vertex -235.5232590856983 32.51079503907625 -29.808687370298248
    vertex -235.52157207584062 16.334148021820727 -36.45970675319371
  endloop
endfacet
facet normal -0.13052619055182985 0.3769983541382316 -0.916970639964602
  outer loop
    vertex -235.5232590856983 32.51079503907625 -29.808687370298248
    vertex -238.36969824101664 16.191511306616718 -36.112933107647
    vertex -238.3713852508743 32.36815832387224 -29.461913724751536
  endloop
endfacet
facet normal -0.3826834274472819 0.3512832521016762 -0.8544901820091739
  outer loop
    vertex -241.023729314937 15.773338451774864 -35.09623729788682
    vertex -238.3713852508743 32.36815832387224 -29.461913724751536
    vertex -238.36969824101664 16.191511306616718 -36.112933107647
  endloop
endfacet
facet normal -0.3826834274472819 0.3512832521016762 -0.8544901820091739
  outer loop
    vertex -238.3713852508743 32.36815832387224 -29.461913724751536
    vertex -241.023729314937 15.773338451774864 -35.09623729788682
    vertex -241.02541632479466 31.949985469030384 -28.445217914991357
  endloop
endfacet
facet normal -0.6087614210243024 0.30162877755927436 -0.7337776317254227
  outer loop
    vertex -243.30279746593789 15.108127246242098 -33.47890546306326
    vertex -241.02541632479466 31.949985469030384 -28.445217914991357
    vertex -241.023729314937 15.773338451774864 -35.09623729788682
  endloop
endfacet
facet normal -0.6087614210243024 0.30162877755927436 -0.7337776317254227
  outer loop
    vertex -241.02541632479466 31.949985469030384 -28.445217914991357
    vertex -243.30279746593789 15.108127246242098 -33.47890546306326
    vertex -243.3044844757956 31.284774263497617 -26.8278860801678
  endloop
endfacet
facet normal -0.7929540608516378 0.2316767990471094 -0.5635154994870883
  outer loop
    vertex -243.30279746593789 15.108127246242098 -33.47890546306326
    vertex -245.05327497565713 30.417857751575387 -24.720136711955004
    vertex -243.3044844757956 31.284774263497617 -26.8278860801678
  endloop
endfacet
facet normal -0.7929540608516378 0.2316767990471094 -0.5635154994870883
  outer loop
    vertex -245.05327497565713 30.417857751575387 -24.720136711955004
    vertex -243.30279746593789 15.108127246242098 -33.47890546306326
    vertex -245.04947788161303 9.792167504475577 -33.2105956321544
  endloop
endfacet
facet normal -0.7929540608516378 0.2316767990471094 -0.5635154994870883
  outer loop
    vertex -245.04947788161303 9.792167504475577 -33.2105956321544
    vertex -243.30279746593789 15.108127246242098 -33.47890546306326
    vertex -243.3011734472564 10.474114651051174 -35.38531766828534
  endloop
endfacet
facet normal -0.7929540608516378 0.2316767990471094 -0.5635154994870883
  outer loop
    vertex -245.04947788161303 9.792167504475577 -33.2105956321544
    vertex -243.3011734472564 10.474114651051174 -35.38531766828534
    vertex -245.04947497206757 9.609760244897508 -33.27990558697526
  endloop
endfacet
facet normal -0.9239418465342963 0.14540069031043248 -0.35382213537319107
  outer loop
    vertex -245.04947788161303 9.792167504475577 -33.2105956321544
    vertex -246.15261064170127 29.40831486089248 -22.265609446547924
    vertex -245.05327497565713 30.417857751575387 -24.720136711955004
  endloop
endfacet
facet normal -0.9239418465342963 0.14540069031043248 -0.35382213537319107
  outer loop
    vertex -246.15261064170127 29.40831486089248 -22.265609446547924
    vertex -245.04947788161303 9.792167504475577 -33.2105956321544
    vertex -246.1488106381117 8.60021735421458 -30.825378321568174
  endloop
endfacet
facet normal -0.9239418465342963 0.14540069031043248 -0.35382213537319107
  outer loop
    vertex -246.1488106381117 8.60021735421458 -30.825378321568174
    vertex -245.04947788161303 9.792167504475577 -33.2105956321544
    vertex -245.04947497206757 9.609760244897508 -33.27990558697526
  endloop
endfacet
facet normal -0.9239418465342963 0.14540069031043248 -0.35382213537319107
  outer loop
    vertex -246.1488106381117 8.60021735421458 -30.825378321568174
    vertex -245.04947497206757 9.609760244897508 -33.27990558697526
    vertex -245.17570804619513 9.492843221887904 -32.9984596432951
  endloop
endfacet
facet normal -0.991444854651281 0.049541870740891655 -0.12075886397690853
  outer loop
    vertex -246.1488106381117 8.60021735421458 -30.825378321568174
    vertex -246.52757356491497 28.324944271125545 -19.631576260848714
    vertex -246.15261064170127 29.40831486089248 -22.265609446547924
  endloop
endfacet
facet normal -0.991444854651281 0.049541870740891655 -0.12075886397690853
  outer loop
    vertex -246.52757356491497 28.324944271125545 -19.631576260848714
    vertex -246.1488106381117 8.60021735421458 -30.825378321568174
    vertex -246.5237735613254 7.516846764447648 -28.19134513586896
  endloop
endfacet
facet normal -0.9914448526792362 -0.04977003025041012 0.12066502469531383
  outer loop
    vertex -246.5237735613254 7.516846764447648 -28.19134513586896
    vertex -246.15261064170656 27.241575897661054 -16.997542163633145
    vertex -246.52757356491497 28.324944271125545 -19.631576260848714
  endloop
endfacet
facet normal -0.9914448526792362 -0.04977003025041012 0.12066502469531383
  outer loop
    vertex -246.15261064170656 27.241575897661054 -16.997542163633145
    vertex -246.5237735613254 7.516846764447648 -28.19134513586896
    vertex -246.148810638117 6.43347839098317 -25.55731103865339
  endloop
endfacet
facet normal -0.9914448526792362 -0.04977003025041012 0.12066502469531383
  outer loop
    vertex -246.148810638117 6.43347839098317 -25.55731103865339
    vertex -246.5237735613254 7.516846764447648 -28.19134513586896
    vertex -246.34554496102174 6.996918501410145 -26.941377732948858
  endloop
endfacet
facet normal -0.9238795079595564 -0.1457306509659912 0.3538491658057659
  outer loop
    vertex -246.148810638117 6.43347839098317 -25.55731103865339
    vertex -245.05327497570474 26.23203950484129 -14.543012225781036
    vertex -246.15261064170656 27.241575897661054 -16.997542163633145
  endloop
endfacet
facet normal -0.9238795079595564 -0.1457306509659912 0.3538491658057659
  outer loop
    vertex -245.05327497570474 26.23203950484129 -14.543012225781036
    vertex -246.148810638117 6.43347839098317 -25.55731103865339
    vertex -245.04947497211518 5.423941998163388 -23.102781100801277
  endloop
endfacet
facet normal -0.9238795079595564 -0.1457306509659912 0.3538491658057659
  outer loop
    vertex -245.04947497211518 5.423941998163388 -23.102781100801277
    vertex -246.148810638117 6.43347839098317 -25.55731103865339
    vertex -245.77520146240676 6.085419552617847 -24.7251832175264
  endloop
endfacet
facet normal -0.7933533333124284 -0.2316818112842602 0.5629511762507502
  outer loop
    vertex -245.04947497211518 5.423941998163388 -23.102781100801277
    vertex -243.30448447593474 25.36513332951081 -12.435258606282328
    vertex -245.05327497570474 26.23203950484129 -14.543012225781036
  endloop
endfacet
facet normal -0.7933533333124284 -0.2316818112842602 0.5629511762507502
  outer loop
    vertex -243.30448447593474 25.36513332951081 -12.435258606282328
    vertex -245.04947497211518 5.423941998163388 -23.102781100801277
    vertex -243.30068447234518 4.557035822832935 -20.995027481302568
  endloop
endfacet
facet normal -0.6087614245318643 -0.30188469383616845 0.7336723789467464
  outer loop
    vertex -241.02541632505307 24.69993559486234 -10.81792123101611
    vertex -243.30068447234518 4.557035822832935 -20.995027481302568
    vertex -241.0216163214635 3.8918380881844543 -19.37769010603635
  endloop
endfacet
facet normal -0.6087614245318643 -0.30188469383616845 0.7336723789467464
  outer loop
    vertex -243.30068447234518 4.557035822832935 -20.995027481302568
    vertex -241.02541632505307 24.69993559486234 -10.81792123101611
    vertex -243.30448447593474 25.36513332951081 -12.435258606282328
  endloop
endfacet
facet normal -0.3826834303073806 -0.3515146337967295 0.8543950224544425
  outer loop
    vertex -238.3713852512346 24.28177842717347 -9.801218969214343
    vertex -241.0216163214635 3.8918380881844543 -19.37769010603635
    vertex -238.36758524764505 3.473680920495589 -18.360987844234586
  endloop
endfacet
facet normal -0.3826834303073806 -0.3515146337967295 0.8543950224544425
  outer loop
    vertex -241.0216163214635 3.8918380881844543 -19.37769010603635
    vertex -238.3713852512346 24.28177842717347 -9.801218969214343
    vertex -241.02541632505307 24.69993559486234 -10.81792123101611
  endloop
endfacet
facet normal -0.13052619169370105 -0.3771894325517657 0.916892057579962
  outer loop
    vertex -235.52325908609865 24.13915854634248 -9.454438399736672
    vertex -238.36758524764505 3.473680920495589 -18.360987844234586
    vertex -235.5194590825091 3.331061039664577 -18.01420727475691
  endloop
endfacet
facet normal -0.13052619169370105 -0.3771894325517657 0.916892057579962
  outer loop
    vertex -238.36758524764505 3.473680920495589 -18.360987844234586
    vertex -235.52325908609865 24.13915854634248 -9.454438399736672
    vertex -238.3713852512346 24.28177842717347 -9.801218969214343
  endloop
endfacet
facet normal 0.13052619224550577 -0.37715939466573584 0.9169044138585357
  outer loop
    vertex -232.6751329209226 24.281795261546215 -9.801212045283688
    vertex -235.5194590825091 3.331061039664577 -18.01420727475691
    vertex -232.67133291733305 3.473697754868337 -18.360980920303923
  endloop
endfacet
facet normal 0.13052619224550577 -0.37715939466573584 0.9169044138585357
  outer loop
    vertex -235.5194590825091 3.331061039664577 -18.01420727475691
    vertex -232.6751329209226 24.281795261546215 -9.801212045283688
    vertex -235.52325908609865 24.13915854634248 -9.454438399736672
  endloop
endfacet
facet normal 0.3826835983174899 -0.35142654075808283 0.8544311850755366
  outer loop
    vertex -230.02110026603037 24.699878207139154 -10.817946146614274
    vertex -232.67133291733305 3.473697754868337 -18.360980920303923
    vertex -230.0173002624408 3.891780700461255 -19.37771502163451
  endloop
endfacet
facet normal 0.3826835983174899 -0.35142654075808283 0.8544311850755366
  outer loop
    vertex -232.67133291733305 3.473697754868337 -18.360980920303923
    vertex -230.02110026603037 24.699878207139154 -10.817946146614274
    vertex -232.6751329209226 24.281795261546215 -9.801212045283688
  endloop
endfacet
facet normal 0.6083889659221284 -0.3017953697257679 0.7340179977059762
  outer loop
    vertex -228.16656391498864 9.066911956570628 -18.78265033379473
    vertex -230.0173002624408 3.891780700461255 -19.37771502163451
    vertex -228.16493989630712 4.432899361379704 -20.689062539016803
  endloop
endfacet
facet normal 0.6083889659221284 -0.3017953697257679 0.7340179977059762
  outer loop
    vertex -230.0173002624408 3.891780700461255 -19.37771502163451
    vertex -228.16656391498864 9.066911956570628 -18.78265033379473
    vertex -228.16825092484632 25.243558973826147 -12.131630950899265
  endloop
endfacet
facet normal 0.6083889659221284 -0.3017953697257679 0.7340179977059762
  outer loop
    vertex -230.0173002624408 3.891780700461255 -19.37771502163451
    vertex -228.16825092484632 25.243558973826147 -12.131630950899265
    vertex -230.02110026603037 24.699878207139154 -10.817946146614274
  endloop
endfacet
facet normal 0.9999998733816045 0.0002829684393120288 -0.00041613175505497664
  outer loop
    vertex -228.16825092484632 25.243558973826147 -12.131630950899265
    vertex -228.17442331200044 15.238334789022373 -33.785502623648505
    vertex -228.17611032185815 31.41498180627789 -27.134483240753035
  endloop
endfacet
facet normal 0.9999998733816045 0.0002829684393120288 -0.00041613175505497664
  outer loop
    vertex -228.17442331200044 15.238334789022373 -33.785502623648505
    vertex -228.16825092484632 25.243558973826147 -12.131630950899265
    vertex -228.1662451118864 9.153241271594373 -18.991339313601223
  endloop
endfacet
facet normal 0.9999998733816045 0.0002829684393120288 -0.00041613175505497664
  outer loop
    vertex -228.1662451118864 9.153241271594373 -18.991339313601223
    vertex -228.16825092484632 25.243558973826147 -12.131630950899265
    vertex -228.16656391498864 9.066911956570628 -18.78265033379473
  endloop
endfacet
facet normal 0.9999998733816045 0.0002829684393120288 -0.00041613175505497664
  outer loop
    vertex -228.17442331200044 15.238334789022373 -33.785502623648505
    vertex -228.1662451118864 9.153241271594373 -18.991339313601223
    vertex -228.16730148876712 9.796111240642297 -20.555396053690647
  endloop
endfacet
facet normal 0.9999998733816045 0.0002829684393120288 -0.00041613175505497664
  outer loop
    vertex -228.17442331200044 15.238334789022373 -33.785502623648505
    vertex -228.16730148876712 9.796111240642297 -20.555396053690647
    vertex -228.17309928611076 14.24547805886616 -31.380765834655886
  endloop
endfacet
facet normal -0.00012068862962652935 0.9248195622659842 0.38040604974738285
  outer loop
    vertex -238.3713852508743 32.36815832387224 -29.461913724751536
    vertex -228.17611032185815 31.41498180627789 -27.134483240753035
    vertex -235.5232590856983 32.51079503907625 -29.808687370298248
  endloop
endfacet
facet normal -0.00012068862962652935 0.9248195622659842 0.38040604974738285
  outer loop
    vertex -228.17611032185815 31.41498180627789 -27.134483240753035
    vertex -238.3713852508743 32.36815832387224 -29.461913724751536
    vertex -241.02541632479466 31.949985469030384 -28.445217914991357
  endloop
endfacet
facet normal -0.00012068862962652935 0.9248195622659842 0.38040604974738285
  outer loop
    vertex -228.17611032185815 31.41498180627789 -27.134483240753035
    vertex -241.02541632479466 31.949985469030384 -28.445217914991357
    vertex -243.3044844757956 31.284774263497617 -26.8278860801678
  endloop
endfacet
facet normal -0.00012068862962652935 0.9248195622659842 0.38040604974738285
  outer loop
    vertex -228.17611032185815 31.41498180627789 -27.134483240753035
    vertex -243.3044844757956 31.284774263497617 -26.8278860801678
    vertex -228.16825092484632 25.243558973826147 -12.131630950899265
  endloop
endfacet
facet normal -0.00012068862962652935 0.9248195622659842 0.38040604974738285
  outer loop
    vertex -228.16825092484632 25.243558973826147 -12.131630950899265
    vertex -243.3044844757956 31.284774263497617 -26.8278860801678
    vertex -245.05327497565713 30.417857751575387 -24.720136711955004
  endloop
endfacet
facet normal -0.00012068862962652935 0.9248195622659842 0.38040604974738285
  outer loop
    vertex -228.16825092484632 25.243558973826147 -12.131630950899265
    vertex -245.05327497565713 30.417857751575387 -24.720136711955004
    vertex -246.15261064170127 29.40831486089248 -22.265609446547924
  endloop
endfacet
facet normal -0.00012068862962652935 0.9248195622659842 0.38040604974738285
  outer loop
    vertex -228.16825092484632 25.243558973826147 -12.131630950899265
    vertex -246.15261064170127 29.40831486089248 -22.265609446547924
    vertex -246.52757356491497 28.324944271125545 -19.631576260848714
  endloop
endfacet
facet normal -0.00012068862962652935 0.9248195622659842 0.38040604974738285
  outer loop
    vertex -228.16825092484632 25.243558973826147 -12.131630950899265
    vertex -246.52757356491497 28.324944271125545 -19.631576260848714
    vertex -246.15261064170656 27.241575897661054 -16.997542163633145
  endloop
endfacet
facet normal -0.00012068862962652935 0.9248195622659842 0.38040604974738285
  outer loop
    vertex -228.16825092484632 25.243558973826147 -12.131630950899265
    vertex -246.15261064170656 27.241575897661054 -16.997542163633145
    vertex -245.05327497570474 26.23203950484129 -14.543012225781036
  endloop
endfacet
facet normal -0.00012068862962652935 0.9248195622659842 0.38040604974738285
  outer loop
    vertex -228.16825092484632 25.243558973826147 -12.131630950899265
    vertex -245.05327497570474 26.23203950484129 -14.543012225781036
    vertex -243.30448447593474 25.36513332951081 -12.435258606282328
  endloop
endfacet
facet normal -0.00012068862962652935 0.9248195622659842 0.38040604974738285
  outer loop
    vertex -228.16825092484632 25.243558973826147 -12.131630950899265
    vertex -243.30448447593474 25.36513332951081 -12.435258606282328
    vertex -241.02541632505307 24.69993559486234 -10.81792123101611
  endloop
endfacet
facet normal -0.00012068862962652935 0.9248195622659842 0.38040604974738285
  outer loop
    vertex -228.16825092484632 25.243558973826147 -12.131630950899265
    vertex -241.02541632505307 24.69993559486234 -10.81792123101611
    vertex -230.02110026603037 24.699878207139154 -10.817946146614274
  endloop
endfacet
facet normal -0.00012068862962652935 0.9248195622659842 0.38040604974738285
  outer loop
    vertex -230.02110026603037 24.699878207139154 -10.817946146614274
    vertex -241.02541632505307 24.69993559486234 -10.81792123101611
    vertex -232.6751329209226 24.281795261546215 -9.801212045283688
  endloop
endfacet
facet normal -0.00012068862962652935 0.9248195622659842 0.38040604974738285
  outer loop
    vertex -232.6751329209226 24.281795261546215 -9.801212045283688
    vertex -241.02541632505307 24.69993559486234 -10.81792123101611
    vertex -238.3713852512346 24.28177842717347 -9.801218969214343
  endloop
endfacet
facet normal -0.00012068862962652935 0.9248195622659842 0.38040604974738285
  outer loop
    vertex -232.6751329209226 24.281795261546215 -9.801212045283688
    vertex -238.3713852512346 24.28177842717347 -9.801218969214343
    vertex -235.52325908609865 24.13915854634248 -9.454438399736672
  endloop
endfacet
facet normal -3.1955505531444594e-06 0.9248303929774463 0.3803797368616934
  outer loop
    vertex -230.02110186490512 31.950017993417273 -28.445204545976175
    vertex -232.67513292056236 32.36817515824514 -29.461906800820824
    vertex -235.5232590856983 32.51079503907625 -29.808687370298248
  endloop
endfacet
facet normal -3.1955505531444594e-06 0.9248303929774463 0.3803797368616934
  outer loop
    vertex -230.02110186490512 31.950017993417273 -28.445204545976175
    vertex -232.67513292056236 32.36817515824514 -29.461906800820824
    vertex -235.5232590856983 32.51079503907625 -29.808687370298248
  endloop
endfacet
facet normal 0.0029206612037523793 0.9281119544925416 0.372289765728481
  outer loop
    vertex -228.17611032185815 31.41498180627789 -27.134483240753035
    vertex -229.16757176324222 31.700900812548912 -27.839496241194517
    vertex -235.5232590856983 32.51079503907625 -29.808687370298248
  endloop
endfacet
facet normal 1.348832646478807e-07 0.9248351207829351 0.3803682417952319
  outer loop
    vertex -229.16757176324222 31.700900812548912 -27.839496241194517
    vertex -230.02110186490512 31.950017993417273 -28.445204545976175
    vertex -235.5232590856983 32.51079503907625 -29.808687370298248
  endloop
endfacet
facet normal 1.348832646478807e-07 0.9248351207829351 0.3803682417952319
  outer loop
    vertex -229.16757176324222 31.700900812548912 -27.839496241194517
    vertex -230.02110186490512 31.950017993417273 -28.445204545976175
    vertex -235.5232590856983 32.51079503907625 -29.808687370298248
  endloop
endfacet
facet normal 4.2426566803766835e-05 -0.9249037365922105 -0.3802013627510474
  outer loop
    vertex -232.67344591070466 16.191528140989618 -36.11292618371628
    vertex -232.80565911232216 16.008169122129303 -35.6640129643685
    vertex -235.52325908589864 16.144261161626396 -35.99489760236663
  endloop
endfacet
facet normal 4.2426566803766835e-05 -0.9249037365922105 -0.3802013627510474
  outer loop
    vertex -232.80565911232216 16.008169122129303 -35.6640129643685
    vertex -232.67344591070466 16.191528140989618 -36.11292618371628
    vertex -230.01941485504742 15.773370976161756 -35.09622392887164
  endloop
endfacet
facet normal 4.2426566803766835e-05 -0.9249037365922105 -0.3802013627510474
  outer loop
    vertex -232.80565911232216 16.008169122129303 -35.6640129643685
    vertex -230.01941485504742 15.773370976161756 -35.09622392887164
    vertex -230.27325908589867 15.609167451228137 -34.69390829164062
  endloop
endfacet
facet normal 4.2426566803766835e-05 -0.9249037365922105 -0.3802013627510474
  outer loop
    vertex -230.27325908589867 15.609167451228137 -34.69390829164062
    vertex -230.01941485504742 15.773370976161756 -35.09622392887164
    vertex -229.16588475338455 15.52425379529339 -34.49051562408999
  endloop
endfacet
facet normal 4.2426566803766835e-05 -0.9249037365922105 -0.3802013627510474
  outer loop
    vertex -230.27325908589867 15.609167451228137 -34.69390829164062
    vertex -229.16588475338455 15.52425379529339 -34.49051562408999
    vertex -229.4702654516354 15.373347662507769 -34.123664524023475
  endloop
endfacet
facet normal 4.2426566803766835e-05 -0.9249037365922105 -0.3802013627510474
  outer loop
    vertex -229.4702654516354 15.373347662507769 -34.123664524023475
    vertex -229.16588475338455 15.52425379529339 -34.49051562408999
    vertex -228.17442331200044 15.238334789022373 -33.785502623648505
  endloop
endfacet
facet normal 4.2426566803766835e-05 -0.9249037365922105 -0.3802013627510474
  outer loop
    vertex -229.4702654516354 15.373347662507769 -34.123664524023475
    vertex -228.17442331200044 15.238334789022373 -33.785502623648505
    vertex -228.6743011765979 15.143806396406452 -33.55766655540352
  endloop
endfacet
facet normal 4.2426566803766835e-05 -0.9249037365922105 -0.3802013627510474
  outer loop
    vertex -228.6743011765979 15.143806396406452 -33.55766655540352
    vertex -228.17442331200044 15.238334789022373 -33.785502623648505
    vertex -228.17309928611076 14.24547805886616 -31.380765834655886
  endloop
endfacet
facet normal 4.2426566803766835e-05 -0.9249037365922105 -0.3802013627510474
  outer loop
    vertex -228.6743011765979 15.143806396406452 -33.55766655540352
    vertex -228.17309928611076 14.24547805886616 -31.380765834655886
    vertex -228.67316216206837 14.247053147842687 -31.379841553693115
  endloop
endfacet
facet normal 4.2426566803766835e-05 -0.9249037365922105 -0.3802013627510474
  outer loop
    vertex -232.67344591070466 16.191528140989618 -36.11292618371628
    vertex -238.36969824101664 16.191511306616718 -36.112933107647
    vertex -235.52157207584062 16.334148021820727 -36.45970675319371
  endloop
endfacet
facet normal 4.2426566803766835e-05 -0.9249037365922105 -0.3802013627510474
  outer loop
    vertex -238.36969824101664 16.191511306616718 -36.112933107647
    vertex -232.67344591070466 16.191528140989618 -36.11292618371628
    vertex -235.52325908589864 16.144261161626396 -35.99489760236663
  endloop
endfacet
facet normal 4.2426566803766835e-05 -0.9249037365922105 -0.3802013627510474
  outer loop
    vertex -238.36969824101664 16.191511306616718 -36.112933107647
    vertex -235.52325908589864 16.144261161626396 -35.99489760236663
    vertex -238.2408590594751 16.008169122129665 -35.66401296436853
  endloop
endfacet
facet normal 4.2426566803766835e-05 -0.9249037365922105 -0.3802013627510474
  outer loop
    vertex -238.36969824101664 16.191511306616718 -36.112933107647
    vertex -238.2408590594751 16.008169122129665 -35.66401296436853
    vertex -241.023729314937 15.773338451774864 -35.09623729788682
  endloop
endfacet
facet normal 4.2426566803766835e-05 -0.9249037365922105 -0.3802013627510474
  outer loop
    vertex -241.023729314937 15.773338451774864 -35.09623729788682
    vertex -238.2408590594751 16.008169122129665 -35.66401296436853
    vertex -240.77325908589867 15.609167451228137 -34.693908291640604
  endloop
endfacet
facet normal 4.2426566803766835e-05 -0.9249037365922105 -0.3802013627510474
  outer loop
    vertex -241.023729314937 15.773338451774864 -35.09623729788682
    vertex -240.77325908589867 15.609167451228137 -34.693908291640604
    vertex -243.30279746593789 15.108127246242098 -33.47890546306326
  endloop
endfacet
facet normal 4.2426566803766835e-05 -0.9249037365922105 -0.3802013627510474
  outer loop
    vertex -243.30279746593789 15.108127246242098 -33.47890546306326
    vertex -240.77325908589867 15.609167451228137 -34.693908291640604
    vertex -242.71927033012207 15.041173240886968 -33.31292701331682
  endloop
endfacet
facet normal 4.2426566803766835e-05 -0.9249037365922105 -0.3802013627510474
  outer loop
    vertex -243.30279746593789 15.108127246242098 -33.47890546306326
    vertex -242.71927033012207 15.041173240886968 -33.31292701331682
    vertex -242.94788028835734 14.97444745341329 -33.150694614455176
  endloop
endfacet
facet normal 0.9999998870743058 0.0003048145887639804 -0.0003646086155045434
  outer loop
    vertex -228.1740428659152 0.2072557964218725 -35.691065084153976
    vertex -228.17381547105933 -3.899775339193854 -39.11608605798703
    vertex -228.17391499509372 0.4445279133368684 -37.32515827223529
  endloop
endfacet
facet normal 0.9999998870743058 0.0003048145887639804 -0.0003646086155045434
  outer loop
    vertex -228.17381547105933 -3.899775339193854 -39.11608605798703
    vertex -228.1740428659152 0.2072557964218725 -35.691065084153976
    vertex -228.17292426424441 -3.5299977107415046 -38.760954101794574
  endloop
endfacet
facet normal 0.9999998870743058 0.0003048145887639804 -0.0003646086155045434
  outer loop
    vertex -228.17292426424441 -3.5299977107415046 -38.760954101794574
    vertex -228.1740428659152 0.2072557964218725 -35.691065084153976
    vertex -228.17271732178796 -0.06007988744974186 -35.428368801056706
  endloop
endfacet
facet normal 0.00011015048532105877 0.7008908586147996 0.7132685273983984
  outer loop
    vertex -228.1740428659152 0.2072557964218725 -35.691065084153976
    vertex -228.71105684675013 -0.06017282615186667 -35.42819433906675
    vertex -228.17271732178796 -0.06007988744974186 -35.428368801056706
  endloop
endfacet
facet normal 0.00011015048532105877 0.7008908586147996 0.7132685273983984
  outer loop
    vertex -228.71105684675013 -0.06017282615186667 -35.42819433906675
    vertex -228.1740428659152 0.2072557964218725 -35.691065084153976
    vertex -228.71238239087737 0.20716285771975332 -35.69089062216401
  endloop
endfacet
facet normal 0.00035703118361814326 -0.6926893796427139 0.7212359501986338
  outer loop
    vertex -228.71105684675013 -0.06017282615186667 -35.42819433906675
    vertex -228.17292426424441 -3.5299977107415046 -38.760954101794574
    vertex -228.17271732178796 -0.06007988744974186 -35.428368801056706
  endloop
endfacet
facet normal 0.00035703118361814326 -0.6926893796427139 0.7212359501986338
  outer loop
    vertex -228.17292426424441 -3.5299977107415046 -38.760954101794574
    vertex -228.71105684675013 -0.06017282615186667 -35.42819433906675
    vertex -228.17381547105933 -3.899775339193854 -39.11608605798703
  endloop
endfacet
facet normal 0.00035703118361814326 -0.6926893796427139 0.7212359501986338
  outer loop
    vertex -228.17381547105933 -3.899775339193854 -39.11608605798703
    vertex -228.71105684675013 -0.06017282615186667 -35.42819433906675
    vertex -228.7121549960215 -3.899868277895973 -39.11591159599707
  endloop
endfacet
facet normal 0.9999999785599958 9.541170835126148e-06 0.00020685495970301692
  outer loop
    vertex -228.1746148130106 6.29345274913473 -35.38683150393201
    vertex -228.17391499509372 5.104334100707535 -36.719955115580035
    vertex -228.17381543476756 9.761992193240644 -37.34154572101184
  endloop
endfacet
facet normal 0.9999999785599958 9.541170835126148e-06 0.00020685495970301692
  outer loop
    vertex -228.17391499509372 5.104334100707535 -36.719955115580035
    vertex -228.1746148130106 6.29345274913473 -35.38683150393201
    vertex -228.17413579030813 5.156568188779707 -35.382995279376324
  endloop
endfacet
facet normal 0.9999999785599958 9.541170835126148e-06 0.00020685495970301692
  outer loop
    vertex -228.17391499509372 5.104334100707535 -36.719955115580035
    vertex -228.17413579030813 5.156568188779707 -35.382995279376324
    vertex -228.1740830871848 5.123286397414655 -35.38506710761625
  endloop
endfacet
facet normal 0.9999999785599958 9.541170835126148e-06 0.00020685495970301692
  outer loop
    vertex -228.17391499509372 5.104334100707535 -36.719955115580035
    vertex -228.1740830871848 5.123286397414655 -35.38506710761625
    vertex -228.1740428659152 0.2072557964218725 -35.691065084153976
  endloop
endfacet
facet normal 0.9999999785599958 9.541170835126148e-06 0.00020685495970301692
  outer loop
    vertex -228.17391499509372 5.104334100707535 -36.719955115580035
    vertex -228.1740428659152 0.2072557964218725 -35.691065084153976
    vertex -228.17391499509372 0.4445279133368684 -37.32515827223529
  endloop
endfacet
facet normal 1.1379367649451692e-05 -0.06209835249937939 0.9980700348609675
  outer loop
    vertex -228.1740830871848 5.123286397414655 -35.38506710761625
    vertex -228.71238239087737 0.20716285771975332 -35.69089062216401
    vertex -228.1740428659152 0.2072557964218725 -35.691065084153976
  endloop
endfacet
facet normal 1.1379367649451692e-05 -0.06209835249937939 0.9980700348609675
  outer loop
    vertex -228.71238239087737 0.20716285771975332 -35.69089062216401
    vertex -228.1740830871848 5.123286397414655 -35.38506710761625
    vertex -228.17413579030813 5.156568188779707 -35.382995279376324
  endloop
endfacet
facet normal 1.1379367649451692e-05 -0.06209835249937939 0.9980700348609675
  outer loop
    vertex -228.71238239087737 0.20716285771975332 -35.69089062216401
    vertex -228.17413579030813 5.156568188779707 -35.382995279376324
    vertex -228.7123757912359 5.1565610363313406 -35.38312065619501
  endloop
endfacet
facet normal 0.9999915980993196 0.0002721650479771996 -0.004090190332469678
  outer loop
    vertex -228.17258733975254 0.16225050083991802 -35.34784843517085
    vertex -228.1740428659152 0.2072557964218725 -35.691065084153976
    vertex -228.1740830871848 5.123286397414655 -35.38506710761625
  endloop
endfacet
facet normal 0.9999915980993196 0.0002721650479771996 -0.004090190332469678
  outer loop
    vertex -228.1740428659152 0.2072557964218725 -35.691065084153976
    vertex -228.17258733975254 0.16225050083991802 -35.34784843517085
    vertex -228.17271732178796 -0.06007988744974186 -35.428368801056706
  endloop
endfacet
facet normal 0.9999915980993196 0.0002721650479771996 -0.004090190332469678
  outer loop
    vertex -228.17271732178796 -0.06007988744974186 -35.428368801056706
    vertex -228.17258733975254 0.16225050083991802 -35.34784843517085
    vertex -228.17309139082116 0.004999754727224781 -35.36793378915831
  endloop
endfacet
facet normal 0.9999915980993196 0.0002721650479771996 -0.004090190332469678
  outer loop
    vertex -228.17271732178796 -0.06007988744974186 -35.428368801056706
    vertex -228.17309139082116 0.004999754727224781 -35.36793378915831
    vertex -228.17229919775463 -0.07396445870853192 -35.3780195939481
  endloop
endfacet
facet normal 0.0028472037676887303 0.007368635890277114 0.9999687978311234
  outer loop
    vertex -228.1740830871848 5.123286397414655 -35.38506710761625
    vertex -228.71092239802297 0.16210939101108424 -35.345651087664045
    vertex -228.17258733975254 0.16225050083991802 -35.34784843517085
  endloop
endfacet
facet normal 0.0028472037676887303 0.007368635890277114 0.9999687978311234
  outer loop
    vertex -228.71092239802297 0.16210939101108424 -35.345651087664045
    vertex -228.1740830871848 5.123286397414655 -35.38506710761625
    vertex -228.17413579030813 5.156568188779707 -35.382995279376324
  endloop
endfacet
facet normal 0.0028472037676887303 0.007368635890277114 0.9999687978311234
  outer loop
    vertex -228.71092239802297 0.16210939101108424 -35.345651087664045
    vertex -228.17413579030813 5.156568188779707 -35.382995279376324
    vertex -228.7123757912359 5.1565610363313406 -35.38312065619501
  endloop
endfacet
facet normal 0.9999998939857276 0.0002134148567804749 0.0004080228333489236
  outer loop
    vertex -228.17591984326782 9.612344142472493 -33.28590341800352
    vertex -228.1746148130106 6.29345274913473 -35.38683150393201
    vertex -228.1745825169368 10.287570958049407 -35.39372290482477
  endloop
endfacet
facet normal 0.9999998939857276 0.0002134148567804749 0.0004080228333489236
  outer loop
    vertex -228.1746148130106 6.29345274913473 -35.38683150393201
    vertex -228.17591984326782 9.612344142472493 -33.28590341800352
    vertex -228.1748099193916 7.286336754007608 -33.79332681469801
  endloop
endfacet
facet normal 0.9999998939857276 0.0002134148567804749 0.0004080228333489236
  outer loop
    vertex -228.1746148130106 6.29345274913473 -35.38683150393201
    vertex -228.1748099193916 7.286336754007608 -33.79332681469801
    vertex -228.17258733975254 0.16225050083991802 -35.34784843517085
  endloop
endfacet
facet normal 0.9999998939857276 0.0002134148567804749 0.0004080228333489236
  outer loop
    vertex -228.1746148130106 6.29345274913473 -35.38683150393201
    vertex -228.17258733975254 0.16225050083991802 -35.34784843517085
    vertex -228.17413579030813 5.156568188779707 -35.382995279376324
  endloop
endfacet
facet normal 0.9999998939857276 0.0002134148567804749 0.0004080228333489236
  outer loop
    vertex -228.17413579030813 5.156568188779707 -35.382995279376324
    vertex -228.17258733975254 0.16225050083991802 -35.34784843517085
    vertex -228.1740830871848 5.123286397414655 -35.38506710761625
  endloop
endfacet
facet normal 0.0016091198516636823 -0.21306350543586253 0.9770370276425994
  outer loop
    vertex -228.1748099193916 7.286336754007608 -33.79332681469801
    vertex -228.71092239802297 0.16210939101108424 -35.345651087664045
    vertex -228.17258733975254 0.16225050083991802 -35.34784843517085
  endloop
endfacet
facet normal 0.0016091198516636823 -0.21306350543586253 0.9770370276425994
  outer loop
    vertex -228.71092239802297 0.16210939101108424 -35.345651087664045
    vertex -228.1748099193916 7.286336754007608 -33.79332681469801
    vertex -228.17591984326782 9.612344142472493 -33.28590341800352
  endloop
endfacet
facet normal 0.0016091198516636823 -0.21306350543586253 0.9770370276425994
  outer loop
    vertex -228.71092239802297 0.16210939101108424 -35.345651087664045
    vertex -228.17591984326782 9.612344142472493 -33.28590341800352
    vertex -228.7134923223525 9.612270161221158 -33.28611892188598
  endloop
endfacet
facet normal 0.9999999216387586 -7.402977554723652e-06 0.00039581267378200767
  outer loop
    vertex -228.1746148130106 6.29345274913473 -35.38683150393201
    vertex -228.17381543476756 9.761992193240644 -37.34154572101184
    vertex -228.1745825169368 10.287570958049407 -35.39372290482477
  endloop
endfacet
facet normal 0.9999998310218791 0.0004010922283867745 -0.0004208102160623259
  outer loop
    vertex -228.17180104678354 0.7448718576111851 -31.44862918322408
    vertex -228.1748099193916 7.286336754007608 -33.79332681469801
    vertex -228.17591984326782 9.612344142472493 -33.28590341800352
  endloop
endfacet
facet normal 0.9999998310218791 0.0004010922283867745 -0.0004208102160623259
  outer loop
    vertex -228.1748099193916 7.286336754007608 -33.79332681469801
    vertex -228.17180104678354 0.7448718576111851 -31.44862918322408
    vertex -228.17258733975254 0.16225050083991802 -35.34784843517085
  endloop
endfacet
facet normal 0.9999998310218791 0.0004010922283867745 -0.0004208102160623259
  outer loop
    vertex -228.17258733975254 0.16225050083991802 -35.34784843517085
    vertex -228.17180104678354 0.7448718576111851 -31.44862918322408
    vertex -228.17110487720095 0.6911630926256818 -31.733184179078982
  endloop
endfacet
facet normal 0.9999998310218791 0.0004010922283867745 -0.0004208102160623259
  outer loop
    vertex -228.17258733975254 0.16225050083991802 -35.34784843517085
    vertex -228.17110487720095 0.6911630926256818 -31.733184179078982
    vertex -228.17309139082116 0.004999754727224781 -35.36793378915831
  endloop
endfacet
facet normal 0.0006529467956264329 -0.9826367469543291 0.18553866765581747
  outer loop
    vertex -228.17110487720095 0.6911630926256818 -31.733184179078982
    vertex -228.7114264490916 0.0048586448983909845 -35.365736441651514
    vertex -228.17309139082116 0.004999754727224781 -35.36793378915831
  endloop
endfacet
facet normal 0.0006529467956264329 -0.9826367469543291 0.18553866765581747
  outer loop
    vertex -228.7114264490916 0.0048586448983909845 -35.365736441651514
    vertex -228.17110487720095 0.6911630926256818 -31.733184179078982
    vertex -228.7101405547738 0.7447041392388438 -31.448458249229443
  endloop
endfacet
facet normal 0.0006529467956264329 -0.9826367469543291 0.18553866765581747
  outer loop
    vertex -228.7101405547738 0.7447041392388438 -31.448458249229443
    vertex -228.17110487720095 0.6911630926256818 -31.733184179078982
    vertex -228.17180104678354 0.7448718576111851 -31.44862918322408
  endloop
endfacet
facet normal -0.004082026422082092 0.12671068151915146 -0.991931318312534
  outer loop
    vertex -228.17309139082116 0.004999754727224781 -35.36793378915831
    vertex -228.71092239802297 0.16210939101108424 -35.345651087664045
    vertex -228.17258733975254 0.16225050083991802 -35.34784843517085
  endloop
endfacet
facet normal -0.004082026422082092 0.12671068151915146 -0.991931318312534
  outer loop
    vertex -228.71092239802297 0.16210939101108424 -35.345651087664045
    vertex -228.17309139082116 0.004999754727224781 -35.36793378915831
    vertex -228.7114264490916 0.0048586448983909845 -35.365736441651514
  endloop
endfacet
facet normal 0.9999998547881006 0.0003867179607698499 -0.000375330516231311
  outer loop
    vertex -228.17180104678354 0.7448718576111851 -31.44862918322408
    vertex -228.17591984326782 9.612344142472493 -33.28590341800352
    vertex -228.17134271910314 6.08942945511372 -24.720788200535985
  endloop
endfacet
facet normal -0.00019047732154071993 0.9248281102375779 0.380385239241457
  outer loop
    vertex -228.7088423901288 6.089277585984983 -24.72056191180517
    vertex -228.17591984326782 9.612344142472493 -33.28590341800352
    vertex -228.7134923223525 9.612270161221158 -33.28611892188598
  endloop
endfacet
facet normal -0.00019047732154071993 0.9248281102375779 0.380385239241457
  outer loop
    vertex -228.17591984326782 9.612344142472493 -33.28590341800352
    vertex -228.7088423901288 6.089277585984983 -24.72056191180517
    vertex -228.17134271910314 6.08942945511372 -24.720788200535985
  endloop
endfacet
facet normal 0.9999999061688659 -0.00032499051116783087 -0.00028643223829590724
  outer loop
    vertex -228.17309928611076 14.24547805886616 -31.380765834655886
    vertex -228.17134271910314 6.08942945511372 -24.720788200535985
    vertex -228.17591984326782 9.612344142472493 -33.28590341800352
  endloop
endfacet
facet normal 0.9999999061688659 -0.00032499051116783087 -0.00028643223829590724
  outer loop
    vertex -228.17134271910314 6.08942945511372 -24.720788200535985
    vertex -228.17309928611076 14.24547805886616 -31.380765834655886
    vertex -228.17498423115276 4.511249097941438 -20.89373358525835
  endloop
endfacet
facet normal 2.6206668511502147e-05 -0.9248403121104567 -0.38035561834767717
  outer loop
    vertex -232.80565911232216 16.008169122129303 -35.6640129643685
    vertex -238.2408590594751 16.008169122129665 -35.66401296436853
    vertex -235.52325908589864 16.144261161626396 -35.99489760236663
  endloop
endfacet
facet normal 2.6206668511502147e-05 -0.9248403121104567 -0.38035561834767717
  outer loop
    vertex -238.2408590594751 16.008169122129665 -35.66401296436853
    vertex -232.80565911232216 16.008169122129303 -35.6640129643685
    vertex -240.77325908589867 15.609167451228137 -34.693908291640604
  endloop
endfacet
facet normal 2.6206668511502147e-05 -0.9248403121104567 -0.38035561834767717
  outer loop
    vertex -240.77325908589867 15.609167451228137 -34.693908291640604
    vertex -232.80565911232216 16.008169122129303 -35.6640129643685
    vertex -230.27325908589867 15.609167451228137 -34.69390829164062
  endloop
endfacet
facet normal 2.6206668511502147e-05 -0.9248403121104567 -0.38035561834767717
  outer loop
    vertex -240.77325908589867 15.609167451228137 -34.693908291640604
    vertex -230.27325908589867 15.609167451228137 -34.69390829164062
    vertex -228.72740093348614 15.133076465329333 -33.533873054731934
  endloop
endfacet
facet normal 2.6206668511502147e-05 -0.9248403121104567 -0.38035561834767717
  outer loop
    vertex -240.77325908589867 15.609167451228137 -34.693908291640604
    vertex -228.72740093348614 15.133076465329333 -33.533873054731934
    vertex -242.71927033012207 15.041173240886968 -33.31292701331682
  endloop
endfacet
facet normal 2.6206668511502147e-05 -0.9248403121104567 -0.38035561834767717
  outer loop
    vertex -242.71927033012207 15.041173240886968 -33.31292701331682
    vertex -228.72740093348614 15.133076465329333 -33.533873054731934
    vertex -228.70487908539857 14.246231687876273 -31.38016188670478
  endloop
endfacet
facet normal 2.6206668511502147e-05 -0.9248403121104567 -0.38035561834767717
  outer loop
    vertex -242.71927033012207 15.041173240886968 -33.31292701331682
    vertex -228.70487908539857 14.246231687876273 -31.38016188670478
    vertex -242.94788028835734 14.97444745341329 -33.150694614455176
  endloop
endfacet
facet normal 2.6206668511502147e-05 -0.9248403121104567 -0.38035561834767717
  outer loop
    vertex -242.94788028835734 14.97444745341329 -33.150694614455176
    vertex -228.70487908539857 14.246231687876273 -31.38016188670478
    vertex -243.53121701870816 14.68527498634702 -32.44762096343079
  endloop
endfacet
facet normal 2.6206668511502147e-05 -0.9248403121104567 -0.38035561834767717
  outer loop
    vertex -243.53121701870816 14.68527498634702 -32.44762096343079
    vertex -228.70487908539857 14.246231687876273 -31.38016188670478
    vertex -244.41686831814485 14.246238735252735 -31.380179020840973
  endloop
endfacet
facet normal 0.9999587787925427 0.006258317760866638 -0.006578310917786144
  outer loop
    vertex -228.17292426424441 -3.5299977107415046 -38.760954101794574
    vertex -228.17271732178796 -0.06007988744974186 -35.428368801056706
    vertex -228.17229919775463 -0.07396445870853192 -35.3780195939481
  endloop
endfacet
facet normal 0.0003657947780843046 0.9652575900184025 0.2612999255760438
  outer loop
    vertex -228.71105684675013 -0.06017282615186667 -35.42819433906675
    vertex -228.17229919775463 -0.07396445870853192 -35.3780195939481
    vertex -228.17271732178796 -0.06007988744974186 -35.428368801056706
  endloop
endfacet
facet normal 0.0003657947780843046 0.9652575900184025 0.2612999255760438
  outer loop
    vertex -228.17229919775463 -0.07396445870853192 -35.3780195939481
    vertex -228.71105684675013 -0.06017282615186667 -35.42819433906675
    vertex -228.71063425602506 -0.07410556853736007 -35.3758222464413
  endloop
endfacet
facet normal 0.004026442089740217 -0.6990842353123153 0.7150279852578454
  outer loop
    vertex -228.71063425602506 -0.07410556853736007 -35.3758222464413
    vertex -228.17292426424441 -3.5299977107415046 -38.760954101794574
    vertex -228.17229919775463 -0.07396445870853192 -35.3780195939481
  endloop
endfacet
facet normal 0.004026442089740217 -0.6990842353123153 0.7150279852578454
  outer loop
    vertex -228.17292426424441 -3.5299977107415046 -38.760954101794574
    vertex -228.71063425602506 -0.07410556853736007 -35.3758222464413
    vertex -228.17381547105933 -3.899775339193854 -39.11608605798703
  endloop
endfacet
facet normal 0.004026442089740217 -0.6990842353123153 0.7150279852578454
  outer loop
    vertex -228.17381547105933 -3.899775339193854 -39.11608605798703
    vertex -228.71063425602506 -0.07410556853736007 -35.3758222464413
    vertex -228.7121549960215 -3.899868277895973 -39.11591159599707
  endloop
endfacet
facet normal 0.9999432990587982 0.01035112518741134 -0.002500574886207923
  outer loop
    vertex -228.17229919775463 -0.07396445870853192 -35.3780195939481
    vertex -228.17309139082116 0.004999754727224781 -35.36793378915831
    vertex -228.17110487720095 0.6911630926256818 -31.733184179078982
  endloop
endfacet
facet normal -0.004082040687660112 0.12665563732224136 -0.9919383481236732
  outer loop
    vertex -228.71063425602506 -0.07410556853736007 -35.3758222464413
    vertex -228.17309139082116 0.004999754727224781 -35.36793378915831
    vertex -228.17229919775463 -0.07396445870853192 -35.3780195939481
  endloop
endfacet
facet normal -0.004082040687660112 0.12665563732224136 -0.9919383481236732
  outer loop
    vertex -228.17309139082116 0.004999754727224781 -35.36793378915831
    vertex -228.71063425602506 -0.07410556853736007 -35.3758222464413
    vertex -228.7114264490916 0.0048586448983909845 -35.365736441651514
  endloop
endfacet
facet normal 0.0037093936755498466 -0.978883696075638 0.20438431925139958
  outer loop
    vertex -228.17110487720095 0.6911630926256818 -31.733184179078982
    vertex -228.71063425602506 -0.07410556853736007 -35.3758222464413
    vertex -228.17229919775463 -0.07396445870853192 -35.3780195939481
  endloop
endfacet
facet normal 0.0037093936755498466 -0.978883696075638 0.20438431925139958
  outer loop
    vertex -228.71063425602506 -0.07410556853736007 -35.3758222464413
    vertex -228.17110487720095 0.6911630926256818 -31.733184179078982
    vertex -228.7101405547738 0.7447041392388438 -31.448458249229443
  endloop
endfacet
facet normal 0.0037093936755498466 -0.978883696075638 0.20438431925139958
  outer loop
    vertex -228.7101405547738 0.7447041392388438 -31.448458249229443
    vertex -228.17110487720095 0.6911630926256818 -31.733184179078982
    vertex -228.17180104678354 0.7448718576111851 -31.44862918322408
  endloop
endfacet
facet normal 0.706578974893703 0.26943678087792794 -0.6543316997886495
  outer loop
    vertex -242.94788028835734 14.97444745341329 -33.150694614455176
    vertex -243.3011734472564 10.474114651051174 -35.38531766828534
    vertex -243.30279746593789 15.108127246242098 -33.47890546306326
  endloop
endfacet
facet normal 0.706578974893703 0.26943678087792794 -0.6543316997886495
  outer loop
    vertex -243.3011734472564 10.474114651051174 -35.38531766828534
    vertex -242.94788028835734 14.97444745341329 -33.150694614455176
    vertex -242.94625626967584 10.340434858222366 -35.05710681967725
  endloop
endfacet
facet normal 0.793353323442358 -0.23137028684938987 0.5630792968545341
  outer loop
    vertex -243.53121701870816 14.68527498634702 -32.44762096343079
    vertex -242.94625626967584 10.340434858222366 -35.05710681967725
    vertex -242.94788028835734 14.97444745341329 -33.150694614455176
  endloop
endfacet
facet normal 0.793353323442358 -0.23137028684938987 0.5630792968545341
  outer loop
    vertex -242.94625626967584 10.340434858222366 -35.05710681967725
    vertex -243.53121701870816 14.68527498634702 -32.44762096343079
    vertex -243.52959300002667 10.051262391156094 -34.354033168652876
  endloop
endfacet
facet normal 0.7931371657980308 -0.23157285936558683 0.5633004944389035
  outer loop
    vertex -244.41686831814485 14.246238735252735 -31.380179020840973
    vertex -243.52959300002667 10.051262391156094 -34.354033168652876
    vertex -243.53121701870816 14.68527498634702 -32.44762096343079
  endloop
endfacet
facet normal 0.7931371657980308 -0.23157285936558683 0.5633004944389035
  outer loop
    vertex -243.52959300002667 10.051262391156094 -34.354033168652876
    vertex -244.41686831814485 14.246238735252735 -31.380179020840973
    vertex -244.41686831814528 9.607033335462782 -33.28827281546749
  endloop
endfacet
facet normal 0.793353340291006 -0.2315608943053596 0.5630009144553898
  outer loop
    vertex -244.61652582563522 14.146651883649689 -31.139791258426385
    vertex -244.41686831814528 9.607033335462782 -33.28827281546749
    vertex -244.41686831814485 14.246238735252735 -31.380179020840973
  endloop
endfacet
facet normal 0.793353340291006 -0.2315608943053596 0.5630009144553898
  outer loop
    vertex -244.41686831814528 9.607033335462782 -33.28827281546749
    vertex -244.61652582563522 14.146651883649689 -31.139791258426385
    vertex -244.6165258256353 9.50805884782051 -33.04763318925892
  endloop
endfacet
facet normal 0.9239729808651895 -0.14535587784511053 0.35375923932382825
  outer loop
    vertex -245.66548026193382 13.179142274582354 -28.799492984030056
    vertex -244.6165258256353 9.50805884782051 -33.04763318925892
    vertex -244.61652582563522 14.146651883649689 -31.139791258426385
  endloop
endfacet
facet normal 0.9239729808651895 -0.14535587784511053 0.35375923932382825
  outer loop
    vertex -244.6165258256353 9.50805884782051 -33.04763318925892
    vertex -245.66548026193382 13.179142274582354 -28.799492984030056
    vertex -245.6638562432523 8.54512967939143 -30.70590518925214
  endloop
endfacet
facet normal 0.9914447646752053 -0.049362684735955405 0.12083295888864819
  outer loop
    vertex -246.0232590858987 12.142358299314164 -26.2874341532859
    vertex -245.6638562432523 8.54512967939143 -30.70590518925214
    vertex -245.66548026193382 13.179142274582354 -28.799492984030056
  endloop
endfacet
facet normal 0.9914447646752053 -0.049362684735955405 0.12083295888864819
  outer loop
    vertex -245.6638562432523 8.54512967939143 -30.70590518925214
    vertex -246.0232590858987 12.142358299314164 -26.2874341532859
    vertex -246.02163506721718 7.508345704123238 -28.193846358507983
  endloop
endfacet
facet normal 0.9914448373869807 0.04995680281187076 -0.12058794413837229
  outer loop
    vertex -245.66548030158228 11.10695506605521 -23.774807408984376
    vertex -246.02163506721718 7.508345704123238 -28.193846358507983
    vertex -246.0232590858987 12.142358299314164 -26.2874341532859
  endloop
endfacet
facet normal 0.9914448373869807 0.04995680281187076 -0.12058794413837229
  outer loop
    vertex -246.02163506721718 7.508345704123238 -28.193846358507983
    vertex -245.66548030158228 11.10695506605521 -23.774807408984376
    vertex -245.66385628290075 6.472942470864288 -25.68121961420646
  endloop
endfacet
facet normal 0.9241638533450002 0.145457421632202 -0.3532185027184064
  outer loop
    vertex -245.23824959641254 10.714544966326656 -22.820944615209
    vertex -245.66385628290075 6.472942470864288 -25.68121961420646
    vertex -245.66548030158228 11.10695506605521 -23.774807408984376
  endloop
endfacet
facet normal 0.9241638533450002 0.145457421632202 -0.3532185027184064
  outer loop
    vertex -245.66385628290075 6.472942470864288 -25.68121961420646
    vertex -245.23824959641254 10.714544966326656 -22.820944615209
    vertex -245.23824973858524 6.0877001691438215 -24.7239545858003
  endloop
endfacet
facet normal 0.00035214031931224117 -0.38041913508050296 0.9248141206003495
  outer loop
    vertex -245.77682548108825 10.719432147808769 -22.81877101230433
    vertex -248.70871196681048 6.08987239240925 -24.722008082418974
    vertex -245.77520146240676 6.085419552617847 -24.7251832175264
  endloop
endfacet
facet normal 0.00035214031931224117 -0.38041913508050296 0.9248141206003495
  outer loop
    vertex -248.70871196681048 6.08987239240925 -24.722008082418974
    vertex -245.77682548108825 10.719432147808769 -22.81877101230433
    vertex -248.70871196681034 10.714023066440939 -22.820106259547043
  endloop
endfacet
facet normal 0.9999983863651821 -0.0014021499820759127 -0.001123050515222963
  outer loop
    vertex -228.16730148876712 9.796111240642297 -20.555396053690647
    vertex -228.17498423115276 4.511249097941438 -20.89373358525835
    vertex -228.17309928611076 14.24547805886616 -31.380765834655886
  endloop
endfacet
facet normal 0.9999983863651821 -0.0014021499820759127 -0.001123050515222963
  outer loop
    vertex -228.17498423115276 4.511249097941438 -20.89373358525835
    vertex -228.16730148876712 9.796111240642297 -20.555396053690647
    vertex -228.1662451118864 9.153241271594373 -18.991339313601223
  endloop
endfacet
facet normal 0.999768853285413 0.007505113082211997 -0.020147289594229404
  outer loop
    vertex -228.16656391498864 9.066911956570628 -18.78265033379473
    vertex -228.17498423115276 4.511249097941438 -20.89373358525835
    vertex -228.1662451118864 9.153241271594373 -18.991339313601223
  endloop
endfacet
facet normal 0.999768853285413 0.007505113082211997 -0.020147289594229404
  outer loop
    vertex -228.17498423115276 4.511249097941438 -20.89373358525835
    vertex -228.16656391498864 9.066911956570628 -18.78265033379473
    vertex -228.16493989630712 4.432899361379704 -20.689062539016803
  endloop
endfacet
facet normal 0.0006091443036960387 -0.782528723265255 0.6226141872846036
  outer loop
    vertex -232.34577637608982 6.092333106084751 -24.72596085822657
    vertex -245.07125002604175 0.7351580517495854 -31.443789715827716
    vertex -232.34577619636644 0.744703689651063 -31.448457988787165
  endloop
endfacet
facet normal 0.0006091443036960387 -0.782528723265255 0.6226141872846036
  outer loop
    vertex -245.07125002604175 0.7351580517495854 -31.443789715827716
    vertex -232.34577637608982 6.092333106084751 -24.72596085822657
    vertex -245.7337871692257 1.712708349971758 -30.22124044428626
  endloop
endfacet
facet normal 0.999768853285413 0.007505113082211997 -0.020147289594229404
  outer loop
    vertex -228.16656391498864 9.066911956570628 -18.78265033379473
    vertex -228.17498423115276 4.511249097941438 -20.89373358525835
    vertex -228.1662451118864 9.153241271594373 -18.991339313601223
  endloop
endfacet
facet normal 0.999768853285413 0.007505113082211997 -0.020147289594229404
  outer loop
    vertex -228.17498423115276 4.511249097941438 -20.89373358525835
    vertex -228.16656391498864 9.066911956570628 -18.78265033379473
    vertex -228.16493989630712 4.432899361379704 -20.689062539016803
  endloop
endfacet
facet normal 3.320467816421718e-05 -0.9246775911749896 -0.38075103581772196
  outer loop
    vertex -230.0173002624408 3.891780700461255 -19.37771502163451
    vertex -241.0216163214635 3.8918380881844543 -19.37769010603635
    vertex -228.16493989630712 4.432899361379704 -20.689062539016803
  endloop
endfacet
facet normal 3.320467816421718e-05 -0.9246775911749896 -0.38075103581772196
  outer loop
    vertex -241.0216163214635 3.8918380881844543 -19.37769010603635
    vertex -230.0173002624408 3.891780700461255 -19.37771502163451
    vertex -232.67133291733305 3.473697754868337 -18.360980920303923
  endloop
endfacet
facet normal 3.320467816421718e-05 -0.9246775911749896 -0.38075103581772196
  outer loop
    vertex -241.0216163214635 3.8918380881844543 -19.37769010603635
    vertex -232.67133291733305 3.473697754868337 -18.360980920303923
    vertex -238.36758524764505 3.473680920495589 -18.360987844234586
  endloop
endfacet
facet normal 3.320467816421718e-05 -0.9246775911749896 -0.38075103581772196
  outer loop
    vertex -238.36758524764505 3.473680920495589 -18.360987844234586
    vertex -232.67133291733305 3.473697754868337 -18.360980920303923
    vertex -235.5194590825091 3.331061039664577 -18.01420727475691
  endloop
endfacet
facet normal 0.00010692779887516914 -0.9251082136622134 -0.3797035443357812
  outer loop
    vertex -228.16493989630712 4.432899361379704 -20.689062539016803
    vertex -245.04947497211518 5.423941998163388 -23.102781100801277
    vertex -245.77520146240676 6.085419552617847 -24.7251832175264
  endloop
endfacet
facet normal 0.00010692779887516914 -0.9251082136622134 -0.3797035443357812
  outer loop
    vertex -245.04947497211518 5.423941998163388 -23.102781100801277
    vertex -228.16493989630712 4.432899361379704 -20.689062539016803
    vertex -243.30068447234518 4.557035822832935 -20.995027481302568
  endloop
endfacet
facet normal 0.00010692779887516914 -0.9251082136622134 -0.3797035443357812
  outer loop
    vertex -243.30068447234518 4.557035822832935 -20.995027481302568
    vertex -228.16493989630712 4.432899361379704 -20.689062539016803
    vertex -241.0216163214635 3.8918380881844543 -19.37769010603635
  endloop
endfacet
facet normal 0.0002568406809340412 -0.9246925844437863 -0.3807145365067324
  outer loop
    vertex -228.7088423901288 6.089277585984983 -24.72056191180517
    vertex -245.23824973858524 6.0877001691438215 -24.7239545858003
    vertex -232.34577637608982 6.092333106084751 -24.72596085822657
  endloop
endfacet
facet normal 0.0002568406809340412 -0.9246925844437863 -0.3807145365067324
  outer loop
    vertex -228.17498423115276 4.511249097941438 -20.89373358525835
    vertex -228.7088423901288 6.089277585984983 -24.72056191180517
    vertex -228.17134271910314 6.08942945511372 -24.720788200535985
  endloop
endfacet
facet normal 0.0002568406809340412 -0.9246925844437863 -0.3807145365067324
  outer loop
    vertex -245.23824973858524 6.0877001691438215 -24.7239545858003
    vertex -228.16493989630712 4.432899361379704 -20.689062539016803
    vertex -245.77520146240676 6.085419552617847 -24.7251832175264
  endloop
endfacet
facet normal 0.0002568406809340412 -0.9246925844437863 -0.3807145365067324
  outer loop
    vertex -228.16493989630712 4.432899361379704 -20.689062539016803
    vertex -245.23824973858524 6.0877001691438215 -24.7239545858003
    vertex -228.7088423901288 6.089277585984983 -24.72056191180517
  endloop
endfacet
facet normal 0.0002568406809340412 -0.9246925844437863 -0.3807145365067324
  outer loop
    vertex -228.16493989630712 4.432899361379704 -20.689062539016803
    vertex -228.7088423901288 6.089277585984983 -24.72056191180517
    vertex -228.17498423115276 4.511249097941438 -20.89373358525835
  endloop
endfacet
endsolid Uniao - Rolamento v4
