solid Uniao - Rolamento v4
facet normal -0.0 -1.0 0.0
  outer loop
    vertex -338.3631321519615 179.50758421337684 95.65267405955929
    vertex -340.36313215196105 179.50758421337687 100.45267405955906
    vertex -340.3631321519615 179.50758421337684 95.65267405955947
  endloop
endfacet
facet normal -0.0 -1.0 0.0
  outer loop
    vertex -340.36313215196105 179.50758421337687 100.45267405955906
    vertex -338.3631321519615 179.50758421337684 95.65267405955929
    vertex -338.3631321519611 179.50758421337687 100.45267405955887
  endloop
endfacet
facet normal 8.779782456613814e-14 0.0 1.0
  outer loop
    vertex -338.3631321519611 192.25758421337676 100.45267405955887
    vertex -340.36313215196105 179.50758421337687 100.45267405955906
    vertex -338.3631321519611 179.50758421337687 100.45267405955887
  endloop
endfacet
facet normal 8.779782456613814e-14 0.0 1.0
  outer loop
    vertex -340.36313215196105 179.50758421337687 100.45267405955906
    vertex -338.3631321519611 192.25758421337676 100.45267405955887
    vertex -340.36313215196105 192.25758421337676 100.45267405955906
  endloop
endfacet
facet normal 0.0 -1.0 -0.0
  outer loop
    vertex -338.3631321519615 191.25758421337673 96.65267405955929
    vertex -340.36313215196117 191.25758421337673 99.4526740595591
    vertex -340.3631321519614 191.25758421337673 96.65267405955947
  endloop
endfacet
facet normal 0.0 -1.0 -0.0
  outer loop
    vertex -340.36313215196117 191.25758421337673 99.4526740595591
    vertex -338.3631321519615 191.25758421337673 96.65267405955929
    vertex -338.36313215196117 191.25758421337673 99.45267405955892
  endloop
endfacet
facet normal -1.0 0.0 8.779782456613814e-14
  outer loop
    vertex -340.36313215196105 192.25758421337676 100.45267405955906
    vertex -340.36313215196117 191.25758421337673 99.4526740595591
    vertex -340.36313215196105 179.50758421337687 100.45267405955906
  endloop
endfacet
facet normal -1.0 0.0 8.779782456613814e-14
  outer loop
    vertex -340.36313215196117 191.25758421337673 99.4526740595591
    vertex -340.36313215196105 192.25758421337676 100.45267405955906
    vertex -340.3631321519615 192.25758421337676 95.65267405955902
  endloop
endfacet
facet normal -1.0 0.0 8.779782456613814e-14
  outer loop
    vertex -340.36313215196117 191.25758421337673 99.4526740595591
    vertex -340.3631321519615 192.25758421337676 95.65267405955902
    vertex -340.3631321519614 191.25758421337673 96.65267405955947
  endloop
endfacet
facet normal -1.0 0.0 8.779782456613814e-14
  outer loop
    vertex -340.3631321519614 191.25758421337673 96.65267405955947
    vertex -340.3631321519615 192.25758421337676 95.65267405955902
    vertex -340.3631321519614 180.75758421337665 96.65267405955947
  endloop
endfacet
facet normal -1.0 0.0 8.779782456613814e-14
  outer loop
    vertex -340.3631321519614 180.75758421337665 96.65267405955947
    vertex -340.3631321519615 192.25758421337676 95.65267405955902
    vertex -340.3631321519615 179.50758421337684 95.65267405955947
  endloop
endfacet
facet normal -1.0 0.0 8.779782456613814e-14
  outer loop
    vertex -340.36313215196105 179.50758421337687 100.45267405955906
    vertex -340.36313215196117 180.75758421337665 99.4526740595591
    vertex -340.3631321519615 179.50758421337684 95.65267405955947
  endloop
endfacet
facet normal -1.0 0.0 8.779782456613814e-14
  outer loop
    vertex -340.36313215196117 180.75758421337665 99.4526740595591
    vertex -340.36313215196105 179.50758421337687 100.45267405955906
    vertex -340.36313215196117 191.25758421337673 99.4526740595591
  endloop
endfacet
facet normal -1.0 0.0 8.779782456613814e-14
  outer loop
    vertex -340.3631321519615 179.50758421337684 95.65267405955947
    vertex -340.36313215196117 180.75758421337665 99.4526740595591
    vertex -340.3631321519614 180.75758421337665 96.65267405955947
  endloop
endfacet
facet normal 8.779782456613814e-14 0.0 1.0
  outer loop
    vertex -338.3631321519615 191.25758421337673 96.65267405955929
    vertex -340.3631321519614 180.75758421337665 96.65267405955947
    vertex -338.3631321519615 180.75758421337665 96.65267405955929
  endloop
endfacet
facet normal 8.779782456613814e-14 0.0 1.0
  outer loop
    vertex -340.3631321519614 180.75758421337665 96.65267405955947
    vertex -338.3631321519615 191.25758421337673 96.65267405955929
    vertex -340.3631321519614 191.25758421337673 96.65267405955947
  endloop
endfacet
facet normal 0.0 1.0 0.0
  outer loop
    vertex -340.36313215196105 192.25758421337676 100.45267405955906
    vertex -338.3631321519615 192.25758421337676 95.65267405955883
    vertex -340.3631321519615 192.25758421337676 95.65267405955902
  endloop
endfacet
facet normal 0.0 1.0 0.0
  outer loop
    vertex -338.3631321519615 192.25758421337676 95.65267405955883
    vertex -340.36313215196105 192.25758421337676 100.45267405955906
    vertex -338.3631321519611 192.25758421337676 100.45267405955887
  endloop
endfacet
facet normal -8.779782456613812e-14 -4.834228255796253e-14 -1.0
  outer loop
    vertex -340.3631321519615 192.25758421337676 95.65267405955902
    vertex -338.3631321519615 179.50758421337684 95.65267405955929
    vertex -340.3631321519615 179.50758421337684 95.65267405955947
  endloop
endfacet
facet normal -8.779782456613812e-14 -4.834228255796253e-14 -1.0
  outer loop
    vertex -338.3631321519615 179.50758421337684 95.65267405955929
    vertex -340.3631321519615 192.25758421337676 95.65267405955902
    vertex -338.3631321519615 192.25758421337676 95.65267405955883
  endloop
endfacet
facet normal 0.0 1.0 0.0
  outer loop
    vertex -338.36313215196117 180.75758421337665 99.45267405955892
    vertex -340.3631321519614 180.75758421337665 96.65267405955947
    vertex -340.36313215196117 180.75758421337665 99.4526740595591
  endloop
endfacet
facet normal 0.0 1.0 0.0
  outer loop
    vertex -340.3631321519614 180.75758421337665 96.65267405955947
    vertex -338.36313215196117 180.75758421337665 99.45267405955892
    vertex -338.3631321519615 180.75758421337665 96.65267405955929
  endloop
endfacet
facet normal -8.779782456613814e-14 0.0 -1.0
  outer loop
    vertex -340.36313215196117 191.25758421337673 99.4526740595591
    vertex -338.36313215196117 180.75758421337665 99.45267405955892
    vertex -340.36313215196117 180.75758421337665 99.4526740595591
  endloop
endfacet
facet normal -8.779782456613814e-14 0.0 -1.0
  outer loop
    vertex -338.36313215196117 180.75758421337665 99.45267405955892
    vertex -340.36313215196117 191.25758421337673 99.4526740595591
    vertex -338.36313215196117 191.25758421337673 99.45267405955892
  endloop
endfacet
facet normal 1.0 0.0 -8.779782456613814e-14
  outer loop
    vertex -338.3631321519611 179.50758421337687 100.45267405955887
    vertex -338.36313215196117 180.75758421337665 99.45267405955892
    vertex -338.3631321519611 192.25758421337676 100.45267405955887
  endloop
endfacet
facet normal 1.0 0.0 -8.779782456613814e-14
  outer loop
    vertex -338.36313215196117 180.75758421337665 99.45267405955892
    vertex -338.3631321519611 179.50758421337687 100.45267405955887
    vertex -338.3631321519615 179.50758421337684 95.65267405955929
  endloop
endfacet
facet normal 1.0 0.0 -8.779782456613814e-14
  outer loop
    vertex -338.36313215196117 180.75758421337665 99.45267405955892
    vertex -338.3631321519615 179.50758421337684 95.65267405955929
    vertex -338.3631321519615 180.75758421337665 96.65267405955929
  endloop
endfacet
facet normal 1.0 0.0 -8.779782456613814e-14
  outer loop
    vertex -338.3631321519615 180.75758421337665 96.65267405955929
    vertex -338.3631321519615 179.50758421337684 95.65267405955929
    vertex -338.3631321519615 191.25758421337673 96.65267405955929
  endloop
endfacet
facet normal 1.0 0.0 -8.779782456613814e-14
  outer loop
    vertex -338.3631321519611 192.25758421337676 100.45267405955887
    vertex -338.36313215196117 191.25758421337673 99.45267405955892
    vertex -338.3631321519615 192.25758421337676 95.65267405955883
  endloop
endfacet
facet normal 1.0 0.0 -8.779782456613814e-14
  outer loop
    vertex -338.36313215196117 191.25758421337673 99.45267405955892
    vertex -338.3631321519611 192.25758421337676 100.45267405955887
    vertex -338.36313215196117 180.75758421337665 99.45267405955892
  endloop
endfacet
facet normal 1.0 0.0 -8.779782456613814e-14
  outer loop
    vertex -338.3631321519615 192.25758421337676 95.65267405955883
    vertex -338.36313215196117 191.25758421337673 99.45267405955892
    vertex -338.3631321519615 191.25758421337673 96.65267405955929
  endloop
endfacet
facet normal 1.0 0.0 -8.779782456613814e-14
  outer loop
    vertex -338.3631321519615 192.25758421337676 95.65267405955883
    vertex -338.3631321519615 191.25758421337673 96.65267405955929
    vertex -338.3631321519615 179.50758421337684 95.65267405955929
  endloop
endfacet
facet normal 0.0 -0.798777954695024 0.6016259461602654
  outer loop
    vertex -338.3631321519611 187.5945795039536 114.30088047825082
    vertex -340.66313215196107 187.2059516151416 113.78489975610289
    vertex -338.3631321519611 187.2059516151416 113.78489975610289
  endloop
endfacet
facet normal 0.0 -0.798777954695024 0.6016259461602654
  outer loop
    vertex -340.66313215196107 187.2059516151416 113.78489975610289
    vertex -338.3631321519611 187.5945795039536 114.30088047825082
    vertex -340.66313215196107 187.5945795039536 114.30088047825082
  endloop
endfacet
facet normal 0.0 0.3909490276687564 -0.920412330298141
  outer loop
    vertex -338.3631321519611 184.77880014943315 117.90315563815899
    vertex -340.66313215196107 184.1842481640289 117.65061716932186
    vertex -340.66313215196107 184.77880014943315 117.90315563815899
  endloop
endfacet
facet normal 0.0 0.3909490276687564 -0.920412330298141
  outer loop
    vertex -340.66313215196107 184.1842481640289 117.65061716932186
    vertex -338.3631321519611 184.77880014943315 117.90315563815899
    vertex -338.3631321519611 184.1842481640289 117.65061716932186
  endloop
endfacet
facet normal -1.567153037100399e-28 0.7878649866448796 0.6158480030162181
  outer loop
    vertex -340.66313215196107 183.3088681036133 114.262465010211
    vertex -338.3631321519611 183.7066829099208 113.75353365779361
    vertex -340.66313215196107 183.7066829099208 113.75353365779361
  endloop
endfacet
facet normal -1.567153037100399e-28 0.7878649866448796 0.6158480030162181
  outer loop
    vertex -338.3631321519611 183.7066829099208 113.75353365779361
    vertex -340.66313215196107 183.3088681036133 114.262465010211
    vertex -338.3631321519611 183.3088681036133 114.262465010211
  endloop
endfacet
facet normal 0.0 0.9272725088043876 -0.37438709167867534
  outer loop
    vertex -340.66313215196107 183.2866889227995 116.73682164086652
    vertex -338.3631321519611 183.0448488459774 116.137838236394
    vertex -340.66313215196107 183.0448488459774 116.137838236394
  endloop
endfacet
facet normal 0.0 0.9272725088043876 -0.37438709167867534
  outer loop
    vertex -338.3631321519611 183.0448488459774 116.137838236394
    vertex -340.66313215196107 183.2866889227995 116.73682164086652
    vertex -338.3631321519611 183.2866889227995 116.73682164086652
  endloop
endfacet
facet normal 0.0 0.37438709167867534 0.9272725088043876
  outer loop
    vertex -338.3631321519611 184.22266363206873 113.3649057689816
    vertex -340.66313215196107 184.82164703654126 113.12306569215951
    vertex -340.66313215196107 184.22266363206873 113.3649057689816
  endloop
endfacet
facet normal 0.0 0.37438709167867534 0.9272725088043876
  outer loop
    vertex -340.66313215196107 184.82164703654126 113.12306569215951
    vertex -338.3631321519611 184.22266363206873 113.3649057689816
    vertex -338.3631321519611 184.82164703654126 113.12306569215951
  endloop
endfacet
facet normal 1.1243063624526032e-13 0.1305261922201093 0.9914448613738028
  outer loop
    vertex -338.3631321519611 185.44063421337682 120.51885105955878
    vertex -340.6631321519606 186.7347294388896 120.34848019100426
    vertex -340.6631321519606 185.440634213377 120.51885105955901
  endloop
endfacet
facet normal 1.1243063624526032e-13 0.1305261922201093 0.9914448613738028
  outer loop
    vertex -340.6631321519606 186.7347294388896 120.34848019100426
    vertex -338.3631321519611 185.44063421337682 120.51885105955878
    vertex -338.3631321519611 186.7347294388894 120.34848019100407
  endloop
endfacet
facet normal -3.061274794332641e-14 -0.9597422826690364 0.2808820942267906
  outer loop
    vertex -338.3631321519611 180.44063421337643 115.51885105955893
    vertex -340.66313215196067 177.4406342133768 105.26819105955884
    vertex -338.3631321519611 177.44063421337643 105.26819105955884
  endloop
endfacet
facet normal -3.061274794332641e-14 -0.9597422826690364 0.2808820942267906
  outer loop
    vertex -340.66313215196067 177.4406342133768 105.26819105955884
    vertex -338.3631321519611 180.44063421337643 115.51885105955893
    vertex -340.66313215196055 180.44063421337623 115.51885105955911
  endloop
endfacet
facet normal 1.0065227853782042e-13 -0.13052619221998055 0.9914448613738199
  outer loop
    vertex -340.66313215196055 184.14653898786398 120.3484801910044
    vertex -338.3631321519611 185.44063421337682 120.51885105955878
    vertex -340.6631321519606 185.440634213377 120.51885105955901
  endloop
endfacet
facet normal 1.0065227853782042e-13 -0.13052619221998055 0.9914448613738199
  outer loop
    vertex -338.3631321519611 185.44063421337682 120.51885105955878
    vertex -340.66313215196055 184.14653898786398 120.3484801910044
    vertex -338.3631321519611 184.14653898786415 120.34848019100421
  endloop
endfacet
facet normal 0.0 -0.9902350946948757 -0.13940752215942567
  outer loop
    vertex -338.3631321519611 187.82493879197688 116.18068512350206
    vertex -340.66313215196107 187.914990844032 115.54103024037252
    vertex -338.3631321519611 187.914990844032 115.54103024037252
  endloop
endfacet
facet normal 0.0 -0.9902350946948757 -0.13940752215942567
  outer loop
    vertex -340.66313215196107 187.914990844032 115.54103024037252
    vertex -338.3631321519611 187.82493879197688 116.18068512350206
    vertex -340.66313215196107 187.82493879197688 116.18068512350206
  endloop
endfacet
facet normal 0.0 -0.9925749738290074 0.12163437560305636
  outer loop
    vertex -338.3631321519611 187.914990844032 115.54103024037252
    vertex -340.66313215196107 187.8364195807757 114.89986388272332
    vertex -338.3631321519611 187.8364195807757 114.89986388272332
  endloop
endfacet
facet normal 0.0 -0.9925749738290074 0.12163437560305636
  outer loop
    vertex -340.66313215196107 187.8364195807757 114.89986388272332
    vertex -338.3631321519611 187.914990844032 115.54103024037252
    vertex -340.66313215196107 187.914990844032 115.54103024037252
  endloop
endfacet
facet normal 0.0 -0.9204123302981767 -0.39094902766867207
  outer loop
    vertex -338.3631321519611 187.5724003231398 116.77523710890634
    vertex -340.66313215196107 187.82493879197688 116.18068512350206
    vertex -338.3631321519611 187.82493879197688 116.18068512350206
  endloop
endfacet
facet normal 0.0 -0.9204123302981767 -0.39094902766867207
  outer loop
    vertex -340.66313215196107 187.82493879197688 116.18068512350206
    vertex -338.3631321519611 187.5724003231398 116.77523710890634
    vertex -340.66313215196107 187.5724003231398 116.77523710890634
  endloop
endfacet
facet normal 0.0 0.12163437560314207 0.992574973828997
  outer loop
    vertex -338.3631321519611 184.82164703654126 113.12306569215951
    vertex -340.66313215196107 185.46281339419036 113.04449442890316
    vertex -340.66313215196107 184.82164703654126 113.12306569215951
  endloop
endfacet
facet normal 0.0 0.12163437560314207 0.992574973828997
  outer loop
    vertex -340.66313215196107 185.46281339419036 113.04449442890316
    vertex -338.3631321519611 184.82164703654126 113.12306569215951
    vertex -338.3631321519611 185.46281339419036 113.04449442890316
  endloop
endfacet
facet normal -9.023892744155324e-14 -1.0 -0.0
  outer loop
    vertex -338.3631321519613 180.4406342133766 103.26819105955887
    vertex -340.66313215196084 180.44063421337677 101.26819105955887
    vertex -338.3631321519613 180.4406342133766 101.26819105955887
  endloop
endfacet
facet normal -9.023892744155324e-14 -1.0 -0.0
  outer loop
    vertex -340.66313215196084 180.44063421337677 101.26819105955887
    vertex -338.3631321519613 180.4406342133766 103.26819105955887
    vertex -340.66313215196084 180.44063421337677 103.26819105955887
  endloop
endfacet
facet normal 1.0124795371020803e-13 0.991444861373819 0.13052619221998593
  outer loop
    vertex -340.6631321519606 190.44063421337685 115.51885105955861
    vertex -338.3631321519611 190.2702633448221 116.81294628507106
    vertex -338.3631321519611 190.44063421337668 115.51885105955843
  endloop
endfacet
facet normal 1.0124795371020803e-13 0.991444861373819 0.13052619221998593
  outer loop
    vertex -338.3631321519611 190.2702633448221 116.81294628507106
    vertex -340.6631321519606 190.44063421337685 115.51885105955861
    vertex -340.6631321519606 190.27026334482227 116.81294628507123
  endloop
endfacet
facet normal 0.0 0.9925749738289895 -0.12163437560320244
  outer loop
    vertex -340.66313215196107 183.0448488459774 116.137838236394
    vertex -338.3631321519611 182.966277582721 115.49667187874485
    vertex -340.66313215196107 182.966277582721 115.49667187874485
  endloop
endfacet
facet normal 0.0 0.9925749738289895 -0.12163437560320244
  outer loop
    vertex -338.3631321519611 182.966277582721 115.49667187874485
    vertex -340.66313215196107 183.0448488459774 116.137838236394
    vertex -338.3631321519611 183.0448488459774 116.137838236394
  endloop
endfacet
facet normal 1.26517610438163e-13 -0.6087614290086741 0.7933533402912709
  outer loop
    vertex -338.3631321519611 181.90510030744383 119.05438496549168
    vertex -340.66313215196055 182.94063421337648 119.84897807848128
    vertex -340.66313215196055 181.90510030744366 119.05438496549186
  endloop
endfacet
facet normal 1.26517610438163e-13 -0.6087614290086741 0.7933533402912709
  outer loop
    vertex -340.66313215196055 182.94063421337648 119.84897807848128
    vertex -338.3631321519611 181.90510030744383 119.05438496549168
    vertex -338.3631321519611 182.94063421337665 119.8489780784811
  endloop
endfacet
facet normal 0.0 -0.6016259461602654 -0.798777954695024
  outer loop
    vertex -338.3631321519611 187.17458551683228 117.2841684613237
    vertex -340.66313215196107 186.65860479468435 117.67279635013571
    vertex -340.66313215196107 187.17458551683228 117.2841684613237
  endloop
endfacet
facet normal 0.0 -0.6016259461602654 -0.798777954695024
  outer loop
    vertex -340.66313215196107 186.65860479468435 117.67279635013571
    vertex -338.3631321519611 187.17458551683228 117.2841684613237
    vertex -338.3631321519611 186.65860479468435 117.67279635013571
  endloop
endfacet
facet normal 1.124263018721892e-13 -0.9914448613738035 0.1305261922201048
  outer loop
    vertex -338.3631321519611 180.61100508193118 116.81294628507156
    vertex -340.66313215196055 180.44063421337623 115.51885105955911
    vertex -338.3631321519611 180.44063421337643 115.51885105955893
  endloop
endfacet
facet normal 1.124263018721892e-13 -0.9914448613738035 0.1305261922201048
  outer loop
    vertex -340.66313215196055 180.44063421337623 115.51885105955911
    vertex -338.3631321519611 180.61100508193118 116.81294628507156
    vertex -340.66313215196055 180.61100508193095 116.81294628507173
  endloop
endfacet
facet normal 0.0 0.9902350946948565 0.13940752215956267
  outer loop
    vertex -340.66313215196107 182.966277582721 115.49667187874485
    vertex -338.3631321519611 183.0563296347762 114.85701699561531
    vertex -340.66313215196107 183.0563296347762 114.85701699561531
  endloop
endfacet
facet normal 0.0 0.9902350946948565 0.13940752215956267
  outer loop
    vertex -338.3631321519611 183.0563296347762 114.85701699561531
    vertex -340.66313215196107 182.966277582721 115.49667187874485
    vertex -338.3631321519611 182.966277582721 115.49667187874485
  endloop
endfacet
facet normal 1.283324015384311e-13 -0.9238795325112774 0.3826834323651123
  outer loop
    vertex -338.3631321519611 181.11050719445433 118.01885105955894
    vertex -340.66313215196055 180.61100508193095 116.81294628507173
    vertex -338.3631321519611 180.61100508193118 116.81294628507156
  endloop
endfacet
facet normal 1.283324015384311e-13 -0.9238795325112774 0.3826834323651123
  outer loop
    vertex -340.66313215196055 180.61100508193095 116.81294628507173
    vertex -338.3631321519611 181.11050719445433 118.01885105955894
    vertex -340.66313215196055 181.11050719445416 118.01885105955913
  endloop
endfacet
facet normal 1.2651761043816464e-13 -0.793353340291212 0.6087614290087511
  outer loop
    vertex -338.3631321519611 181.90510030744383 119.05438496549168
    vertex -340.66313215196055 181.11050719445416 118.01885105955913
    vertex -338.3631321519611 181.11050719445433 118.01885105955894
  endloop
endfacet
facet normal 1.2651761043816464e-13 -0.793353340291212 0.6087614290087511
  outer loop
    vertex -340.66313215196055 181.11050719445416 118.01885105955913
    vertex -338.3631321519611 181.90510030744383 119.05438496549168
    vertex -340.66313215196055 181.90510030744366 119.05438496549186
  endloop
endfacet
facet normal 1.4920928540269092e-13 0.6087614290087785 0.7933533402911908
  outer loop
    vertex -338.3631321519611 187.9406342133768 119.84897807848087
    vertex -340.6631321519606 188.9761681193097 119.05438496549154
    vertex -340.6631321519606 187.94063421337705 119.84897807848105
  endloop
endfacet
facet normal 1.4920928540269092e-13 0.6087614290087785 0.7933533402911908
  outer loop
    vertex -340.6631321519606 188.9761681193097 119.05438496549154
    vertex -338.3631321519611 187.9406342133768 119.84897807848087
    vertex -338.3631321519611 188.9761681193095 119.05438496549131
  endloop
endfacet
facet normal 0.0 -0.3909490276687564 0.920412330298141
  outer loop
    vertex -338.3631321519611 186.10246827731993 113.13454648095832
    vertex -340.66313215196107 186.69702026272418 113.38708494979547
    vertex -340.66313215196107 186.10246827731993 113.13454648095832
  endloop
endfacet
facet normal 0.0 -0.3909490276687564 0.920412330298141
  outer loop
    vertex -340.66313215196107 186.69702026272418 113.38708494979547
    vertex -338.3631321519611 186.10246827731993 113.13454648095832
    vertex -338.3631321519611 186.69702026272418 113.38708494979547
  endloop
endfacet
facet normal 1.2222007669780426e-13 0.9238795325112913 0.38268343236507935
  outer loop
    vertex -340.6631321519606 190.27026334482227 116.81294628507123
    vertex -338.3631321519611 189.77076123229895 118.0188510595585
    vertex -338.3631321519611 190.2702633448221 116.81294628507106
  endloop
endfacet
facet normal 1.2222007669780426e-13 0.9238795325112913 0.38268343236507935
  outer loop
    vertex -338.3631321519611 189.77076123229895 118.0188510595585
    vertex -340.6631321519606 190.27026334482227 116.81294628507123
    vertex -340.6631321519606 189.77076123229912 118.01885105955873
  endloop
endfacet
facet normal 0.0 -0.13940752215948451 0.9902350946948675
  outer loop
    vertex -338.3631321519611 185.46281339419036 113.04449442890316
    vertex -340.66313215196107 186.10246827731993 113.13454648095832
    vertex -340.66313215196107 185.46281339419036 113.04449442890316
  endloop
endfacet
facet normal 0.0 -0.13940752215948451 0.9902350946948675
  outer loop
    vertex -340.66313215196107 186.10246827731993 113.13454648095832
    vertex -338.3631321519611 185.46281339419036 113.04449442890316
    vertex -338.3631321519611 186.10246827731993 113.13454648095832
  endloop
endfacet
facet normal 1.1791180033789112e-13 -0.3826834323650436 0.9238795325113058
  outer loop
    vertex -338.3631321519611 182.94063421337665 119.8489780784811
    vertex -340.66313215196055 184.14653898786398 120.3484801910044
    vertex -340.66313215196055 182.94063421337648 119.84897807848128
  endloop
endfacet
facet normal 1.1791180033789112e-13 -0.3826834323650436 0.9238795325113058
  outer loop
    vertex -340.66313215196055 184.14653898786398 120.3484801910044
    vertex -338.3631321519611 182.94063421337665 119.8489780784811
    vertex -338.3631321519611 184.14653898786415 120.34848019100421
  endloop
endfacet
facet normal 9.948509259780016e-29 0.9204123302981821 0.3909490276686596
  outer loop
    vertex -340.66313215196107 183.0563296347762 114.85701699561531
    vertex -338.3631321519611 183.3088681036133 114.262465010211
    vertex -340.66313215196107 183.3088681036133 114.262465010211
  endloop
endfacet
facet normal 9.948509259780016e-29 0.9204123302981821 0.3909490276686596
  outer loop
    vertex -338.3631321519611 183.3088681036133 114.262465010211
    vertex -340.66313215196107 183.0563296347762 114.85701699561531
    vertex -338.3631321519611 183.0563296347762 114.85701699561531
  endloop
endfacet
facet normal 0.0 0.6158480030161145 -0.7878649866449607
  outer loop
    vertex -338.3631321519611 184.1842481640289 117.65061716932186
    vertex -340.66313215196107 183.6753168116115 117.25280236301445
    vertex -340.66313215196107 184.1842481640289 117.65061716932186
  endloop
endfacet
facet normal 0.0 0.6158480030161145 -0.7878649866449607
  outer loop
    vertex -340.66313215196107 183.6753168116115 117.25280236301445
    vertex -338.3631321519611 184.1842481640289 117.65061716932186
    vertex -338.3631321519611 183.6753168116115 117.25280236301445
  endloop
endfacet
facet normal 0.0 -0.37438709167867534 -0.9272725088043876
  outer loop
    vertex -338.3631321519611 186.65860479468435 117.67279635013571
    vertex -340.66313215196107 186.05962139021184 117.9146364269578
    vertex -340.66313215196107 186.65860479468435 117.67279635013571
  endloop
endfacet
facet normal 0.0 -0.37438709167867534 -0.9272725088043876
  outer loop
    vertex -340.66313215196107 186.05962139021184 117.9146364269578
    vertex -338.3631321519611 186.65860479468435 117.67279635013571
    vertex -338.3631321519611 186.05962139021184 117.9146364269578
  endloop
endfacet
facet normal 2.004885946854606e-28 -0.6158480030161361 0.7878649866449438
  outer loop
    vertex -338.3631321519611 186.69702026272418 113.38708494979547
    vertex -340.66313215196107 187.2059516151416 113.78489975610289
    vertex -340.66313215196107 186.69702026272418 113.38708494979547
  endloop
endfacet
facet normal 2.004885946854606e-28 -0.6158480030161361 0.7878649866449438
  outer loop
    vertex -340.66313215196107 187.2059516151416 113.78489975610289
    vertex -338.3631321519611 186.69702026272418 113.38708494979547
    vertex -338.3631321519611 187.2059516151416 113.78489975610289
  endloop
endfacet
facet normal 0.0 -0.7878649866448664 -0.615848003016235
  outer loop
    vertex -338.3631321519611 187.17458551683228 117.2841684613237
    vertex -340.66313215196107 187.5724003231398 116.77523710890634
    vertex -338.3631321519611 187.5724003231398 116.77523710890634
  endloop
endfacet
facet normal 0.0 -0.7878649866448664 -0.615848003016235
  outer loop
    vertex -340.66313215196107 187.5724003231398 116.77523710890634
    vertex -338.3631321519611 187.17458551683228 117.2841684613237
    vertex -340.66313215196107 187.17458551683228 117.2841684613237
  endloop
endfacet
facet normal 1.402502668175544e-13 0.7933533402912709 0.6087614290086741
  outer loop
    vertex -340.6631321519606 189.77076123229912 118.01885105955873
    vertex -338.3631321519611 188.9761681193095 119.05438496549131
    vertex -338.3631321519611 189.77076123229895 118.0188510595585
  endloop
endfacet
facet normal 1.402502668175544e-13 0.7933533402912709 0.6087614290086741
  outer loop
    vertex -338.3631321519611 188.9761681193095 119.05438496549131
    vertex -340.6631321519606 189.77076123229912 118.01885105955873
    vertex -340.6631321519606 188.9761681193097 119.05438496549154
  endloop
endfacet
facet normal 0.0 0.6016259461602654 0.798777954695024
  outer loop
    vertex -338.3631321519611 183.7066829099208 113.75353365779361
    vertex -340.66313215196107 184.22266363206873 113.3649057689816
    vertex -340.66313215196107 183.7066829099208 113.75353365779361
  endloop
endfacet
facet normal 0.0 0.6016259461602654 0.798777954695024
  outer loop
    vertex -340.66313215196107 184.22266363206873 113.3649057689816
    vertex -338.3631321519611 183.7066829099208 113.75353365779361
    vertex -338.3631321519611 184.22266363206873 113.3649057689816
  endloop
endfacet
facet normal 1.2653643104315009e-13 0.382683432365115 0.9238795325112765
  outer loop
    vertex -338.3631321519611 186.7347294388894 120.34848019100407
    vertex -340.6631321519606 187.94063421337705 119.84897807848105
    vertex -340.6631321519606 186.7347294388896 120.34848019100426
  endloop
endfacet
facet normal 1.2653643104315009e-13 0.382683432365115 0.9238795325112765
  outer loop
    vertex -340.6631321519606 187.94063421337705 119.84897807848105
    vertex -338.3631321519611 186.7347294388894 120.34848019100407
    vertex -338.3631321519611 187.9406342133768 119.84897807848087
  endloop
endfacet
facet normal 0.0 0.13940752215948451 -0.9902350946948675
  outer loop
    vertex -338.3631321519611 185.41845503256272 117.99320769021416
    vertex -340.66313215196107 184.77880014943315 117.90315563815899
    vertex -340.66313215196107 185.41845503256272 117.99320769021416
  endloop
endfacet
facet normal 0.0 0.13940752215948451 -0.9902350946948675
  outer loop
    vertex -340.66313215196107 184.77880014943315 117.90315563815899
    vertex -338.3631321519611 185.41845503256272 117.99320769021416
    vertex -338.3631321519611 184.77880014943315 117.90315563815899
  endloop
endfacet
facet normal 0.0 0.798777954695024 -0.6016259461602654
  outer loop
    vertex -340.66313215196107 183.6753168116115 117.25280236301445
    vertex -338.3631321519611 183.2866889227995 116.73682164086652
    vertex -340.66313215196107 183.2866889227995 116.73682164086652
  endloop
endfacet
facet normal 0.0 0.798777954695024 -0.6016259461602654
  outer loop
    vertex -338.3631321519611 183.2866889227995 116.73682164086652
    vertex -340.66313215196107 183.6753168116115 117.25280236301445
    vertex -338.3631321519611 183.6753168116115 117.25280236301445
  endloop
endfacet
facet normal 0.0 -0.12163437560314207 -0.992574973828997
  outer loop
    vertex -338.3631321519611 186.05962139021184 117.9146364269578
    vertex -340.66313215196107 185.41845503256272 117.99320769021416
    vertex -340.66313215196107 186.05962139021184 117.9146364269578
  endloop
endfacet
facet normal 0.0 -0.12163437560314207 -0.992574973828997
  outer loop
    vertex -340.66313215196107 185.41845503256272 117.99320769021416
    vertex -338.3631321519611 186.05962139021184 117.9146364269578
    vertex -338.3631321519611 185.41845503256272 117.99320769021416
  endloop
endfacet
facet normal 9.527056431162764e-29 -0.9272725088043829 0.37438709167868744
  outer loop
    vertex -338.3631321519611 187.8364195807757 114.89986388272332
    vertex -340.66313215196107 187.5945795039536 114.30088047825082
    vertex -338.3631321519611 187.5945795039536 114.30088047825082
  endloop
endfacet
facet normal 9.527056431162764e-29 -0.9272725088043829 0.37438709167868744
  outer loop
    vertex -340.66313215196107 187.5945795039536 114.30088047825082
    vertex -338.3631321519611 187.8364195807757 114.89986388272332
    vertex -340.66313215196107 187.8364195807757 114.89986388272332
  endloop
endfacet
facet normal 1.0 -6.585880709919289e-15 -3.79485316370747e-15
  outer loop
    vertex -338.3631321519611 190.44063421337677 101.26819105955887
    vertex -338.3631321519611 186.94063421337682 105.51885105955881
    vertex -338.3631321519611 186.9406342133768 101.26819105955887
  endloop
endfacet
facet normal 1.0 -6.585880709919289e-15 -3.79485316370747e-15
  outer loop
    vertex -338.3631321519611 186.94063421337682 105.51885105955881
    vertex -338.3631321519611 190.44063421337677 101.26819105955887
    vertex -338.3631321519611 189.214990844032 105.51885105955881
  endloop
endfacet
facet normal 1.0 -6.585880709919289e-15 -3.79485316370747e-15
  outer loop
    vertex -338.3631321519611 189.214990844032 105.51885105955881
    vertex -338.3631321519611 190.44063421337677 101.26819105955887
    vertex -338.3631321519611 189.214990844032 109.51885105955883
  endloop
endfacet
facet normal 1.0 -6.585880709919289e-15 -3.79485316370747e-15
  outer loop
    vertex -338.3631321519611 189.214990844032 109.51885105955883
    vertex -338.3631321519611 190.44063421337677 101.26819105955887
    vertex -338.3631321519611 189.77076123229895 118.0188510595585
  endloop
endfacet
facet normal 1.0 -6.585880709919289e-15 -3.79485316370747e-15
  outer loop
    vertex -338.3631321519611 189.77076123229895 118.0188510595585
    vertex -338.3631321519611 190.44063421337677 101.26819105955887
    vertex -338.3631321519611 190.2702633448221 116.81294628507106
  endloop
endfacet
facet normal 1.0 -6.585880709919289e-15 -3.79485316370747e-15
  outer loop
    vertex -338.3631321519611 190.2702633448221 116.81294628507106
    vertex -338.3631321519611 190.44063421337677 101.26819105955887
    vertex -338.3631321519611 190.44063421337668 115.51885105955843
  endloop
endfacet
facet normal 1.0 -6.585880709919289e-15 -3.79485316370747e-15
  outer loop
    vertex -338.3631321519611 190.44063421337668 115.51885105955843
    vertex -338.3631321519611 190.44063421337677 101.26819105955887
    vertex -338.3631321519611 190.44063421337677 103.26819105955884
  endloop
endfacet
facet normal 1.0 -6.585880709919289e-15 -3.79485316370747e-15
  outer loop
    vertex -338.3631321519611 190.44063421337668 115.51885105955843
    vertex -338.3631321519611 190.44063421337677 103.26819105955884
    vertex -338.3631321519611 193.44063421337677 105.26819105955882
  endloop
endfacet
facet normal 1.0 -6.585880709919289e-15 -3.79485316370747e-15
  outer loop
    vertex -338.3631321519611 193.44063421337677 105.26819105955882
    vertex -338.3631321519611 190.44063421337677 103.26819105955884
    vertex -338.3631321519611 193.44063421337677 103.2681910595588
  endloop
endfacet
facet normal 1.0 -6.585880709919289e-15 -3.79485316370747e-15
  outer loop
    vertex -338.3631321519611 181.11050719445433 118.01885105955894
    vertex -338.36313215196134 181.66627758272082 109.51885105955883
    vertex -338.3631321519611 181.90510030744383 119.05438496549168
  endloop
endfacet
facet normal 1.0 -6.585880709919289e-15 -3.79485316370747e-15
  outer loop
    vertex -338.36313215196134 181.66627758272082 109.51885105955883
    vertex -338.3631321519611 181.11050719445433 118.01885105955894
    vertex -338.36313215196134 181.66627758272082 105.51885105955881
  endloop
endfacet
facet normal 1.0 -6.585880709919289e-15 -3.79485316370747e-15
  outer loop
    vertex -338.3631321519611 181.90510030744383 119.05438496549168
    vertex -338.36313215196134 181.66627758272082 109.51885105955883
    vertex -338.3631321519611 183.0563296347762 114.85701699561531
  endloop
endfacet
facet normal 1.0 -6.585880709919289e-15 -3.79485316370747e-15
  outer loop
    vertex -338.3631321519611 183.0563296347762 114.85701699561531
    vertex -338.36313215196134 181.66627758272082 109.51885105955883
    vertex -338.3631321519611 183.3088681036133 114.262465010211
  endloop
endfacet
facet normal 1.0 -6.585880709919289e-15 -3.79485316370747e-15
  outer loop
    vertex -338.3631321519611 183.3088681036133 114.262465010211
    vertex -338.36313215196134 181.66627758272082 109.51885105955883
    vertex -338.3631321519611 183.7066829099208 113.75353365779361
  endloop
endfacet
facet normal 1.0 -6.585880709919289e-15 -3.79485316370747e-15
  outer loop
    vertex -338.3631321519611 183.7066829099208 113.75353365779361
    vertex -338.36313215196134 181.66627758272082 109.51885105955883
    vertex -338.3631321519611 189.214990844032 109.51885105955883
  endloop
endfacet
facet normal 1.0 -6.585880709919289e-15 -3.79485316370747e-15
  outer loop
    vertex -338.3631321519611 181.90510030744383 119.05438496549168
    vertex -338.3631321519611 183.0563296347762 114.85701699561531
    vertex -338.3631321519611 182.966277582721 115.49667187874485
  endloop
endfacet
facet normal 1.0 -6.585880709919289e-15 -3.79485316370747e-15
  outer loop
    vertex -338.3631321519611 181.90510030744383 119.05438496549168
    vertex -338.3631321519611 182.966277582721 115.49667187874485
    vertex -338.3631321519611 182.94063421337665 119.8489780784811
  endloop
endfacet
facet normal 1.0 -6.585880709919289e-15 -3.79485316370747e-15
  outer loop
    vertex -338.3631321519611 183.7066829099208 113.75353365779361
    vertex -338.3631321519611 189.214990844032 109.51885105955883
    vertex -338.3631321519611 184.22266363206873 113.3649057689816
  endloop
endfacet
facet normal 1.0 -6.585880709919289e-15 -3.79485316370747e-15
  outer loop
    vertex -338.3631321519611 184.22266363206873 113.3649057689816
    vertex -338.3631321519611 189.214990844032 109.51885105955883
    vertex -338.3631321519611 184.82164703654126 113.12306569215951
  endloop
endfacet
facet normal 1.0 -6.585880709919289e-15 -3.79485316370747e-15
  outer loop
    vertex -338.3631321519611 184.82164703654126 113.12306569215951
    vertex -338.3631321519611 189.214990844032 109.51885105955883
    vertex -338.3631321519611 185.46281339419036 113.04449442890316
  endloop
endfacet
facet normal 1.0 -6.585880709919289e-15 -3.79485316370747e-15
  outer loop
    vertex -338.3631321519611 185.46281339419036 113.04449442890316
    vertex -338.3631321519611 189.214990844032 109.51885105955883
    vertex -338.3631321519611 186.10246827731993 113.13454648095832
  endloop
endfacet
facet normal 1.0 -6.585880709919289e-15 -3.79485316370747e-15
  outer loop
    vertex -338.3631321519611 186.10246827731993 113.13454648095832
    vertex -338.3631321519611 189.214990844032 109.51885105955883
    vertex -338.3631321519611 186.69702026272418 113.38708494979547
  endloop
endfacet
facet normal 1.0 -6.585880709919289e-15 -3.79485316370747e-15
  outer loop
    vertex -338.3631321519611 186.69702026272418 113.38708494979547
    vertex -338.3631321519611 189.214990844032 109.51885105955883
    vertex -338.3631321519611 187.2059516151416 113.78489975610289
  endloop
endfacet
facet normal 1.0 -6.585880709919289e-15 -3.79485316370747e-15
  outer loop
    vertex -338.3631321519611 187.2059516151416 113.78489975610289
    vertex -338.3631321519611 189.214990844032 109.51885105955883
    vertex -338.3631321519611 187.5945795039536 114.30088047825082
  endloop
endfacet
facet normal 1.0 -6.585880709919289e-15 -3.79485316370747e-15
  outer loop
    vertex -338.3631321519611 187.5945795039536 114.30088047825082
    vertex -338.3631321519611 189.214990844032 109.51885105955883
    vertex -338.3631321519611 187.8364195807757 114.89986388272332
  endloop
endfacet
facet normal 1.0 -6.585880709919289e-15 -3.79485316370747e-15
  outer loop
    vertex -338.3631321519611 187.8364195807757 114.89986388272332
    vertex -338.3631321519611 189.214990844032 109.51885105955883
    vertex -338.3631321519611 187.914990844032 115.54103024037252
  endloop
endfacet
facet normal 1.0 -6.585880709919289e-15 -3.79485316370747e-15
  outer loop
    vertex -338.3631321519611 187.914990844032 115.54103024037252
    vertex -338.3631321519611 189.214990844032 109.51885105955883
    vertex -338.3631321519611 187.9406342133768 119.84897807848087
  endloop
endfacet
facet normal 1.0 -6.585880709919289e-15 -3.79485316370747e-15
  outer loop
    vertex -338.3631321519611 187.9406342133768 119.84897807848087
    vertex -338.3631321519611 189.214990844032 109.51885105955883
    vertex -338.3631321519611 188.9761681193095 119.05438496549131
  endloop
endfacet
facet normal 1.0 -6.585880709919289e-15 -3.79485316370747e-15
  outer loop
    vertex -338.3631321519611 188.9761681193095 119.05438496549131
    vertex -338.3631321519611 189.214990844032 109.51885105955883
    vertex -338.3631321519611 189.77076123229895 118.0188510595585
  endloop
endfacet
facet normal 1.0 -6.585880709919289e-15 -3.79485316370747e-15
  outer loop
    vertex -338.3631321519611 182.94063421337665 119.8489780784811
    vertex -338.3631321519611 183.0448488459774 116.137838236394
    vertex -338.3631321519611 184.14653898786415 120.34848019100421
  endloop
endfacet
facet normal 1.0 -6.585880709919289e-15 -3.79485316370747e-15
  outer loop
    vertex -338.3631321519611 183.0448488459774 116.137838236394
    vertex -338.3631321519611 182.94063421337665 119.8489780784811
    vertex -338.3631321519611 182.966277582721 115.49667187874485
  endloop
endfacet
facet normal 1.0 -6.585880709919289e-15 -3.79485316370747e-15
  outer loop
    vertex -338.3631321519611 184.14653898786415 120.34848019100421
    vertex -338.3631321519611 183.0448488459774 116.137838236394
    vertex -338.3631321519611 183.2866889227995 116.73682164086652
  endloop
endfacet
facet normal 1.0 -6.585880709919289e-15 -3.79485316370747e-15
  outer loop
    vertex -338.3631321519611 184.14653898786415 120.34848019100421
    vertex -338.3631321519611 183.2866889227995 116.73682164086652
    vertex -338.3631321519611 183.6753168116115 117.25280236301445
  endloop
endfacet
facet normal 1.0 -6.585880709919289e-15 -3.79485316370747e-15
  outer loop
    vertex -338.3631321519611 184.14653898786415 120.34848019100421
    vertex -338.3631321519611 183.6753168116115 117.25280236301445
    vertex -338.3631321519611 184.1842481640289 117.65061716932186
  endloop
endfacet
facet normal 1.0 -6.585880709919289e-15 -3.79485316370747e-15
  outer loop
    vertex -338.3631321519611 184.14653898786415 120.34848019100421
    vertex -338.3631321519611 184.1842481640289 117.65061716932186
    vertex -338.3631321519611 185.44063421337682 120.51885105955878
  endloop
endfacet
facet normal 1.0 -6.585880709919289e-15 -3.79485316370747e-15
  outer loop
    vertex -338.3631321519611 185.44063421337682 120.51885105955878
    vertex -338.3631321519611 184.1842481640289 117.65061716932186
    vertex -338.3631321519611 184.77880014943315 117.90315563815899
  endloop
endfacet
facet normal 1.0 -6.585880709919289e-15 -3.79485316370747e-15
  outer loop
    vertex -338.3631321519611 185.44063421337682 120.51885105955878
    vertex -338.3631321519611 184.77880014943315 117.90315563815899
    vertex -338.3631321519611 185.41845503256272 117.99320769021416
  endloop
endfacet
facet normal 1.0 -6.585880709919289e-15 -3.79485316370747e-15
  outer loop
    vertex -338.3631321519611 185.44063421337682 120.51885105955878
    vertex -338.3631321519611 185.41845503256272 117.99320769021416
    vertex -338.3631321519611 186.05962139021184 117.9146364269578
  endloop
endfacet
facet normal 1.0 -6.585880709919289e-15 -3.79485316370747e-15
  outer loop
    vertex -338.3631321519611 185.44063421337682 120.51885105955878
    vertex -338.3631321519611 186.05962139021184 117.9146364269578
    vertex -338.3631321519611 186.7347294388894 120.34848019100407
  endloop
endfacet
facet normal 1.0 -6.585880709919289e-15 -3.79485316370747e-15
  outer loop
    vertex -338.3631321519611 186.7347294388894 120.34848019100407
    vertex -338.3631321519611 186.05962139021184 117.9146364269578
    vertex -338.3631321519611 186.65860479468435 117.67279635013571
  endloop
endfacet
facet normal 1.0 -6.585880709919289e-15 -3.79485316370747e-15
  outer loop
    vertex -338.3631321519611 186.7347294388894 120.34848019100407
    vertex -338.3631321519611 186.65860479468435 117.67279635013571
    vertex -338.3631321519611 187.17458551683228 117.2841684613237
  endloop
endfacet
facet normal 1.0 -6.585880709919289e-15 -3.79485316370747e-15
  outer loop
    vertex -338.3631321519611 186.7347294388894 120.34848019100407
    vertex -338.3631321519611 187.17458551683228 117.2841684613237
    vertex -338.3631321519611 187.9406342133768 119.84897807848087
  endloop
endfacet
facet normal 1.0 -6.585880709919289e-15 -3.79485316370747e-15
  outer loop
    vertex -338.3631321519611 187.9406342133768 119.84897807848087
    vertex -338.3631321519611 187.17458551683228 117.2841684613237
    vertex -338.3631321519611 187.5724003231398 116.77523710890634
  endloop
endfacet
facet normal 1.0 -6.585880709919289e-15 -3.79485316370747e-15
  outer loop
    vertex -338.3631321519611 187.9406342133768 119.84897807848087
    vertex -338.3631321519611 187.5724003231398 116.77523710890634
    vertex -338.3631321519611 187.82493879197688 116.18068512350206
  endloop
endfacet
facet normal 1.0 -6.585880709919289e-15 -3.79485316370747e-15
  outer loop
    vertex -338.3631321519611 187.9406342133768 119.84897807848087
    vertex -338.3631321519611 187.82493879197688 116.18068512350206
    vertex -338.3631321519611 187.914990844032 115.54103024037252
  endloop
endfacet
facet normal 1.0 -6.585880709919289e-15 -3.79485316370747e-15
  outer loop
    vertex -338.3631321519613 180.4406342133766 103.26819105955887
    vertex -338.3631321519611 177.44063421337643 105.26819105955884
    vertex -338.3631321519611 177.44063421337643 103.26819105955887
  endloop
endfacet
facet normal 1.0 -6.585880709919289e-15 -3.79485316370747e-15
  outer loop
    vertex -338.3631321519611 177.44063421337643 105.26819105955884
    vertex -338.3631321519613 180.4406342133766 103.26819105955887
    vertex -338.3631321519611 180.44063421337643 115.51885105955893
  endloop
endfacet
facet normal 1.0 -6.585880709919289e-15 -3.79485316370747e-15
  outer loop
    vertex -338.3631321519611 180.44063421337643 115.51885105955893
    vertex -338.3631321519613 180.4406342133766 103.26819105955887
    vertex -338.3631321519611 180.61100508193118 116.81294628507156
  endloop
endfacet
facet normal 1.0 -6.585880709919289e-15 -3.79485316370747e-15
  outer loop
    vertex -338.3631321519611 183.94063421337674 101.26819105955887
    vertex -338.3631321519613 180.4406342133766 103.26819105955887
    vertex -338.3631321519613 180.4406342133766 101.26819105955887
  endloop
endfacet
facet normal 1.0 -6.585880709919289e-15 -3.79485316370747e-15
  outer loop
    vertex -338.3631321519613 180.4406342133766 103.26819105955887
    vertex -338.3631321519611 183.94063421337674 101.26819105955887
    vertex -338.36313215196134 181.66627758272082 105.51885105955881
  endloop
endfacet
facet normal 1.0 -6.585880709919289e-15 -3.79485316370747e-15
  outer loop
    vertex -338.3631321519613 180.4406342133766 103.26819105955887
    vertex -338.36313215196134 181.66627758272082 105.51885105955881
    vertex -338.3631321519611 180.61100508193118 116.81294628507156
  endloop
endfacet
facet normal 1.0 -6.585880709919289e-15 -3.79485316370747e-15
  outer loop
    vertex -338.3631321519611 180.61100508193118 116.81294628507156
    vertex -338.36313215196134 181.66627758272082 105.51885105955881
    vertex -338.3631321519611 181.11050719445433 118.01885105955894
  endloop
endfacet
facet normal 1.0 -6.585880709919289e-15 -3.79485316370747e-15
  outer loop
    vertex -338.36313215196134 181.66627758272082 105.51885105955881
    vertex -338.3631321519611 183.94063421337674 101.26819105955887
    vertex -338.3631321519611 183.9406342133768 105.51885105955881
  endloop
endfacet
facet normal 0.0 0.0 -1.0
  outer loop
    vertex -340.66313215196067 183.94063421337674 101.26819105955887
    vertex -338.3631321519613 180.4406342133766 101.26819105955887
    vertex -340.66313215196084 180.44063421337677 101.26819105955887
  endloop
endfacet
facet normal 0.0 0.0 -1.0
  outer loop
    vertex -338.3631321519613 180.4406342133766 101.26819105955887
    vertex -340.66313215196067 183.94063421337674 101.26819105955887
    vertex -338.3631321519611 183.94063421337674 101.26819105955887
  endloop
endfacet
facet normal -1.0 3.470799349376949e-15 9.404232191259984e-15
  outer loop
    vertex -340.66313215196055 180.44063421337623 115.51885105955911
    vertex -340.66313215196067 177.4406342133768 103.26819105955887
    vertex -340.66313215196067 177.4406342133768 105.26819105955884
  endloop
endfacet
facet normal -1.0 3.470799349376949e-15 9.404232191259984e-15
  outer loop
    vertex -340.66313215196067 177.4406342133768 103.26819105955887
    vertex -340.66313215196055 180.44063421337623 115.51885105955911
    vertex -340.66313215196084 180.44063421337677 103.26819105955887
  endloop
endfacet
facet normal -1.0 3.470799349376949e-15 9.404232191259984e-15
  outer loop
    vertex -340.66313215196084 180.44063421337677 103.26819105955887
    vertex -340.66313215196055 180.44063421337623 115.51885105955911
    vertex -340.66313215196055 180.61100508193095 116.81294628507173
  endloop
endfacet
facet normal -1.0 3.470799349376949e-15 9.404232191259984e-15
  outer loop
    vertex -340.66313215196084 180.44063421337677 103.26819105955887
    vertex -340.66313215196055 180.61100508193095 116.81294628507173
    vertex -340.66313215196084 180.44063421337677 101.26819105955887
  endloop
endfacet
facet normal -1.0 3.470799349376949e-15 9.404232191259984e-15
  outer loop
    vertex -340.66313215196084 180.44063421337677 101.26819105955887
    vertex -340.66313215196055 180.61100508193095 116.81294628507173
    vertex -340.66313215196095 181.666277582721 105.51885105955881
  endloop
endfacet
facet normal -1.0 3.470799349376949e-15 9.404232191259984e-15
  outer loop
    vertex -340.66313215196084 180.44063421337677 101.26819105955887
    vertex -340.66313215196095 181.666277582721 105.51885105955881
    vertex -340.66313215196067 183.94063421337674 101.26819105955887
  endloop
endfacet
facet normal -1.0 3.470799349376949e-15 9.404232191259984e-15
  outer loop
    vertex -340.66313215196095 181.666277582721 105.51885105955881
    vertex -340.66313215196055 180.61100508193095 116.81294628507173
    vertex -340.66313215196055 181.11050719445416 118.01885105955913
  endloop
endfacet
facet normal -1.0 3.470799349376949e-15 9.404232191259984e-15
  outer loop
    vertex -340.66313215196095 181.666277582721 105.51885105955881
    vertex -340.66313215196055 181.11050719445416 118.01885105955913
    vertex -340.66313215196095 181.666277582721 109.51885105955883
  endloop
endfacet
facet normal -1.0 3.470799349376949e-15 9.404232191259984e-15
  outer loop
    vertex -340.66313215196067 183.94063421337674 101.26819105955887
    vertex -340.66313215196095 181.666277582721 105.51885105955881
    vertex -340.6631321519607 183.9406342133768 105.51885105955881
  endloop
endfacet
facet normal -1.0 3.470799349376949e-15 9.404232191259984e-15
  outer loop
    vertex -340.66313215196055 182.94063421337648 119.84897807848128
    vertex -340.66313215196107 183.0448488459774 116.137838236394
    vertex -340.66313215196107 182.966277582721 115.49667187874485
  endloop
endfacet
facet normal -1.0 3.470799349376949e-15 9.404232191259984e-15
  outer loop
    vertex -340.66313215196107 183.0448488459774 116.137838236394
    vertex -340.66313215196055 182.94063421337648 119.84897807848128
    vertex -340.66313215196055 184.14653898786398 120.3484801910044
  endloop
endfacet
facet normal -1.0 3.470799349376949e-15 9.404232191259984e-15
  outer loop
    vertex -340.66313215196107 183.0448488459774 116.137838236394
    vertex -340.66313215196055 184.14653898786398 120.3484801910044
    vertex -340.66313215196107 183.2866889227995 116.73682164086652
  endloop
endfacet
facet normal -1.0 3.470799349376949e-15 9.404232191259984e-15
  outer loop
    vertex -340.66313215196107 183.2866889227995 116.73682164086652
    vertex -340.66313215196055 184.14653898786398 120.3484801910044
    vertex -340.66313215196107 183.6753168116115 117.25280236301445
  endloop
endfacet
facet normal -1.0 3.470799349376949e-15 9.404232191259984e-15
  outer loop
    vertex -340.66313215196107 183.6753168116115 117.25280236301445
    vertex -340.66313215196055 184.14653898786398 120.3484801910044
    vertex -340.66313215196107 184.1842481640289 117.65061716932186
  endloop
endfacet
facet normal -1.0 3.470799349376949e-15 9.404232191259984e-15
  outer loop
    vertex -340.66313215196107 184.1842481640289 117.65061716932186
    vertex -340.66313215196055 184.14653898786398 120.3484801910044
    vertex -340.6631321519606 185.440634213377 120.51885105955901
  endloop
endfacet
facet normal -1.0 3.470799349376949e-15 9.404232191259984e-15
  outer loop
    vertex -340.66313215196107 184.1842481640289 117.65061716932186
    vertex -340.6631321519606 185.440634213377 120.51885105955901
    vertex -340.66313215196107 184.77880014943315 117.90315563815899
  endloop
endfacet
facet normal -1.0 3.470799349376949e-15 9.404232191259984e-15
  outer loop
    vertex -340.66313215196107 184.77880014943315 117.90315563815899
    vertex -340.6631321519606 185.440634213377 120.51885105955901
    vertex -340.66313215196107 185.41845503256272 117.99320769021416
  endloop
endfacet
facet normal -1.0 3.470799349376949e-15 9.404232191259984e-15
  outer loop
    vertex -340.66313215196107 185.41845503256272 117.99320769021416
    vertex -340.6631321519606 185.440634213377 120.51885105955901
    vertex -340.66313215196107 186.05962139021184 117.9146364269578
  endloop
endfacet
facet normal -1.0 3.470799349376949e-15 9.404232191259984e-15
  outer loop
    vertex -340.66313215196107 186.05962139021184 117.9146364269578
    vertex -340.6631321519606 185.440634213377 120.51885105955901
    vertex -340.6631321519606 186.7347294388896 120.34848019100426
  endloop
endfacet
facet normal -1.0 3.470799349376949e-15 9.404232191259984e-15
  outer loop
    vertex -340.66313215196107 186.05962139021184 117.9146364269578
    vertex -340.6631321519606 186.7347294388896 120.34848019100426
    vertex -340.66313215196107 186.65860479468435 117.67279635013571
  endloop
endfacet
facet normal -1.0 3.470799349376949e-15 9.404232191259984e-15
  outer loop
    vertex -340.66313215196107 186.65860479468435 117.67279635013571
    vertex -340.6631321519606 186.7347294388896 120.34848019100426
    vertex -340.66313215196107 187.17458551683228 117.2841684613237
  endloop
endfacet
facet normal -1.0 3.470799349376949e-15 9.404232191259984e-15
  outer loop
    vertex -340.66313215196107 187.17458551683228 117.2841684613237
    vertex -340.6631321519606 186.7347294388896 120.34848019100426
    vertex -340.6631321519606 187.94063421337705 119.84897807848105
  endloop
endfacet
facet normal -1.0 3.470799349376949e-15 9.404232191259984e-15
  outer loop
    vertex -340.66313215196107 187.17458551683228 117.2841684613237
    vertex -340.6631321519606 187.94063421337705 119.84897807848105
    vertex -340.66313215196107 187.5724003231398 116.77523710890634
  endloop
endfacet
facet normal -1.0 3.470799349376949e-15 9.404232191259984e-15
  outer loop
    vertex -340.66313215196107 187.5724003231398 116.77523710890634
    vertex -340.6631321519606 187.94063421337705 119.84897807848105
    vertex -340.66313215196107 187.82493879197688 116.18068512350206
  endloop
endfacet
facet normal -1.0 3.470799349376949e-15 9.404232191259984e-15
  outer loop
    vertex -340.66313215196107 187.82493879197688 116.18068512350206
    vertex -340.6631321519606 187.94063421337705 119.84897807848105
    vertex -340.66313215196107 187.914990844032 115.54103024037252
  endloop
endfacet
facet normal -1.0 3.470799349376949e-15 9.404232191259984e-15
  outer loop
    vertex -340.66313215196055 181.90510030744366 119.05438496549186
    vertex -340.66313215196095 181.666277582721 109.51885105955883
    vertex -340.66313215196055 181.11050719445416 118.01885105955913
  endloop
endfacet
facet normal -1.0 3.470799349376949e-15 9.404232191259984e-15
  outer loop
    vertex -340.66313215196095 181.666277582721 109.51885105955883
    vertex -340.66313215196055 181.90510030744366 119.05438496549186
    vertex -340.66313215196107 183.0563296347762 114.85701699561531
  endloop
endfacet
facet normal -1.0 3.470799349376949e-15 9.404232191259984e-15
  outer loop
    vertex -340.66313215196095 181.666277582721 109.51885105955883
    vertex -340.66313215196107 183.0563296347762 114.85701699561531
    vertex -340.66313215196107 183.3088681036133 114.262465010211
  endloop
endfacet
facet normal -1.0 3.470799349376949e-15 9.404232191259984e-15
  outer loop
    vertex -340.66313215196095 181.666277582721 109.51885105955883
    vertex -340.66313215196107 183.3088681036133 114.262465010211
    vertex -340.66313215196107 183.7066829099208 113.75353365779361
  endloop
endfacet
facet normal -1.0 3.470799349376949e-15 9.404232191259984e-15
  outer loop
    vertex -340.66313215196095 181.666277582721 109.51885105955883
    vertex -340.66313215196107 183.7066829099208 113.75353365779361
    vertex -340.6631321519607 189.214990844032 109.51885105955883
  endloop
endfacet
facet normal -1.0 3.470799349376949e-15 9.404232191259984e-15
  outer loop
    vertex -340.66313215196107 183.0563296347762 114.85701699561531
    vertex -340.66313215196055 181.90510030744366 119.05438496549186
    vertex -340.66313215196107 182.966277582721 115.49667187874485
  endloop
endfacet
facet normal -1.0 3.470799349376949e-15 9.404232191259984e-15
  outer loop
    vertex -340.66313215196107 182.966277582721 115.49667187874485
    vertex -340.66313215196055 181.90510030744366 119.05438496549186
    vertex -340.66313215196055 182.94063421337648 119.84897807848128
  endloop
endfacet
facet normal -1.0 3.470799349376949e-15 9.404232191259984e-15
  outer loop
    vertex -340.6631321519607 189.214990844032 109.51885105955883
    vertex -340.66313215196107 183.7066829099208 113.75353365779361
    vertex -340.66313215196107 184.22266363206873 113.3649057689816
  endloop
endfacet
facet normal -1.0 3.470799349376949e-15 9.404232191259984e-15
  outer loop
    vertex -340.6631321519607 189.214990844032 109.51885105955883
    vertex -340.66313215196107 184.22266363206873 113.3649057689816
    vertex -340.66313215196107 184.82164703654126 113.12306569215951
  endloop
endfacet
facet normal -1.0 3.470799349376949e-15 9.404232191259984e-15
  outer loop
    vertex -340.6631321519607 189.214990844032 109.51885105955883
    vertex -340.66313215196107 184.82164703654126 113.12306569215951
    vertex -340.66313215196107 185.46281339419036 113.04449442890316
  endloop
endfacet
facet normal -1.0 3.470799349376949e-15 9.404232191259984e-15
  outer loop
    vertex -340.6631321519607 189.214990844032 109.51885105955883
    vertex -340.66313215196107 185.46281339419036 113.04449442890316
    vertex -340.66313215196107 186.10246827731993 113.13454648095832
  endloop
endfacet
facet normal -1.0 3.470799349376949e-15 9.404232191259984e-15
  outer loop
    vertex -340.6631321519607 189.214990844032 109.51885105955883
    vertex -340.66313215196107 186.10246827731993 113.13454648095832
    vertex -340.66313215196107 186.69702026272418 113.38708494979547
  endloop
endfacet
facet normal -1.0 3.470799349376949e-15 9.404232191259984e-15
  outer loop
    vertex -340.6631321519607 189.214990844032 109.51885105955883
    vertex -340.66313215196107 186.69702026272418 113.38708494979547
    vertex -340.66313215196107 187.2059516151416 113.78489975610289
  endloop
endfacet
facet normal -1.0 3.470799349376949e-15 9.404232191259984e-15
  outer loop
    vertex -340.6631321519607 189.214990844032 109.51885105955883
    vertex -340.66313215196107 187.2059516151416 113.78489975610289
    vertex -340.66313215196107 187.5945795039536 114.30088047825082
  endloop
endfacet
facet normal -1.0 3.470799349376949e-15 9.404232191259984e-15
  outer loop
    vertex -340.6631321519607 189.214990844032 109.51885105955883
    vertex -340.66313215196107 187.5945795039536 114.30088047825082
    vertex -340.66313215196107 187.8364195807757 114.89986388272332
  endloop
endfacet
facet normal -1.0 3.470799349376949e-15 9.404232191259984e-15
  outer loop
    vertex -340.6631321519607 189.214990844032 109.51885105955883
    vertex -340.66313215196107 187.8364195807757 114.89986388272332
    vertex -340.66313215196107 187.914990844032 115.54103024037252
  endloop
endfacet
facet normal -1.0 3.470799349376949e-15 9.404232191259984e-15
  outer loop
    vertex -340.6631321519607 189.214990844032 109.51885105955883
    vertex -340.66313215196107 187.914990844032 115.54103024037252
    vertex -340.6631321519606 187.94063421337705 119.84897807848105
  endloop
endfacet
facet normal -1.0 3.470799349376949e-15 9.404232191259984e-15
  outer loop
    vertex -340.6631321519607 189.214990844032 109.51885105955883
    vertex -340.6631321519606 187.94063421337705 119.84897807848105
    vertex -340.6631321519606 188.9761681193097 119.05438496549154
  endloop
endfacet
facet normal -1.0 3.470799349376949e-15 9.404232191259984e-15
  outer loop
    vertex -340.6631321519607 189.214990844032 109.51885105955883
    vertex -340.6631321519606 188.9761681193097 119.05438496549154
    vertex -340.6631321519606 189.77076123229912 118.01885105955873
  endloop
endfacet
facet normal -1.0 3.470799349376949e-15 9.404232191259984e-15
  outer loop
    vertex -340.6631321519607 189.214990844032 109.51885105955883
    vertex -340.6631321519606 189.77076123229912 118.01885105955873
    vertex -340.6631321519607 189.214990844032 105.51885105955881
  endloop
endfacet
facet normal -1.0 3.470799349376949e-15 9.404232191259984e-15
  outer loop
    vertex -340.6631321519606 190.44063421337685 115.51885105955861
    vertex -340.66313215196067 190.44063421337677 103.26819105955884
    vertex -340.6631321519606 190.27026334482227 116.81294628507123
  endloop
endfacet
facet normal -1.0 3.470799349376949e-15 9.404232191259984e-15
  outer loop
    vertex -340.66313215196067 190.44063421337677 103.26819105955884
    vertex -340.6631321519606 190.44063421337685 115.51885105955861
    vertex -340.6631321519607 193.44063421337677 103.2681910595588
  endloop
endfacet
facet normal -1.0 3.470799349376949e-15 9.404232191259984e-15
  outer loop
    vertex -340.6631321519607 193.44063421337677 103.2681910595588
    vertex -340.6631321519606 190.44063421337685 115.51885105955861
    vertex -340.6631321519607 193.44063421337677 105.26819105955882
  endloop
endfacet
facet normal -1.0 3.470799349376949e-15 9.404232191259984e-15
  outer loop
    vertex -340.6631321519607 186.94063421337682 105.51885105955881
    vertex -340.66313215196067 190.44063421337677 101.26819105955887
    vertex -340.66313215196067 186.9406342133768 101.26819105955887
  endloop
endfacet
facet normal -1.0 3.470799349376949e-15 9.404232191259984e-15
  outer loop
    vertex -340.66313215196067 190.44063421337677 101.26819105955887
    vertex -340.6631321519607 186.94063421337682 105.51885105955881
    vertex -340.6631321519607 189.214990844032 105.51885105955881
  endloop
endfacet
facet normal -1.0 3.470799349376949e-15 9.404232191259984e-15
  outer loop
    vertex -340.66313215196067 190.44063421337677 101.26819105955887
    vertex -340.6631321519607 189.214990844032 105.51885105955881
    vertex -340.6631321519606 189.77076123229912 118.01885105955873
  endloop
endfacet
facet normal -1.0 3.470799349376949e-15 9.404232191259984e-15
  outer loop
    vertex -340.66313215196067 190.44063421337677 101.26819105955887
    vertex -340.6631321519606 189.77076123229912 118.01885105955873
    vertex -340.6631321519606 190.27026334482227 116.81294628507123
  endloop
endfacet
facet normal -1.0 3.470799349376949e-15 9.404232191259984e-15
  outer loop
    vertex -340.66313215196067 190.44063421337677 101.26819105955887
    vertex -340.6631321519606 190.27026334482227 116.81294628507123
    vertex -340.66313215196067 190.44063421337677 103.26819105955884
  endloop
endfacet
facet normal 5.5988080247340794e-14 0.959742282669026 0.28088209422682586
  outer loop
    vertex -340.6631321519606 190.44063421337685 115.51885105955861
    vertex -338.3631321519611 193.44063421337677 105.26819105955882
    vertex -340.6631321519607 193.44063421337677 105.26819105955882
  endloop
endfacet
facet normal 5.5988080247340794e-14 0.959742282669026 0.28088209422682586
  outer loop
    vertex -338.3631321519611 193.44063421337677 105.26819105955882
    vertex -340.6631321519606 190.44063421337685 115.51885105955861
    vertex -338.3631321519611 190.44063421337668 115.51885105955843
  endloop
endfacet
facet normal 0.0 0.0 1.0
  outer loop
    vertex -338.3631321519611 186.94063421337682 105.51885105955881
    vertex -340.6631321519607 189.214990844032 105.51885105955881
    vertex -340.6631321519607 186.94063421337682 105.51885105955881
  endloop
endfacet
facet normal 0.0 0.0 1.0
  outer loop
    vertex -340.6631321519607 189.214990844032 105.51885105955881
    vertex -338.3631321519611 186.94063421337682 105.51885105955881
    vertex -338.3631321519611 189.214990844032 105.51885105955881
  endloop
endfacet
facet normal 0.0 -1.0 0.0
  outer loop
    vertex -338.3631321519611 189.214990844032 109.51885105955883
    vertex -340.6631321519607 189.214990844032 105.51885105955881
    vertex -338.3631321519611 189.214990844032 105.51885105955881
  endloop
endfacet
facet normal 0.0 -1.0 0.0
  outer loop
    vertex -340.6631321519607 189.214990844032 105.51885105955881
    vertex -338.3631321519611 189.214990844032 109.51885105955883
    vertex -340.6631321519607 189.214990844032 109.51885105955883
  endloop
endfacet
facet normal 0.0 0.0 -1.0
  outer loop
    vertex -340.6631321519607 189.214990844032 109.51885105955883
    vertex -338.36313215196134 181.66627758272082 109.51885105955883
    vertex -340.66313215196095 181.666277582721 109.51885105955883
  endloop
endfacet
facet normal 0.0 0.0 -1.0
  outer loop
    vertex -338.36313215196134 181.66627758272082 109.51885105955883
    vertex -340.6631321519607 189.214990844032 109.51885105955883
    vertex -338.3631321519611 189.214990844032 109.51885105955883
  endloop
endfacet
facet normal -1.9507094010103269e-31 -1.0 1.3880093187465569e-14
  outer loop
    vertex -338.3631321519611 186.94063421337682 105.51885105955881
    vertex -340.66313215196067 186.9406342133768 101.26819105955887
    vertex -338.3631321519611 186.9406342133768 101.26819105955887
  endloop
endfacet
facet normal -1.9507094010103269e-31 -1.0 1.3880093187465569e-14
  outer loop
    vertex -340.66313215196067 186.9406342133768 101.26819105955887
    vertex -338.3631321519611 186.94063421337682 105.51885105955881
    vertex -340.6631321519607 186.94063421337682 105.51885105955881
  endloop
endfacet
facet normal 1.9507094010103266e-31 1.0 -1.3880093187465569e-14
  outer loop
    vertex -340.6631321519607 183.9406342133768 105.51885105955881
    vertex -338.3631321519611 183.94063421337674 101.26819105955887
    vertex -340.66313215196067 183.94063421337674 101.26819105955887
  endloop
endfacet
facet normal 1.9507094010103266e-31 1.0 -1.3880093187465569e-14
  outer loop
    vertex -338.3631321519611 183.94063421337674 101.26819105955887
    vertex -340.6631321519607 183.9406342133768 105.51885105955881
    vertex -338.3631321519611 183.9406342133768 105.51885105955881
  endloop
endfacet
facet normal 9.023892744155121e-14 1.0 0.0
  outer loop
    vertex -340.66313215196095 181.666277582721 109.51885105955883
    vertex -338.36313215196134 181.66627758272082 105.51885105955881
    vertex -340.66313215196095 181.666277582721 105.51885105955881
  endloop
endfacet
facet normal 9.023892744155121e-14 1.0 0.0
  outer loop
    vertex -338.36313215196134 181.66627758272082 105.51885105955881
    vertex -340.66313215196095 181.666277582721 109.51885105955883
    vertex -338.36313215196134 181.66627758272082 109.51885105955883
  endloop
endfacet
facet normal 0.0 0.0 1.0
  outer loop
    vertex -338.36313215196134 181.66627758272082 105.51885105955881
    vertex -340.6631321519607 183.9406342133768 105.51885105955881
    vertex -340.66313215196095 181.666277582721 105.51885105955881
  endloop
endfacet
facet normal 0.0 0.0 1.0
  outer loop
    vertex -340.6631321519607 183.9406342133768 105.51885105955881
    vertex -338.36313215196134 181.66627758272082 105.51885105955881
    vertex -338.3631321519611 183.9406342133768 105.51885105955881
  endloop
endfacet
facet normal 9.360414987298647e-31 -1.503982124025548e-14 -1.0
  outer loop
    vertex -338.3631321519611 193.44063421337677 103.2681910595588
    vertex -340.66313215196067 190.44063421337677 103.26819105955884
    vertex -340.6631321519607 193.44063421337677 103.2681910595588
  endloop
endfacet
facet normal 9.360414987298647e-31 -1.503982124025548e-14 -1.0
  outer loop
    vertex -340.66313215196067 190.44063421337677 103.26819105955884
    vertex -338.3631321519611 193.44063421337677 103.2681910595588
    vertex -338.3631321519611 190.44063421337677 103.26819105955884
  endloop
endfacet
facet normal 0.0 1.0 0.0
  outer loop
    vertex -340.6631321519607 193.44063421337677 105.26819105955882
    vertex -338.3631321519611 193.44063421337677 103.2681910595588
    vertex -340.6631321519607 193.44063421337677 103.2681910595588
  endloop
endfacet
facet normal 0.0 1.0 0.0
  outer loop
    vertex -338.3631321519611 193.44063421337677 103.2681910595588
    vertex -340.6631321519607 193.44063421337677 105.26819105955882
    vertex -338.3631321519611 193.44063421337677 105.26819105955882
  endloop
endfacet
facet normal 0.0 0.0 -1.0
  outer loop
    vertex -338.3631321519611 190.44063421337677 101.26819105955887
    vertex -340.66313215196067 186.9406342133768 101.26819105955887
    vertex -340.66313215196067 190.44063421337677 101.26819105955887
  endloop
endfacet
facet normal 0.0 0.0 -1.0
  outer loop
    vertex -340.66313215196067 186.9406342133768 101.26819105955887
    vertex -338.3631321519611 190.44063421337677 101.26819105955887
    vertex -338.3631321519611 186.9406342133768 101.26819105955887
  endloop
endfacet
facet normal 0.0 1.0 0.0
  outer loop
    vertex -340.66313215196067 190.44063421337677 103.26819105955884
    vertex -338.3631321519611 190.44063421337677 101.26819105955887
    vertex -340.66313215196067 190.44063421337677 101.26819105955887
  endloop
endfacet
facet normal 0.0 1.0 0.0
  outer loop
    vertex -338.3631321519611 190.44063421337677 101.26819105955887
    vertex -340.66313215196067 190.44063421337677 103.26819105955884
    vertex -338.3631321519611 190.44063421337677 103.26819105955884
  endloop
endfacet
facet normal 0.0 0.0 -1.0
  outer loop
    vertex -338.3631321519613 180.4406342133766 103.26819105955887
    vertex -340.66313215196067 177.4406342133768 103.26819105955887
    vertex -340.66313215196084 180.44063421337677 103.26819105955887
  endloop
endfacet
facet normal 0.0 0.0 -1.0
  outer loop
    vertex -340.66313215196067 177.4406342133768 103.26819105955887
    vertex -338.3631321519613 180.4406342133766 103.26819105955887
    vertex -338.3631321519611 177.44063421337643 103.26819105955887
  endloop
endfacet
facet normal -1.8047785488310648e-13 -1.0 -0.0
  outer loop
    vertex -338.3631321519611 177.44063421337643 105.26819105955884
    vertex -340.66313215196067 177.4406342133768 103.26819105955887
    vertex -338.3631321519611 177.44063421337643 103.26819105955887
  endloop
endfacet
facet normal -1.8047785488310648e-13 -1.0 -0.0
  outer loop
    vertex -340.66313215196067 177.4406342133768 103.26819105955887
    vertex -338.3631321519611 177.44063421337643 105.26819105955884
    vertex -340.66313215196067 177.4406342133768 105.26819105955884
  endloop
endfacet
endsolid Uniao - Rolamento v4
