solid Uniao - Rolamento v4
facet normal 0.0 -1.0 4.2327252813834085e-15
  outer loop
    vertex -231.00217536449784 98.53959718113555 100.37325683104604
    vertex -236.50217536449819 98.53959718113558 102.87325683104598
    vertex -247.00217536449813 98.53959718113555 100.37325683104604
  endloop
endfacet
facet normal 0.0 -1.0 4.2327252813834085e-15
  outer loop
    vertex -236.50217536449819 98.53959718113558 102.87325683104598
    vertex -231.00217536449784 98.53959718113555 100.37325683104604
    vertex -233.73488036449805 98.5395971811356 103.873256831046
  endloop
endfacet
facet normal 0.0 -1.0 4.2327252813834085e-15
  outer loop
    vertex -233.73488036449805 98.5395971811356 103.873256831046
    vertex -231.00217536449784 98.53959718113555 100.37325683104604
    vertex -231.00217536449767 98.53959718113556 110.17325683104558
  endloop
endfacet
facet normal 0.0 -1.0 4.2327252813834085e-15
  outer loop
    vertex -236.50217536449819 98.53959718113558 102.87325683104598
    vertex -233.73488036449805 98.5395971811356 103.873256831046
    vertex -236.50217536449819 98.5395971811356 103.87325683104598
  endloop
endfacet
facet normal 0.0 -1.0 4.2327252813834085e-15
  outer loop
    vertex -233.73488036449805 98.5395971811356 103.873256831046
    vertex -231.00217536449767 98.53959718113556 110.17325683104558
    vertex -233.73488036449805 98.53959718113559 106.67325683104563
  endloop
endfacet
facet normal 0.0 -1.0 4.2327252813834085e-15
  outer loop
    vertex -233.73488036449805 98.53959718113559 106.67325683104563
    vertex -231.00217536449767 98.53959718113556 110.17325683104558
    vertex -236.50217536449819 98.53959718113563 107.6732568310456
  endloop
endfacet
facet normal 0.0 -1.0 4.2327252813834085e-15
  outer loop
    vertex -236.50217536449819 98.53959718113563 107.6732568310456
    vertex -231.00217536449767 98.53959718113556 110.17325683104558
    vertex -241.5021753644982 98.53959718113563 107.67325683104568
  endloop
endfacet
facet normal 0.0 -1.0 4.2327252813834085e-15
  outer loop
    vertex -247.00217536449813 98.53959718113555 100.37325683104604
    vertex -244.23488036449814 98.5395971811356 103.87325683104602
    vertex -247.00217536449802 98.53959718113556 110.1732568310461
  endloop
endfacet
facet normal 0.0 -1.0 4.2327252813834085e-15
  outer loop
    vertex -244.23488036449814 98.5395971811356 103.87325683104602
    vertex -247.00217536449813 98.53959718113555 100.37325683104604
    vertex -241.5021753644982 98.53959718113558 102.87325683104602
  endloop
endfacet
facet normal 0.0 -1.0 4.2327252813834085e-15
  outer loop
    vertex -241.5021753644982 98.53959718113558 102.87325683104602
    vertex -247.00217536449813 98.53959718113555 100.37325683104604
    vertex -236.50217536449819 98.53959718113558 102.87325683104598
  endloop
endfacet
facet normal 0.0 -1.0 4.2327252813834085e-15
  outer loop
    vertex -244.23488036449814 98.5395971811356 103.87325683104602
    vertex -241.5021753644982 98.53959718113558 102.87325683104602
    vertex -241.5021753644982 98.5395971811356 103.87325683104602
  endloop
endfacet
facet normal 0.0 -1.0 4.2327252813834085e-15
  outer loop
    vertex -247.00217536449802 98.53959718113556 110.1732568310461
    vertex -244.23488036449814 98.5395971811356 103.87325683104602
    vertex -244.23488036449814 98.53959718113559 106.67325683104566
  endloop
endfacet
facet normal 0.0 -1.0 4.2327252813834085e-15
  outer loop
    vertex -247.00217536449802 98.53959718113556 110.1732568310461
    vertex -244.23488036449814 98.53959718113559 106.67325683104566
    vertex -241.5021753644982 98.53959718113559 106.67325683104568
  endloop
endfacet
facet normal 0.0 -1.0 4.2327252813834085e-15
  outer loop
    vertex -247.00217536449802 98.53959718113556 110.1732568310461
    vertex -241.5021753644982 98.53959718113559 106.67325683104568
    vertex -241.5021753644982 98.53959718113563 107.67325683104568
  endloop
endfacet
facet normal 0.0 -1.0 4.2327252813834085e-15
  outer loop
    vertex -247.00217536449802 98.53959718113556 110.1732568310461
    vertex -241.5021753644982 98.53959718113563 107.67325683104568
    vertex -231.00217536449767 98.53959718113556 110.17325683104558
  endloop
endfacet
facet normal 0.0 -1.0 4.2327252813834085e-15
  outer loop
    vertex -236.50217536449819 98.53959718113563 107.6732568310456
    vertex -236.50217536449819 98.53959718113559 106.6732568310456
    vertex -233.73488036449805 98.53959718113559 106.67325683104563
  endloop
endfacet
facet normal -1.0 1.0808318847901166e-29 2.55351295663786e-15
  outer loop
    vertex -233.73488036449805 100.53959718113552 106.67325683104555
    vertex -233.73488036449805 98.5395971811356 103.873256831046
    vertex -233.73488036449805 98.53959718113559 106.67325683104563
  endloop
endfacet
facet normal -1.0 1.0808318847901166e-29 2.55351295663786e-15
  outer loop
    vertex -233.73488036449805 98.5395971811356 103.873256831046
    vertex -233.73488036449805 100.53959718113552 106.67325683104555
    vertex -233.73488036449805 100.53959718113555 103.87325683104591
  endloop
endfacet
facet normal 5.089579551460039e-14 4.232725281383396e-15 1.0
  outer loop
    vertex -231.00217536449767 98.53959718113556 110.17325683104558
    vertex -247.00217536449802 100.53959718113558 110.1732568310461
    vertex -247.00217536449802 98.53959718113556 110.1732568310461
  endloop
endfacet
facet normal 5.089579551460039e-14 4.232725281383396e-15 1.0
  outer loop
    vertex -247.00217536449802 100.53959718113558 110.1732568310461
    vertex -231.00217536449767 98.53959718113556 110.17325683104558
    vertex -231.00217536449767 100.5395971811356 110.17325683104556
  endloop
endfacet
facet normal -1.0 1.0808318847901166e-29 2.55351295663786e-15
  outer loop
    vertex -247.00217536449802 98.53959718113556 110.1732568310461
    vertex -247.00217536449813 100.53959718113552 100.37325683104605
    vertex -247.00217536449813 98.53959718113555 100.37325683104604
  endloop
endfacet
facet normal -1.0 1.0808318847901166e-29 2.55351295663786e-15
  outer loop
    vertex -247.00217536449813 100.53959718113552 100.37325683104605
    vertex -247.00217536449802 98.53959718113556 110.1732568310461
    vertex -247.00217536449802 100.53959718113558 110.1732568310461
  endloop
endfacet
facet normal 0.0 1.0 -4.2327252813834085e-15
  outer loop
    vertex -236.50217536449819 100.53959718113562 103.87325683104598
    vertex -233.73488036449805 100.53959718113555 103.87325683104591
    vertex -236.50217536449819 100.53959718113559 102.87325683104598
  endloop
endfacet
facet normal 0.0 1.0 -4.2327252813834085e-15
  outer loop
    vertex -247.00217536449813 100.53959718113552 100.37325683104605
    vertex -244.23488036449814 100.53959718113555 103.87325683104598
    vertex -241.5021753644982 100.53959718113558 102.87325683104598
  endloop
endfacet
facet normal 0.0 1.0 -4.2327252813834085e-15
  outer loop
    vertex -244.23488036449814 100.53959718113555 103.87325683104598
    vertex -247.00217536449813 100.53959718113552 100.37325683104605
    vertex -247.00217536449802 100.53959718113558 110.1732568310461
  endloop
endfacet
facet normal 0.0 1.0 -4.2327252813834085e-15
  outer loop
    vertex -244.23488036449814 100.53959718113555 103.87325683104598
    vertex -247.00217536449802 100.53959718113558 110.1732568310461
    vertex -244.23488036449814 100.53959718113552 106.6732568310456
  endloop
endfacet
facet normal 0.0 1.0 -4.2327252813834085e-15
  outer loop
    vertex -244.23488036449814 100.53959718113552 106.6732568310456
    vertex -247.00217536449802 100.53959718113558 110.1732568310461
    vertex -241.5021753644982 100.53959718113556 106.67325683104563
  endloop
endfacet
facet normal 0.0 1.0 -4.2327252813834085e-15
  outer loop
    vertex -241.5021753644982 100.53959718113556 106.67325683104563
    vertex -247.00217536449802 100.53959718113558 110.1732568310461
    vertex -241.5021753644982 100.5395971811356 107.67325683104563
  endloop
endfacet
facet normal 0.0 1.0 -4.2327252813834085e-15
  outer loop
    vertex -241.5021753644982 100.5395971811356 107.67325683104563
    vertex -247.00217536449802 100.53959718113558 110.1732568310461
    vertex -236.50217536449819 100.53959718113563 107.67325683104563
  endloop
endfacet
facet normal 0.0 1.0 -4.2327252813834085e-15
  outer loop
    vertex -236.50217536449819 100.53959718113563 107.67325683104563
    vertex -247.00217536449802 100.53959718113558 110.1732568310461
    vertex -231.00217536449767 100.5395971811356 110.17325683104556
  endloop
endfacet
facet normal 0.0 1.0 -4.2327252813834085e-15
  outer loop
    vertex -231.00217536449784 100.53959718113552 100.37325683104599
    vertex -233.73488036449805 100.53959718113555 103.87325683104591
    vertex -231.00217536449767 100.5395971811356 110.17325683104556
  endloop
endfacet
facet normal 0.0 1.0 -4.2327252813834085e-15
  outer loop
    vertex -233.73488036449805 100.53959718113555 103.87325683104591
    vertex -231.00217536449784 100.53959718113552 100.37325683104599
    vertex -236.50217536449819 100.53959718113559 102.87325683104598
  endloop
endfacet
facet normal 0.0 1.0 -4.2327252813834085e-15
  outer loop
    vertex -236.50217536449819 100.53959718113559 102.87325683104598
    vertex -231.00217536449784 100.53959718113552 100.37325683104599
    vertex -247.00217536449813 100.53959718113552 100.37325683104605
  endloop
endfacet
facet normal 0.0 1.0 -4.2327252813834085e-15
  outer loop
    vertex -236.50217536449819 100.53959718113559 102.87325683104598
    vertex -247.00217536449813 100.53959718113552 100.37325683104605
    vertex -241.5021753644982 100.53959718113558 102.87325683104598
  endloop
endfacet
facet normal 0.0 1.0 -4.2327252813834085e-15
  outer loop
    vertex -231.00217536449767 100.5395971811356 110.17325683104556
    vertex -233.73488036449805 100.53959718113555 103.87325683104591
    vertex -233.73488036449805 100.53959718113552 106.67325683104555
  endloop
endfacet
facet normal 0.0 1.0 -4.2327252813834085e-15
  outer loop
    vertex -231.00217536449767 100.5395971811356 110.17325683104556
    vertex -233.73488036449805 100.53959718113552 106.67325683104555
    vertex -236.50217536449819 100.53959718113558 106.67325683104563
  endloop
endfacet
facet normal 0.0 1.0 -4.2327252813834085e-15
  outer loop
    vertex -231.00217536449767 100.5395971811356 110.17325683104556
    vertex -236.50217536449819 100.53959718113558 106.67325683104563
    vertex -236.50217536449819 100.53959718113563 107.67325683104563
  endloop
endfacet
facet normal 0.0 1.0 -4.2327252813834085e-15
  outer loop
    vertex -241.5021753644982 100.53959718113559 103.87325683104598
    vertex -241.5021753644982 100.53959718113558 102.87325683104598
    vertex -244.23488036449814 100.53959718113555 103.87325683104598
  endloop
endfacet
facet normal 1.0 -1.0808318847901166e-29 -2.55351295663786e-15
  outer loop
    vertex -244.23488036449814 98.5395971811356 103.87325683104602
    vertex -244.23488036449814 100.53959718113552 106.6732568310456
    vertex -244.23488036449814 98.53959718113559 106.67325683104566
  endloop
endfacet
facet normal 1.0 -1.0808318847901166e-29 -2.55351295663786e-15
  outer loop
    vertex -244.23488036449814 100.53959718113552 106.6732568310456
    vertex -244.23488036449814 98.5395971811356 103.87325683104602
    vertex -244.23488036449814 100.53959718113555 103.87325683104598
  endloop
endfacet
facet normal -2.55351295663786e-15 -4.2327252813834085e-15 -1.0
  outer loop
    vertex -231.00217536449784 100.53959718113552 100.37325683104599
    vertex -247.00217536449813 98.53959718113555 100.37325683104604
    vertex -247.00217536449813 100.53959718113552 100.37325683104605
  endloop
endfacet
facet normal -2.55351295663786e-15 -4.2327252813834085e-15 -1.0
  outer loop
    vertex -247.00217536449813 98.53959718113555 100.37325683104604
    vertex -231.00217536449784 100.53959718113552 100.37325683104599
    vertex -231.00217536449784 98.53959718113555 100.37325683104604
  endloop
endfacet
facet normal 1.0 -1.0808318847901166e-29 -2.55351295663786e-15
  outer loop
    vertex -231.00217536449784 100.53959718113552 100.37325683104599
    vertex -231.00217536449767 98.53959718113556 110.17325683104558
    vertex -231.00217536449784 98.53959718113555 100.37325683104604
  endloop
endfacet
facet normal 1.0 -1.0808318847901166e-29 -2.55351295663786e-15
  outer loop
    vertex -231.00217536449767 98.53959718113556 110.17325683104558
    vertex -231.00217536449784 100.53959718113552 100.37325683104599
    vertex -231.00217536449767 100.5395971811356 110.17325683104556
  endloop
endfacet
facet normal 1.0 4.656023076149994e-29 4.127729092672739e-15
  outer loop
    vertex -241.5021753644982 100.53959718113558 102.87325683104598
    vertex -241.5021753644982 98.5395971811356 103.87325683104602
    vertex -241.5021753644982 98.53959718113558 102.87325683104602
  endloop
endfacet
facet normal 1.0 4.656023076149994e-29 4.127729092672739e-15
  outer loop
    vertex -241.5021753644982 98.5395971811356 103.87325683104602
    vertex -241.5021753644982 100.53959718113558 102.87325683104598
    vertex -241.5021753644982 100.53959718113559 103.87325683104598
  endloop
endfacet
facet normal -6.767919558114892e-15 -5.639932965095805e-15 -1.0
  outer loop
    vertex -236.50217536449819 100.53959718113563 107.67325683104563
    vertex -241.5021753644982 98.53959718113563 107.67325683104568
    vertex -241.5021753644982 100.5395971811356 107.67325683104563
  endloop
endfacet
facet normal -6.767919558114892e-15 -5.639932965095805e-15 -1.0
  outer loop
    vertex -241.5021753644982 98.53959718113563 107.67325683104568
    vertex -236.50217536449819 100.53959718113563 107.67325683104563
    vertex -236.50217536449819 98.53959718113563 107.6732568310456
  endloop
endfacet
facet normal 4.511946372076577e-15 1.1279865930191546e-14 1.0
  outer loop
    vertex -236.50217536449819 98.53959718113558 102.87325683104598
    vertex -241.5021753644982 100.53959718113558 102.87325683104598
    vertex -241.5021753644982 98.53959718113558 102.87325683104602
  endloop
endfacet
facet normal 4.511946372076577e-15 1.1279865930191546e-14 1.0
  outer loop
    vertex -241.5021753644982 100.53959718113558 102.87325683104598
    vertex -236.50217536449819 98.53959718113558 102.87325683104598
    vertex -236.50217536449819 100.53959718113559 102.87325683104598
  endloop
endfacet
facet normal -4.127729092672739e-15 1.6919798895287544e-14 1.0
  outer loop
    vertex -241.5021753644982 98.5395971811356 103.87325683104602
    vertex -244.23488036449814 100.53959718113555 103.87325683104598
    vertex -244.23488036449814 98.5395971811356 103.87325683104602
  endloop
endfacet
facet normal -4.127729092672739e-15 1.6919798895287544e-14 1.0
  outer loop
    vertex -244.23488036449814 100.53959718113555 103.87325683104598
    vertex -241.5021753644982 98.5395971811356 103.87325683104602
    vertex -241.5021753644982 100.53959718113559 103.87325683104598
  endloop
endfacet
facet normal 1.0 9.312046152299886e-29 8.255458185345291e-15
  outer loop
    vertex -241.5021753644982 100.53959718113556 106.67325683104563
    vertex -241.5021753644982 98.53959718113563 107.67325683104568
    vertex -241.5021753644982 98.53959718113559 106.67325683104568
  endloop
endfacet
facet normal 1.0 9.312046152299886e-29 8.255458185345291e-15
  outer loop
    vertex -241.5021753644982 98.53959718113563 107.67325683104568
    vertex -241.5021753644982 100.53959718113556 106.67325683104563
    vertex -241.5021753644982 100.5395971811356 107.67325683104563
  endloop
endfacet
facet normal 8.255458185345291e-15 -1.1279865930191866e-14 -1.0
  outer loop
    vertex -241.5021753644982 100.53959718113556 106.67325683104563
    vertex -244.23488036449814 98.53959718113559 106.67325683104566
    vertex -244.23488036449814 100.53959718113552 106.6732568310456
  endloop
endfacet
facet normal 8.255458185345291e-15 -1.1279865930191866e-14 -1.0
  outer loop
    vertex -244.23488036449814 98.53959718113559 106.67325683104566
    vertex -241.5021753644982 100.53959718113556 106.67325683104563
    vertex -241.5021753644982 98.53959718113559 106.67325683104568
  endloop
endfacet
facet normal -1.0 4.5978247856877004e-29 4.076134250302786e-15
  outer loop
    vertex -236.50217536449819 98.5395971811356 103.87325683104598
    vertex -236.50217536449819 100.53959718113559 102.87325683104598
    vertex -236.50217536449819 98.53959718113558 102.87325683104598
  endloop
endfacet
facet normal -1.0 4.5978247856877004e-29 4.076134250302786e-15
  outer loop
    vertex -236.50217536449819 100.53959718113559 102.87325683104598
    vertex -236.50217536449819 98.5395971811356 103.87325683104598
    vertex -236.50217536449819 100.53959718113562 103.87325683104598
  endloop
endfacet
facet normal 4.0761342503027856e-15 1.6919798895287415e-14 1.0
  outer loop
    vertex -233.73488036449805 98.5395971811356 103.873256831046
    vertex -236.50217536449819 100.53959718113562 103.87325683104598
    vertex -236.50217536449819 98.5395971811356 103.87325683104598
  endloop
endfacet
facet normal 4.0761342503027856e-15 1.6919798895287415e-14 1.0
  outer loop
    vertex -236.50217536449819 100.53959718113562 103.87325683104598
    vertex -233.73488036449805 98.5395971811356 103.873256831046
    vertex -233.73488036449805 100.53959718113555 103.87325683104591
  endloop
endfacet
facet normal -8.152268500605295e-15 -1.127986593019161e-14 -1.0
  outer loop
    vertex -233.73488036449805 100.53959718113552 106.67325683104555
    vertex -236.50217536449819 98.53959718113559 106.6732568310456
    vertex -236.50217536449819 100.53959718113558 106.67325683104563
  endloop
endfacet
facet normal -8.152268500605295e-15 -1.127986593019161e-14 -1.0
  outer loop
    vertex -236.50217536449819 98.53959718113559 106.6732568310456
    vertex -233.73488036449805 100.53959718113552 106.67325683104555
    vertex -233.73488036449805 98.53959718113559 106.67325683104563
  endloop
endfacet
facet normal -1.0 0.0 8.152268500605295e-15
  outer loop
    vertex -236.50217536449819 98.53959718113563 107.6732568310456
    vertex -236.50217536449819 100.53959718113558 106.67325683104563
    vertex -236.50217536449819 98.53959718113559 106.6732568310456
  endloop
endfacet
facet normal -1.0 0.0 8.152268500605295e-15
  outer loop
    vertex -236.50217536449819 100.53959718113558 106.67325683104563
    vertex -236.50217536449819 98.53959718113563 107.6732568310456
    vertex -236.50217536449819 100.53959718113563 107.67325683104563
  endloop
endfacet
endsolid Uniao - Rolamento v4
