solid Uniao - Rolamento v4
facet normal 1.228151652103164e-15 1.610816104433085e-15 1.0
  outer loop
    vertex -236.8369787800527 87.03656517125171 106.46810983104632
    vertex -231.00217536449784 96.69168356215894 106.4681098310463
    vertex -238.44532638508534 88.16277193595543 106.46810983104635
  endloop
endfacet
facet normal 1.228151652103164e-15 1.610816104433085e-15 1.0
  outer loop
    vertex -231.00217536449784 96.69168356215894 106.4681098310463
    vertex -236.8369787800527 87.03656517125171 106.46810983104632
    vertex -229.49869811226657 95.44530860944216 106.46810983104632
  endloop
endfacet
facet normal -1.865356867445852e-15 6.5273728255277555e-15 1.0
  outer loop
    vertex -236.8369787800527 87.03656517125171 106.46810983104632
    vertex -231.98750669086627 89.1730690197107 106.46810983104632
    vertex -232.0775587429216 89.81272390284018 106.46810983104632
  endloop
endfacet
facet normal -1.865356867445852e-15 6.5273728255277555e-15 1.0
  outer loop
    vertex -231.98750669086627 89.1730690197107 106.46810983104632
    vertex -236.8369787800527 87.03656517125171 106.46810983104632
    vertex -231.734968222029 88.57851703430644 106.46810983104632
  endloop
endfacet
facet normal -1.865356867445852e-15 6.5273728255277555e-15 1.0
  outer loop
    vertex -231.734968222029 88.57851703430644 106.46810983104632
    vertex -236.8369787800527 87.03656517125171 106.46810983104632
    vertex -229.60320211226522 84.8349030836545 106.46810983104642
  endloop
endfacet
facet normal -1.865356867445852e-15 6.5273728255277555e-15 1.0
  outer loop
    vertex -231.734968222029 88.57851703430644 106.46810983104632
    vertex -229.60320211226522 84.8349030836545 106.46810983104642
    vertex -231.57009251470583 88.36758869433942 106.46810983104632
  endloop
endfacet
facet normal -1.865356867445852e-15 6.5273728255277555e-15 1.0
  outer loop
    vertex -231.57009251470583 88.36758869433942 106.46810983104632
    vertex -229.60320211226522 84.8349030836545 106.46810983104642
    vertex -231.33715341572147 88.06958568188914 106.46810983104642
  endloop
endfacet
facet normal -1.865356867445852e-15 6.5273728255277555e-15 1.0
  outer loop
    vertex -231.33715341572147 88.06958568188914 106.46810983104642
    vertex -229.60320211226522 84.8349030836545 106.46810983104642
    vertex -230.82117269357343 87.6809577930773 106.46810983104642
  endloop
endfacet
facet normal -1.865356867445852e-15 6.5273728255277555e-15 1.0
  outer loop
    vertex -230.82117269357343 87.6809577930773 106.46810983104642
    vertex -229.60320211226522 84.8349030836545 106.46810983104642
    vertex -230.22218928910092 87.43911771625531 106.46810983104642
  endloop
endfacet
facet normal -1.865356867445852e-15 6.5273728255277555e-15 1.0
  outer loop
    vertex -230.22218928910092 87.43911771625531 106.46810983104642
    vertex -229.60320211226522 84.8349030836545 106.46810983104642
    vertex -229.58102293145168 87.36054645299917 106.46810983104642
  endloop
endfacet
facet normal -1.865356867445852e-15 6.5273728255277555e-15 1.0
  outer loop
    vertex -229.58102293145168 87.36054645299917 106.46810983104642
    vertex -229.60320211226522 84.8349030836545 106.46810983104642
    vertex -228.30910688675263 85.00527395220935 106.46810983104632
  endloop
endfacet
facet normal -1.865356867445852e-15 6.5273728255277555e-15 1.0
  outer loop
    vertex -229.58102293145168 87.36054645299917 106.46810983104642
    vertex -228.30910688675263 85.00527395220935 106.46810983104632
    vertex -228.94136804832218 87.45059850505437 106.46810983104642
  endloop
endfacet
facet normal -1.865356867445852e-15 6.5273728255277555e-15 1.0
  outer loop
    vertex -228.94136804832218 87.45059850505437 106.46810983104642
    vertex -228.30910688675263 85.00527395220935 106.46810983104632
    vertex -228.34681606291795 87.70313697389166 106.46810983104632
  endloop
endfacet
facet normal -1.865356867445852e-15 6.5273728255277555e-15 1.0
  outer loop
    vertex -228.34681606291795 87.70313697389166 106.46810983104632
    vertex -228.30910688675263 85.00527395220935 106.46810983104632
    vertex -227.83788471050067 88.10095178019924 106.46810983104632
  endloop
endfacet
facet normal -1.865356867445852e-15 6.5273728255277555e-15 1.0
  outer loop
    vertex -227.83788471050067 88.10095178019924 106.46810983104632
    vertex -228.30910688675263 85.00527395220935 106.46810983104632
    vertex -227.10320211226528 85.50477606473278 106.46810983104642
  endloop
endfacet
facet normal -1.865356867445852e-15 6.5273728255277555e-15 1.0
  outer loop
    vertex -227.83788471050067 88.10095178019924 106.46810983104632
    vertex -227.10320211226528 85.50477606473278 106.46810983104642
    vertex -227.4492568216888 88.61693250234727 106.46810983104632
  endloop
endfacet
facet normal -1.865356867445852e-15 6.5273728255277555e-15 1.0
  outer loop
    vertex -227.4492568216888 88.61693250234727 106.46810983104632
    vertex -227.10320211226528 85.50477606473278 106.46810983104642
    vertex -227.20741674486683 89.21591590681987 106.46810983104632
  endloop
endfacet
facet normal -1.865356867445852e-15 6.5273728255277555e-15 1.0
  outer loop
    vertex -227.20741674486683 89.21591590681987 106.46810983104632
    vertex -227.10320211226528 85.50477606473278 106.46810983104642
    vertex -227.12884548161063 89.85708226446899 106.46810983104632
  endloop
endfacet
facet normal -1.865356867445852e-15 6.5273728255277555e-15 1.0
  outer loop
    vertex -227.12884548161063 89.85708226446899 106.46810983104632
    vertex -227.10320211226528 85.50477606473278 106.46810983104642
    vertex -227.10320211226679 94.16503010257738 106.46810983104632
  endloop
endfacet
facet normal -1.865356867445852e-15 6.5273728255277555e-15 1.0
  outer loop
    vertex -227.10320211226679 94.16503010257738 106.46810983104632
    vertex -227.10320211226528 85.50477606473278 106.46810983104642
    vertex -226.06766820633388 93.37043698958806 106.46810983104632
  endloop
endfacet
facet normal -1.865356867445852e-15 6.5273728255277555e-15 1.0
  outer loop
    vertex -226.06766820633388 93.37043698958806 106.46810983104632
    vertex -227.10320211226528 85.50477606473278 106.46810983104642
    vertex -226.06766820633266 86.29936917772238 106.46810983104642
  endloop
endfacet
facet normal -1.865356867445852e-15 6.5273728255277555e-15 1.0
  outer loop
    vertex -226.06766820633388 93.37043698958806 106.46810983104632
    vertex -226.06766820633266 86.29936917772238 106.46810983104642
    vertex -225.27307509334423 92.33490308365542 106.46810983104632
  endloop
endfacet
facet normal -1.865356867445852e-15 6.5273728255277555e-15 1.0
  outer loop
    vertex -225.27307509334423 92.33490308365542 106.46810983104632
    vertex -226.06766820633266 86.29936917772238 106.46810983104642
    vertex -225.27307509334332 87.33490308365529 106.46810983104642
  endloop
endfacet
facet normal -1.865356867445852e-15 6.5273728255277555e-15 1.0
  outer loop
    vertex -225.27307509334423 92.33490308365542 106.46810983104632
    vertex -225.27307509334332 87.33490308365529 106.46810983104642
    vertex -224.77357298082083 91.12899830916811 106.46810983104632
  endloop
endfacet
facet normal -1.865356867445852e-15 6.5273728255277555e-15 1.0
  outer loop
    vertex -224.77357298082083 91.12899830916811 106.46810983104632
    vertex -225.27307509334332 87.33490308365529 106.46810983104642
    vertex -224.7735729808204 88.54080785814286 106.46810983104632
  endloop
endfacet
facet normal -1.865356867445852e-15 6.5273728255277555e-15 1.0
  outer loop
    vertex -224.77357298082083 91.12899830916811 106.46810983104632
    vertex -224.7735729808204 88.54080785814286 106.46810983104632
    vertex -224.603202112266 89.83490308365543 106.46810983104632
  endloop
endfacet
facet normal -1.865356867445852e-15 6.5273728255277555e-15 1.0
  outer loop
    vertex -229.6253812930805 92.30925971431009 106.46810983104632
    vertex -229.6714926462775 94.85488927010844 106.46810983104632
    vertex -230.26503617621 92.21920766225479 106.46810983104632
  endloop
endfacet
facet normal -1.865356867445852e-15 6.5273728255277555e-15 1.0
  outer loop
    vertex -229.6714926462775 94.85488927010844 106.46810983104632
    vertex -229.6253812930805 92.30925971431009 106.46810983104632
    vertex -229.60320211226698 94.83490308365475 106.46810983104632
  endloop
endfacet
facet normal -1.865356867445852e-15 6.5273728255277555e-15 1.0
  outer loop
    vertex -229.60320211226698 94.83490308365475 106.46810983104632
    vertex -229.6253812930805 92.30925971431009 106.46810983104632
    vertex -228.9842149354313 92.23068845105387 106.46810983104632
  endloop
endfacet
facet normal -1.865356867445852e-15 6.5273728255277555e-15 1.0
  outer loop
    vertex -229.60320211226698 94.83490308365475 106.46810983104632
    vertex -228.9842149354313 92.23068845105387 106.46810983104632
    vertex -228.857687446187 94.73675421587741 106.46810983104632
  endloop
endfacet
facet normal -1.865356867445852e-15 6.5273728255277555e-15 1.0
  outer loop
    vertex -228.857687446187 94.73675421587741 106.46810983104632
    vertex -228.9842149354313 92.23068845105387 106.46810983104632
    vertex -228.38523153095872 91.98884837423196 106.46810983104632
  endloop
endfacet
facet normal -1.865356867445852e-15 6.5273728255277555e-15 1.0
  outer loop
    vertex -228.857687446187 94.73675421587741 106.46810983104632
    vertex -228.38523153095872 91.98884837423196 106.46810983104632
    vertex -228.3091068867543 94.66453221510027 106.46810983104632
  endloop
endfacet
facet normal -1.865356867445852e-15 6.5273728255277555e-15 1.0
  outer loop
    vertex -228.3091068867543 94.66453221510027 106.46810983104632
    vertex -228.38523153095872 91.98884837423196 106.46810983104632
    vertex -227.86925080881073 91.60022048542004 106.46810983104632
  endloop
endfacet
facet normal -1.865356867445852e-15 6.5273728255277555e-15 1.0
  outer loop
    vertex -228.3091068867543 94.66453221510027 106.46810983104632
    vertex -227.86925080881073 91.60022048542004 106.46810983104632
    vertex -227.10320211226679 94.16503010257738 106.46810983104632
  endloop
endfacet
facet normal -1.865356867445852e-15 6.5273728255277555e-15 1.0
  outer loop
    vertex -227.10320211226679 94.16503010257738 106.46810983104632
    vertex -227.86925080881073 91.60022048542004 106.46810983104632
    vertex -227.4714360025032 91.09128913300272 106.46810983104632
  endloop
endfacet
facet normal -1.865356867445852e-15 6.5273728255277555e-15 1.0
  outer loop
    vertex -227.10320211226679 94.16503010257738 106.46810983104632
    vertex -227.4714360025032 91.09128913300272 106.46810983104632
    vertex -227.2188975336659 90.49673714759847 106.46810983104632
  endloop
endfacet
facet normal -1.865356867445852e-15 6.5273728255277555e-15 1.0
  outer loop
    vertex -227.10320211226679 94.16503010257738 106.46810983104632
    vertex -227.2188975336659 90.49673714759847 106.46810983104632
    vertex -227.12884548161063 89.85708226446899 106.46810983104632
  endloop
endfacet
facet normal -1.865356867445852e-15 6.5273728255277555e-15 1.0
  outer loop
    vertex -236.8369787800527 87.03656517125171 106.46810983104632
    vertex -231.75714740284346 91.05287366496191 106.46810983104632
    vertex -229.49869811226657 95.44530860944216 106.46810983104632
  endloop
endfacet
facet normal -1.865356867445852e-15 6.5273728255277555e-15 1.0
  outer loop
    vertex -231.75714740284346 91.05287366496191 106.46810983104632
    vertex -236.8369787800527 87.03656517125171 106.46810983104632
    vertex -231.9989874796654 90.45389026048939 106.46810983104632
  endloop
endfacet
facet normal -1.865356867445852e-15 6.5273728255277555e-15 1.0
  outer loop
    vertex -231.9989874796654 90.45389026048939 106.46810983104632
    vertex -236.8369787800527 87.03656517125171 106.46810983104632
    vertex -232.0775587429216 89.81272390284018 106.46810983104632
  endloop
endfacet
facet normal -1.865356867445852e-15 6.5273728255277555e-15 1.0
  outer loop
    vertex -229.49869811226657 95.44530860944216 106.46810983104632
    vertex -231.75714740284346 91.05287366496191 106.46810983104632
    vertex -231.36851951403153 91.56885438710992 106.46810983104632
  endloop
endfacet
facet normal -1.865356867445852e-15 6.5273728255277555e-15 1.0
  outer loop
    vertex -229.49869811226657 95.44530860944216 106.46810983104632
    vertex -231.36851951403153 91.56885438710992 106.46810983104632
    vertex -230.85958816161425 91.96666919341752 106.46810983104632
  endloop
endfacet
facet normal -1.865356867445852e-15 6.5273728255277555e-15 1.0
  outer loop
    vertex -229.49869811226657 95.44530860944216 106.46810983104632
    vertex -230.85958816161425 91.96666919341752 106.46810983104632
    vertex -229.6714926462775 94.85488927010844 106.46810983104632
  endloop
endfacet
facet normal -1.865356867445852e-15 6.5273728255277555e-15 1.0
  outer loop
    vertex -229.6714926462775 94.85488927010844 106.46810983104632
    vertex -230.85958816161425 91.96666919341752 106.46810983104632
    vertex -230.46810560797672 92.1329530627833 106.46810983104632
  endloop
endfacet
facet normal -1.865356867445852e-15 6.5273728255277555e-15 1.0
  outer loop
    vertex -229.6714926462775 94.85488927010844 106.46810983104632
    vertex -230.46810560797672 92.1329530627833 106.46810983104632
    vertex -230.26503617621 92.21920766225479 106.46810983104632
  endloop
endfacet
facet normal 0.9597422826689594 -0.2808820942270533 -7.531147685782192e-14
  outer loop
    vertex -229.49869811226694 95.44530860944216 104.16810983104676
    vertex -229.6714926462775 94.85488927010844 106.46810983104632
    vertex -229.6714926462775 94.85488927010844 104.16810983104685
  endloop
endfacet
facet normal 0.9597422826689594 -0.2808820942270533 -7.531147685782192e-14
  outer loop
    vertex -229.6714926462775 94.85488927010844 106.46810983104632
    vertex -229.49869811226694 95.44530860944216 104.16810983104676
    vertex -229.49869811226657 95.44530860944216 106.46810983104632
  endloop
endfacet
facet normal -0.5735865684055595 -0.8191449496546596 2.2299081078832282e-17
  outer loop
    vertex -236.8369787800527 87.03656517125171 104.16810983104703
    vertex -238.44532638508534 88.16277193595543 106.46810983104635
    vertex -238.44532638508534 88.16277193595543 104.16810983104699
  endloop
endfacet
facet normal -0.5735865684055595 -0.8191449496546596 2.2299081078832282e-17
  outer loop
    vertex -238.44532638508534 88.16277193595543 106.46810983104635
    vertex -236.8369787800527 87.03656517125171 104.16810983104703
    vertex -236.8369787800527 87.03656517125171 106.46810983104632
  endloop
endfacet
facet normal -1.0239822021164799e-14 -4.243163323155241e-15 -1.0
  outer loop
    vertex -236.8369787800527 87.03656517125171 104.16810983104703
    vertex -231.9989874796654 90.45389026048929 104.1681098310464
    vertex -232.0775587429216 89.81272390284018 104.1681098310464
  endloop
endfacet
facet normal -1.0239822021164799e-14 -4.243163323155241e-15 -1.0
  outer loop
    vertex -231.9989874796654 90.45389026048929 104.1681098310464
    vertex -236.8369787800527 87.03656517125171 104.16810983104703
    vertex -231.75714740284346 91.05287366496191 104.1681098310464
  endloop
endfacet
facet normal -1.0239822021164799e-14 -4.243163323155241e-15 -1.0
  outer loop
    vertex -231.75714740284346 91.05287366496191 104.1681098310464
    vertex -236.8369787800527 87.03656517125171 104.16810983104703
    vertex -229.49869811226694 95.44530860944216 104.16810983104676
  endloop
endfacet
facet normal -1.0239822021164799e-14 -4.243163323155241e-15 -1.0
  outer loop
    vertex -231.75714740284346 91.05287366496191 104.1681098310464
    vertex -229.49869811226694 95.44530860944216 104.16810983104676
    vertex -231.36851951403153 91.56885438710992 104.1681098310464
  endloop
endfacet
facet normal -1.0239822021164799e-14 -4.243163323155241e-15 -1.0
  outer loop
    vertex -231.36851951403153 91.56885438710992 104.1681098310464
    vertex -229.49869811226694 95.44530860944216 104.16810983104676
    vertex -230.85958816161425 91.96666919341752 104.1681098310464
  endloop
endfacet
facet normal -1.0239822021164799e-14 -4.243163323155241e-15 -1.0
  outer loop
    vertex -230.85958816161425 91.96666919341752 104.1681098310464
    vertex -229.49869811226694 95.44530860944216 104.16810983104676
    vertex -229.6714926462775 94.85488927010844 104.16810983104685
  endloop
endfacet
facet normal -1.0239822021164799e-14 -4.243163323155241e-15 -1.0
  outer loop
    vertex -230.85958816161425 91.96666919341752 104.1681098310464
    vertex -229.6714926462775 94.85488927010844 104.16810983104685
    vertex -230.46810560797695 92.1329530627832 104.16810983104658
  endloop
endfacet
facet normal -1.0239822021164799e-14 -4.243163323155241e-15 -1.0
  outer loop
    vertex -230.46810560797695 92.1329530627832 104.16810983104658
    vertex -229.6714926462775 94.85488927010844 104.16810983104685
    vertex -230.26503617621 92.21920766225479 104.1681098310464
  endloop
endfacet
facet normal -1.0239822021164799e-14 -4.243163323155241e-15 -1.0
  outer loop
    vertex -229.6714926462775 94.85488927010844 104.16810983104685
    vertex -229.6253812930805 92.30925971431009 104.16810983104631
    vertex -230.26503617621 92.21920766225479 104.1681098310464
  endloop
endfacet
facet normal -1.0239822021164799e-14 -4.243163323155241e-15 -1.0
  outer loop
    vertex -229.6253812930805 92.30925971431009 104.16810983104631
    vertex -229.6714926462775 94.85488927010844 104.16810983104685
    vertex -229.6032021122668 94.83490308365494 104.16810983104685
  endloop
endfacet
facet normal -1.0239822021164799e-14 -4.243163323155241e-15 -1.0
  outer loop
    vertex -229.6253812930805 92.30925971431009 104.16810983104631
    vertex -229.6032021122668 94.83490308365494 104.16810983104685
    vertex -228.9842149354313 92.23068845105387 104.1681098310464
  endloop
endfacet
facet normal -1.0239822021164799e-14 -4.243163323155241e-15 -1.0
  outer loop
    vertex -228.9842149354313 92.23068845105387 104.1681098310464
    vertex -229.6032021122668 94.83490308365494 104.16810983104685
    vertex -228.30910688675414 94.66453221510045 104.16810983104685
  endloop
endfacet
facet normal -1.0239822021164799e-14 -4.243163323155241e-15 -1.0
  outer loop
    vertex -228.9842149354313 92.23068845105387 104.1681098310464
    vertex -228.30910688675414 94.66453221510045 104.16810983104685
    vertex -228.38523153095875 91.98884837423196 104.1681098310464
  endloop
endfacet
facet normal -1.0239822021164799e-14 -4.243163323155241e-15 -1.0
  outer loop
    vertex -228.38523153095875 91.98884837423196 104.1681098310464
    vertex -228.30910688675414 94.66453221510045 104.16810983104685
    vertex -227.86925080881073 91.60022048542004 104.1681098310464
  endloop
endfacet
facet normal -1.0239822021164799e-14 -4.243163323155241e-15 -1.0
  outer loop
    vertex -227.86925080881073 91.60022048542004 104.1681098310464
    vertex -228.30910688675414 94.66453221510045 104.16810983104685
    vertex -227.10320211226662 94.16503010257756 104.16810983104685
  endloop
endfacet
facet normal -1.0239822021164799e-14 -4.243163323155241e-15 -1.0
  outer loop
    vertex -227.86925080881073 91.60022048542004 104.1681098310464
    vertex -227.10320211226662 94.16503010257756 104.16810983104685
    vertex -227.4714360025032 91.09128913300272 104.1681098310464
  endloop
endfacet
facet normal -1.0239822021164799e-14 -4.243163323155241e-15 -1.0
  outer loop
    vertex -227.4714360025032 91.09128913300272 104.1681098310464
    vertex -227.10320211226662 94.16503010257756 104.16810983104685
    vertex -227.2188975336659 90.49673714759847 104.1681098310464
  endloop
endfacet
facet normal -1.0239822021164799e-14 -4.243163323155241e-15 -1.0
  outer loop
    vertex -227.2188975336659 90.49673714759847 104.1681098310464
    vertex -227.10320211226662 94.16503010257756 104.16810983104685
    vertex -227.12884548161063 89.85708226446899 104.1681098310464
  endloop
endfacet
facet normal -1.0239822021164799e-14 -4.243163323155241e-15 -1.0
  outer loop
    vertex -236.8369787800527 87.03656517125171 104.16810983104703
    vertex -231.734968222029 88.57851703430644 104.1681098310464
    vertex -229.60320211226505 84.83490308365432 104.16810983104685
  endloop
endfacet
facet normal -1.0239822021164799e-14 -4.243163323155241e-15 -1.0
  outer loop
    vertex -231.734968222029 88.57851703430644 104.1681098310464
    vertex -236.8369787800527 87.03656517125171 104.16810983104703
    vertex -231.98750669086627 89.17306901971061 104.1681098310464
  endloop
endfacet
facet normal -1.0239822021164799e-14 -4.243163323155241e-15 -1.0
  outer loop
    vertex -231.98750669086627 89.17306901971061 104.1681098310464
    vertex -236.8369787800527 87.03656517125171 104.16810983104703
    vertex -232.0775587429216 89.81272390284018 104.1681098310464
  endloop
endfacet
facet normal -1.0239822021164799e-14 -4.243163323155241e-15 -1.0
  outer loop
    vertex -229.60320211226505 84.83490308365432 104.16810983104685
    vertex -231.734968222029 88.57851703430644 104.1681098310464
    vertex -231.5700925147058 88.36758869433942 104.16810983104658
  endloop
endfacet
facet normal -1.0239822021164799e-14 -4.243163323155241e-15 -1.0
  outer loop
    vertex -229.60320211226505 84.83490308365432 104.16810983104685
    vertex -231.5700925147058 88.36758869433942 104.16810983104658
    vertex -231.33715341572147 88.06958568188914 104.1681098310464
  endloop
endfacet
facet normal -1.0239822021164799e-14 -4.243163323155241e-15 -1.0
  outer loop
    vertex -229.60320211226505 84.83490308365432 104.16810983104685
    vertex -231.33715341572147 88.06958568188914 104.1681098310464
    vertex -230.8211726935735 87.68095779307721 104.1681098310464
  endloop
endfacet
facet normal -1.0239822021164799e-14 -4.243163323155241e-15 -1.0
  outer loop
    vertex -229.60320211226505 84.83490308365432 104.16810983104685
    vertex -230.8211726935735 87.68095779307721 104.1681098310464
    vertex -230.22218928910092 87.43911771625531 104.1681098310464
  endloop
endfacet
facet normal -1.0239822021164799e-14 -4.243163323155241e-15 -1.0
  outer loop
    vertex -229.60320211226505 84.83490308365432 104.16810983104685
    vertex -230.22218928910092 87.43911771625531 104.1681098310464
    vertex -229.58102293145168 87.36054645299917 104.1681098310464
  endloop
endfacet
facet normal -1.0239822021164799e-14 -4.243163323155241e-15 -1.0
  outer loop
    vertex -229.60320211226505 84.83490308365432 104.16810983104685
    vertex -229.58102293145168 87.36054645299917 104.1681098310464
    vertex -228.30910688675246 85.00527395220917 104.16810983104685
  endloop
endfacet
facet normal -1.0239822021164799e-14 -4.243163323155241e-15 -1.0
  outer loop
    vertex -228.30910688675246 85.00527395220917 104.16810983104685
    vertex -229.58102293145168 87.36054645299917 104.1681098310464
    vertex -228.94136804832218 87.45059850505437 104.1681098310464
  endloop
endfacet
facet normal -1.0239822021164799e-14 -4.243163323155241e-15 -1.0
  outer loop
    vertex -228.30910688675246 85.00527395220917 104.16810983104685
    vertex -228.94136804832218 87.45059850505437 104.1681098310464
    vertex -228.34681606291795 87.70313697389166 104.1681098310464
  endloop
endfacet
facet normal -1.0239822021164799e-14 -4.243163323155241e-15 -1.0
  outer loop
    vertex -228.30910688675246 85.00527395220917 104.16810983104685
    vertex -228.34681606291795 87.70313697389166 104.1681098310464
    vertex -227.83788471050067 88.10095178019924 104.1681098310464
  endloop
endfacet
facet normal -1.0239822021164799e-14 -4.243163323155241e-15 -1.0
  outer loop
    vertex -228.30910688675246 85.00527395220917 104.16810983104685
    vertex -227.83788471050067 88.10095178019924 104.1681098310464
    vertex -227.10320211226508 85.5047760647326 104.16810983104685
  endloop
endfacet
facet normal -1.0239822021164799e-14 -4.243163323155241e-15 -1.0
  outer loop
    vertex -227.10320211226508 85.5047760647326 104.16810983104685
    vertex -227.83788471050067 88.10095178019924 104.1681098310464
    vertex -227.4492568216888 88.61693250234727 104.1681098310464
  endloop
endfacet
facet normal -1.0239822021164799e-14 -4.243163323155241e-15 -1.0
  outer loop
    vertex -227.10320211226508 85.5047760647326 104.16810983104685
    vertex -227.4492568216888 88.61693250234727 104.1681098310464
    vertex -227.20741674486683 89.21591590681979 104.1681098310464
  endloop
endfacet
facet normal -1.0239822021164799e-14 -4.243163323155241e-15 -1.0
  outer loop
    vertex -227.10320211226508 85.5047760647326 104.16810983104685
    vertex -227.20741674486683 89.21591590681979 104.1681098310464
    vertex -227.12884548161063 89.85708226446899 104.1681098310464
  endloop
endfacet
facet normal -1.0239822021164799e-14 -4.243163323155241e-15 -1.0
  outer loop
    vertex -227.10320211226508 85.5047760647326 104.16810983104685
    vertex -227.12884548161063 89.85708226446899 104.1681098310464
    vertex -227.10320211226662 94.16503010257756 104.16810983104685
  endloop
endfacet
facet normal -1.0239822021164799e-14 -4.243163323155241e-15 -1.0
  outer loop
    vertex -227.10320211226508 85.5047760647326 104.16810983104685
    vertex -227.10320211226662 94.16503010257756 104.16810983104685
    vertex -226.0676682063337 93.37043698958823 104.16810983104685
  endloop
endfacet
facet normal -1.0239822021164799e-14 -4.243163323155241e-15 -1.0
  outer loop
    vertex -227.10320211226508 85.5047760647326 104.16810983104685
    vertex -226.0676682063337 93.37043698958823 104.16810983104685
    vertex -226.06766820633243 86.2993691777222 104.16810983104685
  endloop
endfacet
facet normal -1.0239822021164799e-14 -4.243163323155241e-15 -1.0
  outer loop
    vertex -226.06766820633243 86.2993691777222 104.16810983104685
    vertex -226.0676682063337 93.37043698958823 104.16810983104685
    vertex -225.27307509334403 92.33490308365559 104.16810983104685
  endloop
endfacet
facet normal -1.0239822021164799e-14 -4.243163323155241e-15 -1.0
  outer loop
    vertex -226.06766820633243 86.2993691777222 104.16810983104685
    vertex -225.27307509334403 92.33490308365559 104.16810983104685
    vertex -225.27307509334315 87.33490308365502 104.16810983104685
  endloop
endfacet
facet normal -1.0239822021164799e-14 -4.243163323155241e-15 -1.0
  outer loop
    vertex -225.27307509334315 87.33490308365502 104.16810983104685
    vertex -225.27307509334403 92.33490308365559 104.16810983104685
    vertex -224.77357298082066 91.1289983091682 104.16810983104685
  endloop
endfacet
facet normal -1.0239822021164799e-14 -4.243163323155241e-15 -1.0
  outer loop
    vertex -225.27307509334315 87.33490308365502 104.16810983104685
    vertex -224.77357298082066 91.1289983091682 104.16810983104685
    vertex -224.7735729808202 88.54080785814268 104.16810983104685
  endloop
endfacet
facet normal -1.0239822021164799e-14 -4.243163323155241e-15 -1.0
  outer loop
    vertex -224.7735729808202 88.54080785814268 104.16810983104685
    vertex -224.77357298082066 91.1289983091682 104.16810983104685
    vertex -224.60320211226576 89.83490308365526 104.16810983104685
  endloop
endfacet
facet normal -0.2911710428138527 -0.9566710112816704 2.6092806348446187e-14
  outer loop
    vertex -229.60320211226522 84.8349030836545 106.46810983104642
    vertex -236.8369787800527 87.03656517125171 104.16810983104703
    vertex -229.60320211226505 84.83490308365432 104.16810983104685
  endloop
endfacet
facet normal -0.2911710428138527 -0.9566710112816704 2.6092806348446187e-14
  outer loop
    vertex -236.8369787800527 87.03656517125171 104.16810983104703
    vertex -229.60320211226522 84.8349030836545 106.46810983104642
    vertex -236.8369787800527 87.03656517125171 106.46810983104632
  endloop
endfacet
facet normal 1.2325227949923315e-14 5.107988624189055e-15 1.0
  outer loop
    vertex -245.14758173717075 90.20266094383594 106.46810983104638
    vertex -247.00217536449819 98.53959718113568 106.4681098310463
    vertex -247.00217536449819 96.53959718113568 106.46810983104635
  endloop
endfacet
facet normal 1.2325227949923315e-14 5.107988624189055e-15 1.0
  outer loop
    vertex -247.00217536449819 98.53959718113568 106.4681098310463
    vertex -245.14758173717075 90.20266094383594 106.46810983104638
    vertex -244.00217536449819 98.53959718113563 106.46810983104632
  endloop
endfacet
facet normal 1.2325227949923315e-14 5.107988624189055e-15 1.0
  outer loop
    vertex -244.00217536449819 98.53959718113563 106.46810983104632
    vertex -245.14758173717075 90.20266094383594 106.46810983104638
    vertex -242.7765319951534 92.28893718113567 106.46810983104635
  endloop
endfacet
facet normal 1.2325227949923315e-14 5.107988624189055e-15 1.0
  outer loop
    vertex -242.7765319951534 92.28893718113567 106.46810983104635
    vertex -245.14758173717075 90.20266094383594 106.46810983104638
    vertex -239.85541076417306 88.59194323337401 106.46810983104635
  endloop
endfacet
facet normal 1.2325227949923315e-14 5.107988624189055e-15 1.0
  outer loop
    vertex -244.00217536449819 98.53959718113563 106.46810983104632
    vertex -242.7765319951534 92.28893718113567 106.46810983104635
    vertex -244.00217536449819 100.5395971811356 106.46810983104632
  endloop
endfacet
facet normal 1.2325227949923315e-14 5.107988624189055e-15 1.0
  outer loop
    vertex -242.7765319951534 92.28893718113567 106.46810983104635
    vertex -239.85541076417306 88.59194323337401 106.46810983104635
    vertex -235.22781873384224 92.28893718113567 106.46810983104608
  endloop
endfacet
facet normal 1.2325227949923315e-14 5.107988624189055e-15 1.0
  outer loop
    vertex -235.22781873384224 92.28893718113567 106.46810983104608
    vertex -239.85541076417306 88.59194323337401 106.46810983104635
    vertex -238.44532638508534 88.16277193595543 106.46810983104635
  endloop
endfacet
facet normal 1.2325227949923315e-14 5.107988624189055e-15 1.0
  outer loop
    vertex -235.22781873384224 92.28893718113567 106.46810983104608
    vertex -238.44532638508534 88.16277193595543 106.46810983104635
    vertex -231.00217536449784 96.69168356215894 106.4681098310463
  endloop
endfacet
facet normal 1.2325227949923315e-14 5.107988624189055e-15 1.0
  outer loop
    vertex -235.22781873384224 92.28893718113567 106.46810983104608
    vertex -231.00217536449784 96.69168356215894 106.4681098310463
    vertex -235.22781873384224 96.28893718113568 106.46810983104604
  endloop
endfacet
facet normal 1.2325227949923315e-14 5.107988624189055e-15 1.0
  outer loop
    vertex -235.22781873384224 96.28893718113568 106.46810983104604
    vertex -231.00217536449784 96.69168356215894 106.4681098310463
    vertex -234.00217536449804 98.5395971811356 106.46810983104612
  endloop
endfacet
facet normal 1.2325227949923315e-14 5.107988624189055e-15 1.0
  outer loop
    vertex -234.00217536449804 98.5395971811356 106.46810983104612
    vertex -231.00217536449784 96.69168356215894 106.4681098310463
    vertex -231.00217536449784 98.5395971811356 106.46810983104623
  endloop
endfacet
facet normal 1.2325227949923315e-14 5.107988624189055e-15 1.0
  outer loop
    vertex -235.22781873384224 96.28893718113568 106.46810983104604
    vertex -236.50217536449819 100.53959718113558 106.4681098310463
    vertex -236.5021753644982 96.28893718113567 106.46810983104628
  endloop
endfacet
facet normal 1.2325227949923315e-14 5.107988624189055e-15 1.0
  outer loop
    vertex -236.50217536449819 100.53959718113558 106.4681098310463
    vertex -235.22781873384224 96.28893718113568 106.46810983104604
    vertex -234.00217536449804 100.5395971811356 106.46810983104605
  endloop
endfacet
facet normal 1.2325227949923315e-14 5.107988624189055e-15 1.0
  outer loop
    vertex -234.00217536449804 100.5395971811356 106.46810983104605
    vertex -235.22781873384224 96.28893718113568 106.46810983104604
    vertex -234.00217536449804 98.5395971811356 106.46810983104612
  endloop
endfacet
facet normal 1.2325227949923315e-14 5.107988624189055e-15 1.0
  outer loop
    vertex -244.00217536449819 100.5395971811356 106.46810983104632
    vertex -242.7765319951534 96.28893718113568 106.4681098310463
    vertex -241.5021753644982 100.53959718113563 106.46810983104628
  endloop
endfacet
facet normal 1.2325227949923315e-14 5.107988624189055e-15 1.0
  outer loop
    vertex -242.7765319951534 96.28893718113568 106.4681098310463
    vertex -244.00217536449819 100.5395971811356 106.46810983104632
    vertex -242.7765319951534 92.28893718113567 106.46810983104635
  endloop
endfacet
facet normal 1.2325227949923315e-14 5.107988624189055e-15 1.0
  outer loop
    vertex -241.5021753644982 100.53959718113563 106.46810983104628
    vertex -242.7765319951534 96.28893718113568 106.4681098310463
    vertex -241.50217536449827 96.28893718113568 106.46810983104628
  endloop
endfacet
facet normal 1.2325227949923315e-14 5.107988624189055e-15 1.0
  outer loop
    vertex -241.5021753644982 100.53959718113563 106.46810983104628
    vertex -241.50217536449827 96.28893718113568 106.46810983104628
    vertex -241.5021753644982 98.92919165534583 106.46810983104632
  endloop
endfacet
facet normal 0.28088209422749993 0.9597422826688288 4.8675154136411136e-14
  outer loop
    vertex -229.6714926462775 94.85488927010844 106.46810983104632
    vertex -229.6032021122668 94.83490308365494 104.16810983104685
    vertex -229.6714926462775 94.85488927010844 104.16810983104685
  endloop
endfacet
facet normal 0.28088209422749993 0.9597422826688288 4.8675154136411136e-14
  outer loop
    vertex -229.6032021122668 94.83490308365494 104.16810983104685
    vertex -229.6714926462775 94.85488927010844 106.46810983104632
    vertex -229.60320211226698 94.83490308365475 106.46810983104632
  endloop
endfacet
facet normal -1.0 1.1058543369997245e-27 9.808579069733469e-14
  outer loop
    vertex -235.22781873384224 92.28893718113567 106.46810983104608
    vertex -235.22781873384247 96.28893718113567 104.16810983104642
    vertex -235.22781873384247 92.28893718113565 104.16810983104646
  endloop
endfacet
facet normal -1.0 1.1058543369997245e-27 9.808579069733469e-14
  outer loop
    vertex -235.22781873384247 96.28893718113567 104.16810983104642
    vertex -235.22781873384224 92.28893718113567 106.46810983104608
    vertex -235.22781873384224 96.28893718113568 106.46810983104604
  endloop
endfacet
facet normal 1.0 -1.7089058710625722e-14 1.4255945189437187e-27
  outer loop
    vertex -241.5021753644982 98.92919165534546 104.16810983104676
    vertex -241.50217536449827 96.28893718113568 106.46810983104628
    vertex -241.50217536449827 96.28893718113568 104.1681098310467
  endloop
endfacet
facet normal 1.0 -1.7089058710625722e-14 1.4255945189437187e-27
  outer loop
    vertex -241.50217536449827 96.28893718113568 106.46810983104628
    vertex -241.5021753644982 98.92919165534546 104.16810983104676
    vertex -241.5021753644982 98.92919165534583 106.46810983104632
  endloop
endfacet
facet normal 8.851420127497959e-15 -1.0 4.904289534866697e-15
  outer loop
    vertex -241.50217536449827 96.28893718113568 104.1681098310467
    vertex -242.7765319951534 96.28893718113568 106.4681098310463
    vertex -242.77653199515345 96.28893718113567 104.16810983104669
  endloop
endfacet
facet normal 8.851420127497959e-15 -1.0 4.904289534866697e-15
  outer loop
    vertex -242.7765319951534 96.28893718113568 106.4681098310463
    vertex -241.50217536449827 96.28893718113568 104.1681098310467
    vertex -241.50217536449827 96.28893718113568 106.46810983104628
  endloop
endfacet
facet normal 0.7987779546951416 -0.601625946160109 -0.0
  outer loop
    vertex -231.36851951403153 91.56885438710992 104.1681098310464
    vertex -231.75714740284346 91.05287366496191 106.46810983104632
    vertex -231.75714740284346 91.05287366496191 104.1681098310464
  endloop
endfacet
facet normal 0.7987779546951416 -0.601625946160109 -0.0
  outer loop
    vertex -231.75714740284346 91.05287366496191 106.46810983104632
    vertex -231.36851951403153 91.56885438710992 104.1681098310464
    vertex -231.36851951403153 91.56885438710992 106.46810983104632
  endloop
endfacet
facet normal 0.390949027668945 -0.9204123302980608 -1.1155903368407245e-15
  outer loop
    vertex -230.46810560797695 92.1329530627832 104.16810983104658
    vertex -230.85958816161425 91.96666919341752 106.46810983104632
    vertex -230.85958816161425 91.96666919341752 104.1681098310464
  endloop
endfacet
facet normal 0.390949027668945 -0.9204123302980608 -1.1155903368407245e-15
  outer loop
    vertex -230.85958816161425 91.96666919341752 106.46810983104632
    vertex -230.46810560797695 92.1329530627832 104.16810983104658
    vertex -230.46810560797672 92.1329530627833 106.46810983104632
  endloop
endfacet
facet normal 0.9925749738290232 -0.12163437560292716 2.385170973214706e-15
  outer loop
    vertex -231.9989874796654 90.45389026048929 104.1681098310464
    vertex -232.0775587429216 89.81272390284018 106.46810983104632
    vertex -232.0775587429216 89.81272390284018 104.1681098310464
  endloop
endfacet
facet normal 0.9925749738290232 -0.12163437560292716 2.385170973214706e-15
  outer loop
    vertex -232.0775587429216 89.81272390284018 106.46810983104632
    vertex -231.9989874796654 90.45389026048929 104.1681098310464
    vertex -231.9989874796654 90.45389026048939 106.46810983104632
  endloop
endfacet
facet normal 0.7878649866448222 0.6158480030162914 7.730581566118833e-15
  outer loop
    vertex -231.734968222029 88.57851703430644 104.1681098310464
    vertex -231.57009251470583 88.36758869433942 106.46810983104632
    vertex -231.5700925147058 88.36758869433942 104.16810983104658
  endloop
endfacet
facet normal 0.7878649866448222 0.6158480030162914 7.730581566118833e-15
  outer loop
    vertex -231.57009251470583 88.36758869433942 106.46810983104632
    vertex -231.734968222029 88.57851703430644 104.1681098310464
    vertex -231.734968222029 88.57851703430644 106.46810983104632
  endloop
endfacet
facet normal 1.0 -2.5304862483088376e-28 -1.9617158139467004e-14
  outer loop
    vertex -242.77653199515345 96.28893718113567 104.16810983104669
    vertex -242.7765319951534 92.28893718113567 106.46810983104635
    vertex -242.77653199515345 92.28893718113565 104.16810983104673
  endloop
endfacet
facet normal 1.0 -2.5304862483088376e-28 -1.9617158139467004e-14
  outer loop
    vertex -242.7765319951534 92.28893718113567 106.46810983104635
    vertex -242.77653199515345 96.28893718113567 104.16810983104669
    vertex -242.7765319951534 96.28893718113568 106.4681098310463
  endloop
endfacet
facet normal 0.9902350946948274 0.13940752215976807 -2.7355341662826785e-15
  outer loop
    vertex -232.0775587429216 89.81272390284018 104.1681098310464
    vertex -231.98750669086627 89.1730690197107 106.46810983104632
    vertex -231.98750669086627 89.17306901971061 104.1681098310464
  endloop
endfacet
facet normal 0.9902350946948274 0.13940752215976807 -2.7355341662826785e-15
  outer loop
    vertex -231.98750669086627 89.1730690197107 106.46810983104632
    vertex -232.0775587429216 89.81272390284018 104.1681098310464
    vertex -232.0775587429216 89.81272390284018 106.46810983104632
  endloop
endfacet
facet normal 0.9204123302980548 0.39094902766895906 -7.671425514885639e-15
  outer loop
    vertex -231.98750669086627 89.17306901971061 104.1681098310464
    vertex -231.734968222029 88.57851703430644 106.46810983104632
    vertex -231.734968222029 88.57851703430644 104.1681098310464
  endloop
endfacet
facet normal 0.9204123302980548 0.39094902766895906 -7.671425514885639e-15
  outer loop
    vertex -231.734968222029 88.57851703430644 106.46810983104632
    vertex -231.98750669086627 89.17306901971061 104.1681098310464
    vertex -231.98750669086627 89.1730690197107 106.46810983104632
  endloop
endfacet
facet normal 0.9272725088044703 -0.37438709167847095 7.341487300702453e-15
  outer loop
    vertex -231.75714740284346 91.05287366496191 104.1681098310464
    vertex -231.9989874796654 90.45389026048939 106.46810983104632
    vertex -231.9989874796654 90.45389026048929 104.1681098310464
  endloop
endfacet
facet normal 0.9272725088044703 -0.37438709167847095 7.341487300702453e-15
  outer loop
    vertex -231.9989874796654 90.45389026048939 106.46810983104632
    vertex -231.75714740284346 91.05287366496191 104.1681098310464
    vertex -231.75714740284346 91.05287366496191 106.46810983104632
  endloop
endfacet
facet normal 0.6158480030163895 -0.7878649866447457 0.0
  outer loop
    vertex -230.85958816161425 91.96666919341752 106.46810983104632
    vertex -231.36851951403153 91.56885438710992 104.1681098310464
    vertex -230.85958816161425 91.96666919341752 104.1681098310464
  endloop
endfacet
facet normal 0.6158480030163895 -0.7878649866447457 0.0
  outer loop
    vertex -231.36851951403153 91.56885438710992 104.1681098310464
    vertex -230.85958816161425 91.96666919341752 106.46810983104632
    vertex -231.36851951403153 91.56885438710992 106.46810983104632
  endloop
endfacet
facet normal -0.29117104281384854 -0.9566710112816716 1.4083977332051599e-14
  outer loop
    vertex -239.85541076417306 88.59194323337401 106.46810983104635
    vertex -245.14758173717075 90.20266094383591 104.168109831047
    vertex -239.85541076417306 88.59194323337397 104.16810983104699
  endloop
endfacet
facet normal -0.29117104281384854 -0.9566710112816716 1.4083977332051599e-14
  outer loop
    vertex -245.14758173717075 90.20266094383591 104.168109831047
    vertex -239.85541076417306 88.59194323337401 106.46810983104635
    vertex -245.14758173717075 90.20266094383594 106.46810983104638
  endloop
endfacet
facet normal 0.0 1.0 -4.2327252813834085e-15
  outer loop
    vertex -234.00217536449804 98.5395971811356 106.46810983104612
    vertex -231.0021753644982 98.53959718113562 104.16810983104666
    vertex -234.0021753644982 98.53959718113562 104.16810983104655
  endloop
endfacet
facet normal 0.0 1.0 -4.2327252813834085e-15
  outer loop
    vertex -231.0021753644982 98.53959718113562 104.16810983104666
    vertex -234.00217536449804 98.5395971811356 106.46810983104612
    vertex -231.00217536449784 98.5395971811356 106.46810983104623
  endloop
endfacet
facet normal -0.787864986644806 -0.6158480030163123 0.0
  outer loop
    vertex -227.86925080881073 91.60022048542004 106.46810983104632
    vertex -227.4714360025032 91.09128913300272 104.1681098310464
    vertex -227.4714360025032 91.09128913300272 106.46810983104632
  endloop
endfacet
facet normal -0.787864986644806 -0.6158480030163123 0.0
  outer loop
    vertex -227.4714360025032 91.09128913300272 104.1681098310464
    vertex -227.86925080881073 91.60022048542004 106.46810983104632
    vertex -227.86925080881073 91.60022048542004 104.1681098310464
  endloop
endfacet
facet normal -0.3909490276689339 0.9204123302980655 3.88395020801506e-18
  outer loop
    vertex -228.94136804832218 87.45059850505437 106.46810983104642
    vertex -228.34681606291795 87.70313697389166 104.1681098310464
    vertex -228.94136804832218 87.45059850505437 104.1681098310464
  endloop
endfacet
facet normal -0.3909490276689339 0.9204123302980655 3.88395020801506e-18
  outer loop
    vertex -228.34681606291795 87.70313697389166 104.1681098310464
    vertex -228.94136804832218 87.45059850505437 106.46810983104642
    vertex -228.34681606291795 87.70313697389166 106.46810983104632
  endloop
endfacet
facet normal -0.13940752215957228 0.990235094694855 -0.0
  outer loop
    vertex -229.58102293145168 87.36054645299917 106.46810983104642
    vertex -228.94136804832218 87.45059850505437 104.1681098310464
    vertex -229.58102293145168 87.36054645299917 104.1681098310464
  endloop
endfacet
facet normal -0.13940752215957228 0.990235094694855 -0.0
  outer loop
    vertex -228.94136804832218 87.45059850505437 104.1681098310464
    vertex -229.58102293145168 87.36054645299917 106.46810983104642
    vertex -228.94136804832218 87.45059850505437 106.46810983104642
  endloop
endfacet
facet normal 0.9914448613737924 0.1305261922201889 8.495866370669365e-14
  outer loop
    vertex -224.77357298082066 91.1289983091682 104.16810983104685
    vertex -224.603202112266 89.83490308365543 106.46810983104632
    vertex -224.60320211226576 89.83490308365526 104.16810983104685
  endloop
endfacet
facet normal 0.9914448613737924 0.1305261922201889 8.495866370669365e-14
  outer loop
    vertex -224.603202112266 89.83490308365543 106.46810983104632
    vertex -224.77357298082066 91.1289983091682 104.16810983104685
    vertex -224.77357298082083 91.12899830916811 106.46810983104632
  endloop
endfacet
facet normal 0.9914448613738341 -0.13052619221987144 9.776496184903666e-14
  outer loop
    vertex -224.60320211226576 89.83490308365526 104.16810983104685
    vertex -224.7735729808204 88.54080785814286 106.46810983104632
    vertex -224.7735729808202 88.54080785814268 104.16810983104685
  endloop
endfacet
facet normal 0.9914448613738341 -0.13052619221987144 9.776496184903666e-14
  outer loop
    vertex -224.7735729808204 88.54080785814286 106.46810983104632
    vertex -224.60320211226576 89.83490308365526 104.16810983104685
    vertex -224.603202112266 89.83490308365543 106.46810983104632
  endloop
endfacet
facet normal -0.7987779546951751 0.6016259461600645 0.0
  outer loop
    vertex -227.4492568216888 88.61693250234727 106.46810983104632
    vertex -227.83788471050067 88.10095178019924 104.1681098310464
    vertex -227.83788471050067 88.10095178019924 106.46810983104632
  endloop
endfacet
facet normal -0.7987779546951751 0.6016259461600645 0.0
  outer loop
    vertex -227.83788471050067 88.10095178019924 104.1681098310464
    vertex -227.4492568216888 88.61693250234727 106.46810983104632
    vertex -227.4492568216888 88.61693250234727 104.1681098310464
  endloop
endfacet
facet normal 0.7933533402911361 0.6087614290088497 1.1001531342448286e-13
  outer loop
    vertex -225.27307509334403 92.33490308365559 104.16810983104685
    vertex -226.06766820633388 93.37043698958806 106.46810983104632
    vertex -225.27307509334423 92.33490308365542 106.46810983104632
  endloop
endfacet
facet normal 0.7933533402911361 0.6087614290088497 1.1001531342448286e-13
  outer loop
    vertex -226.06766820633388 93.37043698958806 106.46810983104632
    vertex -225.27307509334403 92.33490308365559 104.16810983104685
    vertex -226.0676682063337 93.37043698958823 104.16810983104685
  endloop
endfacet
facet normal -0.12163437560292718 -0.9925749738290232 1.4217565022959626e-18
  outer loop
    vertex -228.9842149354313 92.23068845105387 104.1681098310464
    vertex -229.6253812930805 92.30925971431009 106.46810983104632
    vertex -229.6253812930805 92.30925971431009 104.16810983104631
  endloop
endfacet
facet normal -0.12163437560292718 -0.9925749738290232 1.4217565022959626e-18
  outer loop
    vertex -229.6253812930805 92.30925971431009 106.46810983104632
    vertex -228.9842149354313 92.23068845105387 104.1681098310464
    vertex -228.9842149354313 92.23068845105387 106.46810983104632
  endloop
endfacet
facet normal 0.13052619222019426 -0.9914448613737917 8.803479249970364e-14
  outer loop
    vertex -228.30910688675263 85.00527395220935 106.46810983104632
    vertex -229.60320211226505 84.83490308365432 104.16810983104685
    vertex -228.30910688675246 85.00527395220917 104.16810983104685
  endloop
endfacet
facet normal 0.13052619222019426 -0.9914448613737917 8.803479249970364e-14
  outer loop
    vertex -229.60320211226505 84.83490308365432 104.16810983104685
    vertex -228.30910688675263 85.00527395220935 106.46810983104632
    vertex -229.60320211226522 84.8349030836545 106.46810983104642
  endloop
endfacet
facet normal 0.9238795325112176 0.38268343236525737 9.502494672709899e-14
  outer loop
    vertex -224.77357298082066 91.1289983091682 104.16810983104685
    vertex -225.27307509334423 92.33490308365542 106.46810983104632
    vertex -224.77357298082083 91.12899830916811 106.46810983104632
  endloop
endfacet
facet normal 0.9238795325112176 0.38268343236525737 9.502494672709899e-14
  outer loop
    vertex -225.27307509334423 92.33490308365542 106.46810983104632
    vertex -224.77357298082066 91.1289983091682 104.16810983104685
    vertex -225.27307509334403 92.33490308365559 104.16810983104685
  endloop
endfacet
facet normal 0.7933533402913256 -0.608761429008603 1.2974459509958305e-13
  outer loop
    vertex -225.27307509334315 87.33490308365502 104.16810983104685
    vertex -226.06766820633266 86.29936917772238 106.46810983104642
    vertex -226.06766820633243 86.2993691777222 104.16810983104685
  endloop
endfacet
facet normal 0.7933533402913256 -0.608761429008603 1.2974459509958305e-13
  outer loop
    vertex -226.06766820633266 86.29936917772238 106.46810983104642
    vertex -225.27307509334315 87.33490308365502 104.16810983104685
    vertex -225.27307509334332 87.33490308365529 106.46810983104642
  endloop
endfacet
facet normal 0.3909490276689125 -0.9204123302980746 -1.1179598704693728e-15
  outer loop
    vertex -230.26503617621 92.21920766225479 106.46810983104632
    vertex -230.46810560797695 92.1329530627832 104.16810983104658
    vertex -230.26503617621 92.21920766225479 104.1681098310464
  endloop
endfacet
facet normal 0.3909490276689125 -0.9204123302980746 -1.1179598704693728e-15
  outer loop
    vertex -230.46810560797695 92.1329530627832 104.16810983104658
    vertex -230.26503617621 92.21920766225479 106.46810983104632
    vertex -230.46810560797672 92.1329530627833 106.46810983104632
  endloop
endfacet
facet normal -0.6016259461601259 -0.7987779546951289 5.902724277521531e-15
  outer loop
    vertex -227.86925080881073 91.60022048542004 106.46810983104632
    vertex -228.38523153095875 91.98884837423196 104.1681098310464
    vertex -227.86925080881073 91.60022048542004 104.1681098310464
  endloop
endfacet
facet normal -0.6016259461601259 -0.7987779546951289 5.902724277521531e-15
  outer loop
    vertex -228.38523153095875 91.98884837423196 104.1681098310464
    vertex -227.86925080881073 91.60022048542004 106.46810983104632
    vertex -228.38523153095872 91.98884837423196 106.46810983104632
  endloop
endfacet
facet normal 0.608761429008828 -0.793353340291153 1.2196077850677216e-13
  outer loop
    vertex -226.06766820633266 86.29936917772238 106.46810983104642
    vertex -227.10320211226508 85.5047760647326 104.16810983104685
    vertex -226.06766820633243 86.2993691777222 104.16810983104685
  endloop
endfacet
facet normal 0.608761429008828 -0.793353340291153 1.2196077850677216e-13
  outer loop
    vertex -227.10320211226508 85.5047760647326 104.16810983104685
    vertex -226.06766820633266 86.29936917772238 106.46810983104642
    vertex -227.10320211226528 85.50477606473278 106.46810983104642
  endloop
endfacet
facet normal 0.3826834323648839 0.923879532511372 1.0250783136301669e-13
  outer loop
    vertex -228.3091068867543 94.66453221510027 106.46810983104632
    vertex -227.10320211226662 94.16503010257756 104.16810983104685
    vertex -228.30910688675414 94.66453221510045 104.16810983104685
  endloop
endfacet
facet normal 0.3826834323648839 0.923879532511372 1.0250783136301669e-13
  outer loop
    vertex -227.10320211226662 94.16503010257756 104.16810983104685
    vertex -228.3091068867543 94.66453221510027 106.46810983104632
    vertex -227.10320211226679 94.16503010257738 106.46810983104632
  endloop
endfacet
facet normal -0.3743870916783988 -0.9272725088044995 3.673218865219265e-15
  outer loop
    vertex -228.38523153095872 91.98884837423196 106.46810983104632
    vertex -228.9842149354313 92.23068845105387 104.1681098310464
    vertex -228.38523153095875 91.98884837423196 104.1681098310464
  endloop
endfacet
facet normal -0.3743870916783988 -0.9272725088044995 3.673218865219265e-15
  outer loop
    vertex -228.9842149354313 92.23068845105387 104.1681098310464
    vertex -228.38523153095872 91.98884837423196 106.46810983104632
    vertex -228.9842149354313 92.23068845105387 106.46810983104632
  endloop
endfacet
facet normal -0.9272725088044703 0.37438709167847095 -7.341487300702453e-15
  outer loop
    vertex -227.20741674486683 89.21591590681987 106.46810983104632
    vertex -227.4492568216888 88.61693250234727 104.1681098310464
    vertex -227.4492568216888 88.61693250234727 106.46810983104632
  endloop
endfacet
facet normal -0.9272725088044703 0.37438709167847095 -7.341487300702453e-15
  outer loop
    vertex -227.4492568216888 88.61693250234727 104.1681098310464
    vertex -227.20741674486683 89.21591590681987 106.46810983104632
    vertex -227.20741674486683 89.21591590681979 104.1681098310464
  endloop
endfacet
facet normal 0.638211142776246 0.7698613753372994 -5.0076750217248643e-14
  outer loop
    vertex -231.00217536449784 96.69168356215894 104.16810983104693
    vertex -229.49869811226657 95.44530860944216 106.46810983104632
    vertex -229.49869811226694 95.44530860944216 104.16810983104676
  endloop
endfacet
facet normal 0.638211142776246 0.7698613753372994 -5.0076750217248643e-14
  outer loop
    vertex -229.49869811226657 95.44530860944216 106.46810983104632
    vertex -231.00217536449784 96.69168356215894 104.16810983104693
    vertex -231.00217536449784 96.69168356215894 106.4681098310463
  endloop
endfacet
facet normal 0.1305261922199129 0.9914448613738288 8.571841041677425e-14
  outer loop
    vertex -229.60320211226698 94.83490308365475 106.46810983104632
    vertex -228.30910688675414 94.66453221510045 104.16810983104685
    vertex -229.6032021122668 94.83490308365494 104.16810983104685
  endloop
endfacet
facet normal 0.1305261922199129 0.9914448613738288 8.571841041677425e-14
  outer loop
    vertex -228.30910688675414 94.66453221510045 104.16810983104685
    vertex -229.60320211226698 94.83490308365475 106.46810983104632
    vertex -228.3091068867543 94.66453221510027 106.46810983104632
  endloop
endfacet
facet normal 0.1305261922199129 0.9914448613738288 8.571841041677425e-14
  outer loop
    vertex -228.3091068867543 94.66453221510027 106.46810983104632
    vertex -229.60320211226698 94.83490308365475 106.46810983104632
    vertex -228.857687446187 94.73675421587741 106.46810983104632
  endloop
endfacet
facet normal 0.6087614290085972 0.7933533402913299 1.1005239307173963e-13
  outer loop
    vertex -227.10320211226679 94.16503010257738 106.46810983104632
    vertex -226.0676682063337 93.37043698958823 104.16810983104685
    vertex -227.10320211226662 94.16503010257756 104.16810983104685
  endloop
endfacet
facet normal 0.6087614290085972 0.7933533402913299 1.1005239307173963e-13
  outer loop
    vertex -226.0676682063337 93.37043698958823 104.16810983104685
    vertex -227.10320211226679 94.16503010257738 106.46810983104632
    vertex -226.06766820633388 93.37043698958806 106.46810983104632
  endloop
endfacet
facet normal 0.6016259461600812 0.7987779546951626 -2.157152132724214e-14
  outer loop
    vertex -231.33715341572147 88.06958568188914 106.46810983104642
    vertex -230.8211726935735 87.68095779307721 104.1681098310464
    vertex -231.33715341572147 88.06958568188914 104.1681098310464
  endloop
endfacet
facet normal 0.6016259461600812 0.7987779546951626 -2.157152132724214e-14
  outer loop
    vertex -230.8211726935735 87.68095779307721 104.1681098310464
    vertex -231.33715341572147 88.06958568188914 106.46810983104642
    vertex -230.82117269357343 87.6809577930773 106.46810983104642
  endloop
endfacet
facet normal -0.9902350946948358 -0.13940752215970928 0.0
  outer loop
    vertex -227.2188975336659 90.49673714759847 106.46810983104632
    vertex -227.12884548161063 89.85708226446899 104.1681098310464
    vertex -227.12884548161063 89.85708226446899 106.46810983104632
  endloop
endfacet
facet normal -0.9902350946948358 -0.13940752215970928 0.0
  outer loop
    vertex -227.12884548161063 89.85708226446899 104.1681098310464
    vertex -227.2188975336659 90.49673714759847 106.46810983104632
    vertex -227.2188975336659 90.49673714759847 104.1681098310464
  endloop
endfacet
facet normal -8.638588594766956e-15 -1.9482600540655797e-14 -1.0
  outer loop
    vertex -241.5021753644982 100.53959718113563 104.1681098310467
    vertex -244.00217536449819 98.53959718113565 104.16810983104676
    vertex -244.00217536449819 100.53959718113562 104.16810983104676
  endloop
endfacet
facet normal -8.638588594766956e-15 -1.9482600540655797e-14 -1.0
  outer loop
    vertex -244.00217536449819 98.53959718113565 104.16810983104676
    vertex -241.5021753644982 100.53959718113563 104.1681098310467
    vertex -242.77653199515345 96.28893718113567 104.16810983104669
  endloop
endfacet
facet normal -8.638588594766956e-15 -1.9482600540655797e-14 -1.0
  outer loop
    vertex -242.77653199515345 96.28893718113567 104.16810983104669
    vertex -241.5021753644982 100.53959718113563 104.1681098310467
    vertex -241.50217536449827 96.28893718113568 104.1681098310467
  endloop
endfacet
facet normal -8.638588594766956e-15 -1.9482600540655797e-14 -1.0
  outer loop
    vertex -241.50217536449827 96.28893718113568 104.1681098310467
    vertex -241.5021753644982 100.53959718113563 104.1681098310467
    vertex -241.5021753644982 98.92919165534546 104.16810983104676
  endloop
endfacet
facet normal -8.638588594766956e-15 -1.9482600540655797e-14 -1.0
  outer loop
    vertex -236.50217536449819 100.53959718113559 104.16810983104673
    vertex -235.22781873384247 96.28893718113567 104.16810983104642
    vertex -236.5021753644982 96.28893718113565 104.1681098310467
  endloop
endfacet
facet normal -8.638588594766956e-15 -1.9482600540655797e-14 -1.0
  outer loop
    vertex -235.22781873384247 96.28893718113567 104.16810983104642
    vertex -236.50217536449819 100.53959718113559 104.16810983104673
    vertex -234.0021753644982 100.53959718113562 104.1681098310465
  endloop
endfacet
facet normal -8.638588594766956e-15 -1.9482600540655797e-14 -1.0
  outer loop
    vertex -235.22781873384247 96.28893718113567 104.16810983104642
    vertex -234.0021753644982 100.53959718113562 104.1681098310465
    vertex -235.22781873384247 92.28893718113565 104.16810983104646
  endloop
endfacet
facet normal -8.638588594766956e-15 -1.9482600540655797e-14 -1.0
  outer loop
    vertex -244.00217536449819 98.53959718113565 104.16810983104676
    vertex -247.00217536449819 96.53959718113566 104.16810983104673
    vertex -247.00217536449819 98.53959718113569 104.16810983104669
  endloop
endfacet
facet normal -8.638588594766956e-15 -1.9482600540655797e-14 -1.0
  outer loop
    vertex -247.00217536449819 96.53959718113566 104.16810983104673
    vertex -244.00217536449819 98.53959718113565 104.16810983104676
    vertex -245.14758173717075 90.20266094383591 104.168109831047
  endloop
endfacet
facet normal -8.638588594766956e-15 -1.9482600540655797e-14 -1.0
  outer loop
    vertex -245.14758173717075 90.20266094383591 104.168109831047
    vertex -244.00217536449819 98.53959718113565 104.16810983104676
    vertex -242.77653199515345 92.28893718113565 104.16810983104673
  endloop
endfacet
facet normal -8.638588594766956e-15 -1.9482600540655797e-14 -1.0
  outer loop
    vertex -245.14758173717075 90.20266094383591 104.168109831047
    vertex -242.77653199515345 92.28893718113565 104.16810983104673
    vertex -239.85541076417306 88.59194323337397 104.16810983104699
  endloop
endfacet
facet normal -8.638588594766956e-15 -1.9482600540655797e-14 -1.0
  outer loop
    vertex -242.77653199515345 92.28893718113565 104.16810983104673
    vertex -244.00217536449819 98.53959718113565 104.16810983104676
    vertex -242.77653199515345 96.28893718113567 104.16810983104669
  endloop
endfacet
facet normal -8.638588594766956e-15 -1.9482600540655797e-14 -1.0
  outer loop
    vertex -239.85541076417306 88.59194323337397 104.16810983104699
    vertex -242.77653199515345 92.28893718113565 104.16810983104673
    vertex -235.22781873384247 92.28893718113565 104.16810983104646
  endloop
endfacet
facet normal -8.638588594766956e-15 -1.9482600540655797e-14 -1.0
  outer loop
    vertex -239.85541076417306 88.59194323337397 104.16810983104699
    vertex -235.22781873384247 92.28893718113565 104.16810983104646
    vertex -238.44532638508534 88.16277193595543 104.16810983104699
  endloop
endfacet
facet normal -8.638588594766956e-15 -1.9482600540655797e-14 -1.0
  outer loop
    vertex -238.44532638508534 88.16277193595543 104.16810983104699
    vertex -235.22781873384247 92.28893718113565 104.16810983104646
    vertex -231.00217536449784 96.69168356215894 104.16810983104693
  endloop
endfacet
facet normal -8.638588594766956e-15 -1.9482600540655797e-14 -1.0
  outer loop
    vertex -231.00217536449784 96.69168356215894 104.16810983104693
    vertex -235.22781873384247 92.28893718113565 104.16810983104646
    vertex -234.0021753644982 98.53959718113562 104.16810983104655
  endloop
endfacet
facet normal -8.638588594766956e-15 -1.9482600540655797e-14 -1.0
  outer loop
    vertex -234.0021753644982 98.53959718113562 104.16810983104655
    vertex -235.22781873384247 92.28893718113565 104.16810983104646
    vertex -234.0021753644982 100.53959718113562 104.1681098310465
  endloop
endfacet
facet normal -8.638588594766956e-15 -1.9482600540655797e-14 -1.0
  outer loop
    vertex -231.00217536449784 96.69168356215894 104.16810983104693
    vertex -234.0021753644982 98.53959718113562 104.16810983104655
    vertex -231.0021753644982 98.53959718113562 104.16810983104666
  endloop
endfacet
facet normal -2.2496935010431145e-13 1.0 -1.6184155465060323e-13
  outer loop
    vertex -243.35733936449904 98.92919165534504 104.16810983104678
    vertex -241.5021753644982 98.92919165534583 106.46810983104632
    vertex -241.5021753644982 98.92919165534546 104.16810983104676
  endloop
endfacet
facet normal -2.2496935010431145e-13 1.0 -1.6184155465060323e-13
  outer loop
    vertex -241.5021753644982 98.92919165534583 106.46810983104632
    vertex -243.35733936449904 98.92919165534504 104.16810983104678
    vertex -243.35733936449898 98.92919165534542 106.46810983104635
  endloop
endfacet
facet normal -0.6158480030163895 0.7878649866447457 -0.0
  outer loop
    vertex -228.34681606291795 87.70313697389166 106.46810983104632
    vertex -227.83788471050067 88.10095178019924 104.1681098310464
    vertex -228.34681606291795 87.70313697389166 104.1681098310464
  endloop
endfacet
facet normal -0.6158480030163895 0.7878649866447457 -0.0
  outer loop
    vertex -227.83788471050067 88.10095178019924 104.1681098310464
    vertex -228.34681606291795 87.70313697389166 106.46810983104632
    vertex -227.83788471050067 88.10095178019924 106.46810983104632
  endloop
endfacet
facet normal -1.0 1.0808318847901166e-29 2.55351295663786e-15
  outer loop
    vertex -244.00217536449819 100.5395971811356 106.46810983104632
    vertex -244.00217536449819 98.53959718113565 104.16810983104676
    vertex -244.00217536449819 98.53959718113563 106.46810983104632
  endloop
endfacet
facet normal -1.0 1.0808318847901166e-29 2.55351295663786e-15
  outer loop
    vertex -244.00217536449819 98.53959718113565 104.16810983104676
    vertex -244.00217536449819 100.5395971811356 106.46810983104632
    vertex -244.00217536449819 100.53959718113562 104.16810983104676
  endloop
endfacet
facet normal -0.9204123302980655 -0.39094902766893397 0.0
  outer loop
    vertex -227.4714360025032 91.09128913300272 106.46810983104632
    vertex -227.2188975336659 90.49673714759847 104.1681098310464
    vertex -227.2188975336659 90.49673714759847 106.46810983104632
  endloop
endfacet
facet normal -0.9204123302980655 -0.39094902766893397 0.0
  outer loop
    vertex -227.2188975336659 90.49673714759847 104.1681098310464
    vertex -227.4714360025032 91.09128913300272 106.46810983104632
    vertex -227.4714360025032 91.09128913300272 104.1681098310464
  endloop
endfacet
facet normal 0.374387091678483 0.9272725088044653 -2.185760962203028e-14
  outer loop
    vertex -230.82117269357343 87.6809577930773 106.46810983104642
    vertex -230.22218928910092 87.43911771625531 104.1681098310464
    vertex -230.8211726935735 87.68095779307721 104.1681098310464
  endloop
endfacet
facet normal 0.374387091678483 0.9272725088044653 -2.185760962203028e-14
  outer loop
    vertex -230.22218928910092 87.43911771625531 104.1681098310464
    vertex -230.82117269357343 87.6809577930773 106.46810983104642
    vertex -230.22218928910092 87.43911771625531 106.46810983104642
  endloop
endfacet
facet normal 0.13940752215969962 -0.9902350946948372 1.8732833938233434e-18
  outer loop
    vertex -229.6253812930805 92.30925971431009 106.46810983104632
    vertex -230.26503617621 92.21920766225479 104.1681098310464
    vertex -229.6253812930805 92.30925971431009 104.16810983104631
  endloop
endfacet
facet normal 0.13940752215969962 -0.9902350946948372 1.8732833938233434e-18
  outer loop
    vertex -230.26503617621 92.21920766225479 104.1681098310464
    vertex -229.6253812930805 92.30925971431009 106.46810983104632
    vertex -230.26503617621 92.21920766225479 106.46810983104632
  endloop
endfacet
facet normal 0.12163437560277265 0.9925749738290421 -0.0
  outer loop
    vertex -230.22218928910092 87.43911771625531 106.46810983104642
    vertex -229.58102293145168 87.36054645299917 104.1681098310464
    vertex -230.22218928910092 87.43911771625531 104.1681098310464
  endloop
endfacet
facet normal 0.12163437560277265 0.9925749738290421 -0.0
  outer loop
    vertex -229.58102293145168 87.36054645299917 104.1681098310464
    vertex -230.22218928910092 87.43911771625531 106.46810983104642
    vertex -229.58102293145168 87.36054645299917 106.46810983104642
  endloop
endfacet
facet normal -2.905887152134402e-14 6.768816124642778e-15 -1.0
  outer loop
    vertex -231.00217536449784 96.69168356215894 104.16810983104693
    vertex -236.8369787800527 87.03656517125171 104.16810983104703
    vertex -238.44532638508534 88.16277193595543 104.16810983104699
  endloop
endfacet
facet normal -2.905887152134402e-14 6.768816124642778e-15 -1.0
  outer loop
    vertex -236.8369787800527 87.03656517125171 104.16810983104703
    vertex -231.00217536449784 96.69168356215894 104.16810983104693
    vertex -229.49869811226694 95.44530860944216 104.16810983104676
  endloop
endfacet
facet normal -0.9597422826690237 -0.2808820942268337 2.755894757939117e-15
  outer loop
    vertex -245.14758173717075 90.20266094383594 106.46810983104638
    vertex -247.00217536449819 96.53959718113566 104.16810983104673
    vertex -245.14758173717075 90.20266094383591 104.168109831047
  endloop
endfacet
facet normal -0.9597422826690237 -0.2808820942268337 2.755894757939117e-15
  outer loop
    vertex -247.00217536449819 96.53959718113566 104.16810983104673
    vertex -245.14758173717075 90.20266094383594 106.46810983104638
    vertex -247.00217536449819 96.53959718113568 106.46810983104635
  endloop
endfacet
facet normal 1.0 -3.927649083946866e-28 -9.27924403981911e-14
  outer loop
    vertex -234.0021753644982 98.53959718113562 104.16810983104655
    vertex -234.00217536449804 100.5395971811356 106.46810983104605
    vertex -234.00217536449804 98.5395971811356 106.46810983104612
  endloop
endfacet
facet normal 1.0 -3.927649083946866e-28 -9.27924403981911e-14
  outer loop
    vertex -234.00217536449804 100.5395971811356 106.46810983104605
    vertex -234.0021753644982 98.53959718113562 104.16810983104655
    vertex -234.0021753644982 100.53959718113562 104.1681098310465
  endloop
endfacet
facet normal -1.0 1.0808318847901166e-29 2.55351295663786e-15
  outer loop
    vertex -247.00217536449819 96.53959718113568 106.46810983104635
    vertex -247.00217536449819 98.53959718113569 104.16810983104669
    vertex -247.00217536449819 96.53959718113566 104.16810983104673
  endloop
endfacet
facet normal -1.0 1.0808318847901166e-29 2.55351295663786e-15
  outer loop
    vertex -247.00217536449819 98.53959718113569 104.16810983104669
    vertex -247.00217536449819 96.53959718113568 106.46810983104635
    vertex -247.00217536449819 98.53959718113568 106.4681098310463
  endloop
endfacet
facet normal -0.9925749738290232 0.12163437560292717 -2.385170973214706e-15
  outer loop
    vertex -227.20741674486683 89.21591590681987 106.46810983104632
    vertex -227.12884548161063 89.85708226446899 104.1681098310464
    vertex -227.20741674486683 89.21591590681979 104.1681098310464
  endloop
endfacet
facet normal -0.9925749738290232 0.12163437560292717 -2.385170973214706e-15
  outer loop
    vertex -227.12884548161063 89.85708226446899 104.1681098310464
    vertex -227.20741674486683 89.21591590681987 106.46810983104632
    vertex -227.12884548161063 89.85708226446899 106.46810983104632
  endloop
endfacet
facet normal 1.503982124025548e-14 1.0 -4.2327252813834456e-15
  outer loop
    vertex -247.00217536449819 98.53959718113568 106.4681098310463
    vertex -244.00217536449819 98.53959718113565 104.16810983104676
    vertex -247.00217536449819 98.53959718113569 104.16810983104669
  endloop
endfacet
facet normal 1.503982124025548e-14 1.0 -4.2327252813834456e-15
  outer loop
    vertex -244.00217536449819 98.53959718113565 104.16810983104676
    vertex -247.00217536449819 98.53959718113568 106.4681098310463
    vertex -244.00217536449819 98.53959718113563 106.46810983104632
  endloop
endfacet
facet normal 0.3826834323652808 -0.9238795325112077 1.0628163085604048e-13
  outer loop
    vertex -227.10320211226528 85.50477606473278 106.46810983104642
    vertex -228.30910688675246 85.00527395220917 104.16810983104685
    vertex -227.10320211226508 85.5047760647326 104.16810983104685
  endloop
endfacet
facet normal 0.3826834323652808 -0.9238795325112077 1.0628163085604048e-13
  outer loop
    vertex -228.30910688675246 85.00527395220917 104.16810983104685
    vertex -227.10320211226528 85.50477606473278 106.46810983104642
    vertex -228.30910688675263 85.00527395220935 106.46810983104632
  endloop
endfacet
facet normal 1.0 -1.1251780142013044e-14 4.804192613790378e-28
  outer loop
    vertex -241.5021753644982 100.53959718113563 104.1681098310467
    vertex -241.5021753644982 98.92919165534583 106.46810983104632
    vertex -241.5021753644982 98.92919165534546 104.16810983104676
  endloop
endfacet
facet normal 1.0 -1.1251780142013044e-14 4.804192613790378e-28
  outer loop
    vertex -241.5021753644982 98.92919165534583 106.46810983104632
    vertex -241.5021753644982 100.53959718113563 104.1681098310467
    vertex -241.5021753644982 100.53959718113563 106.46810983104628
  endloop
endfacet
facet normal 0.7878649866447945 0.6158480030163271 7.729134844449456e-15
  outer loop
    vertex -231.5700925147058 88.36758869433942 104.16810983104658
    vertex -231.33715341572147 88.06958568188914 106.46810983104642
    vertex -231.33715341572147 88.06958568188914 104.1681098310464
  endloop
endfacet
facet normal 0.7878649866447945 0.6158480030163271 7.729134844449456e-15
  outer loop
    vertex -231.33715341572147 88.06958568188914 106.46810983104642
    vertex -231.5700925147058 88.36758869433942 104.16810983104658
    vertex -231.57009251470583 88.36758869433942 106.46810983104632
  endloop
endfacet
facet normal 8.851420127493986e-15 -1.0 4.904289534866349e-15
  outer loop
    vertex -235.22781873384224 96.28893718113568 106.46810983104604
    vertex -236.5021753644982 96.28893718113565 104.1681098310467
    vertex -235.22781873384247 96.28893718113567 104.16810983104642
  endloop
endfacet
facet normal 8.851420127493986e-15 -1.0 4.904289534866349e-15
  outer loop
    vertex -236.5021753644982 96.28893718113565 104.1681098310467
    vertex -235.22781873384224 96.28893718113568 106.46810983104604
    vertex -236.5021753644982 96.28893718113567 106.46810983104628
  endloop
endfacet
facet normal 0.0 1.0 -4.2327252813834085e-15
  outer loop
    vertex -236.50217536449819 100.53959718113559 104.16810983104673
    vertex -234.00217536449804 100.5395971811356 106.46810983104605
    vertex -234.0021753644982 100.53959718113562 104.1681098310465
  endloop
endfacet
facet normal 0.0 1.0 -4.2327252813834085e-15
  outer loop
    vertex -234.00217536449804 100.5395971811356 106.46810983104605
    vertex -236.50217536449819 100.53959718113559 104.16810983104673
    vertex -236.50217536449819 100.53959718113558 106.4681098310463
  endloop
endfacet
facet normal 0.0 1.0 -4.2327252813834085e-15
  outer loop
    vertex -244.00217536449819 100.53959718113562 104.16810983104676
    vertex -241.5021753644982 100.53959718113563 106.46810983104628
    vertex -241.5021753644982 100.53959718113563 104.1681098310467
  endloop
endfacet
facet normal 0.0 1.0 -4.2327252813834085e-15
  outer loop
    vertex -241.5021753644982 100.53959718113563 106.46810983104628
    vertex -244.00217536449819 100.53959718113562 104.16810983104676
    vertex -244.00217536449819 100.5395971811356 106.46810983104632
  endloop
endfacet
facet normal 0.9238795325113701 -0.38268343236488905 1.100301393757022e-13
  outer loop
    vertex -224.7735729808202 88.54080785814268 104.16810983104685
    vertex -225.27307509334332 87.33490308365529 106.46810983104642
    vertex -225.27307509334315 87.33490308365502 104.16810983104685
  endloop
endfacet
facet normal 0.9238795325113701 -0.38268343236488905 1.100301393757022e-13
  outer loop
    vertex -225.27307509334332 87.33490308365529 106.46810983104642
    vertex -224.7735729808202 88.54080785814268 104.16810983104685
    vertex -224.7735729808204 88.54080785814286 106.46810983104632
  endloop
endfacet
facet normal -1.667475468314351e-28 1.0 -4.9042895348667345e-15
  outer loop
    vertex -242.77653199515345 92.28893718113565 104.16810983104673
    vertex -235.22781873384224 92.28893718113567 106.46810983104608
    vertex -235.22781873384247 92.28893718113565 104.16810983104646
  endloop
endfacet
facet normal -1.667475468314351e-28 1.0 -4.9042895348667345e-15
  outer loop
    vertex -235.22781873384224 92.28893718113567 106.46810983104608
    vertex -242.77653199515345 92.28893718113565 104.16810983104673
    vertex -242.7765319951534 92.28893718113567 106.46810983104635
  endloop
endfacet
facet normal -0.29117104281383643 -0.9566710112816753 7.039629739962981e-15
  outer loop
    vertex -238.44532638508534 88.16277193595543 106.46810983104635
    vertex -239.85541076417306 88.59194323337397 104.16810983104699
    vertex -238.44532638508534 88.16277193595543 104.16810983104699
  endloop
endfacet
facet normal -0.29117104281383643 -0.9566710112816753 7.039629739962981e-15
  outer loop
    vertex -239.85541076417306 88.59194323337397 104.16810983104699
    vertex -238.44532638508534 88.16277193595543 106.46810983104635
    vertex -239.85541076417306 88.59194323337401 106.46810983104635
  endloop
endfacet
facet normal 1.0 9.766574207240108e-14 -7.8468632557876e-14
  outer loop
    vertex -231.0021753644982 98.53959718113562 104.16810983104666
    vertex -231.00217536449784 96.69168356215894 106.4681098310463
    vertex -231.00217536449784 96.69168356215894 104.16810983104693
  endloop
endfacet
facet normal 1.0 9.766574207240108e-14 -7.8468632557876e-14
  outer loop
    vertex -231.00217536449784 96.69168356215894 106.4681098310463
    vertex -231.0021753644982 98.53959718113562 104.16810983104666
    vertex -231.00217536449784 98.5395971811356 106.46810983104623
  endloop
endfacet
facet normal -1.0 1.1430606998792962e-14 -2.474733464565439e-28
  outer loop
    vertex -236.5021753644982 96.28893718113567 106.46810983104628
    vertex -236.50217536449819 100.53959718113559 104.16810983104673
    vertex -236.5021753644982 96.28893718113565 104.1681098310467
  endloop
endfacet
facet normal -1.0 1.1430606998792962e-14 -2.474733464565439e-28
  outer loop
    vertex -236.50217536449819 100.53959718113559 104.16810983104673
    vertex -236.5021753644982 96.28893718113567 106.46810983104628
    vertex -236.50217536449819 100.53959718113558 106.4681098310463
  endloop
endfacet
endsolid Uniao - Rolamento v4
